{"glyphs":{"0":{"ha":826,"x_min":0,"x_max":0,"o":"m 414 1008 b 263 968 356 1008 305 995 b 158 858 220 941 185 904 b 97 693 130 811 110 756 b 78 492 84 630 78 563 b 97 290 78 419 84 352 b 158 126 110 227 130 172 b 263 15 185 79 220 42 b 414 -25 305 -12 356 -25 b 565 15 472 -25 522 -12 b 669 126 607 42 641 79 b 729 290 696 172 716 227 b 749 492 742 352 749 419 b 729 693 749 563 742 630 b 669 858 716 756 696 811 b 565 968 641 904 607 941 b 414 1008 522 995 472 1008 z m 414 896 b 512 856 454 896 486 883 b 572 756 537 830 557 797 b 603 625 587 716 597 672 b 611 492 608 578 611 533 b 603 358 611 450 608 406 b 572 228 597 311 587 268 b 512 128 557 188 537 155 b 414 89 486 102 454 89 b 314 128 373 89 340 102 b 253 228 288 155 268 188 b 224 358 239 268 229 311 b 215 492 218 406 215 450 b 224 625 215 533 218 578 b 253 756 229 672 239 716 b 314 856 268 797 288 830 b 414 896 340 883 373 896 z "},"1":{"ha":826,"x_min":0,"x_max":0,"o":"m 526 0 l 526 983 l 406 983 l 126 757 l 206 664 l 392 819 l 392 0 z "},"2":{"ha":826,"x_min":0,"x_max":0,"o":"m 725 0 l 725 121 l 243 121 l 563 432 b 624 497 584 453 604 475 b 674 565 643 518 660 541 b 708 642 689 589 700 615 b 721 729 717 669 721 698 b 695 850 721 775 712 815 b 626 938 678 885 655 914 b 527 990 598 961 565 978 b 410 1008 490 1002 450 1008 b 292 989 368 1008 329 1002 b 196 934 256 976 224 958 b 127 851 168 910 145 883 b 92 747 109 819 97 784 l 224 725 b 285 848 232 775 252 816 b 408 896 317 880 358 896 b 476 884 432 896 455 892 b 532 850 498 876 516 865 b 569 797 548 835 560 817 b 583 726 579 776 583 752 b 551 614 583 685 573 647 b 475 518 530 581 505 549 l 83 129 l 83 0 z "},"3":{"ha":826,"x_min":0,"x_max":0,"o":"m 296 569 l 296 458 l 338 458 b 425 449 366 458 395 455 b 505 419 455 443 481 433 b 563 363 528 404 548 386 b 585 276 577 339 585 311 b 568 194 585 245 579 218 b 524 136 557 171 542 152 b 460 101 505 120 484 109 b 388 89 437 93 413 89 b 256 129 336 89 292 102 b 181 233 221 156 195 191 l 56 192 b 185 28 82 118 125 63 b 390 -25 244 -7 313 -25 b 513 -6 432 -25 473 -19 b 618 51 552 7 588 26 b 692 145 649 76 673 108 b 719 275 710 183 719 226 b 704 363 719 306 714 336 b 663 434 694 389 680 413 b 599 486 645 455 624 472 b 519 515 575 500 548 510 l 519 518 b 589 549 544 525 568 535 b 644 599 610 563 628 579 b 680 664 659 618 671 640 b 693 742 689 688 693 714 b 669 857 693 785 685 824 b 603 940 653 890 631 918 b 506 991 575 963 543 979 b 390 1008 470 1003 431 1008 b 206 958 321 1008 259 991 b 90 818 153 924 114 877 l 213 775 b 278 864 227 813 249 843 b 385 896 308 885 343 896 b 451 884 408 896 430 892 b 506 851 472 876 490 865 b 544 801 522 838 535 821 b 558 733 554 781 558 758 b 540 654 558 702 552 675 b 490 603 527 633 511 616 b 420 577 470 591 447 582 b 339 569 394 572 367 569 z "},"4":{"ha":826,"x_min":0,"x_max":0,"o":"m 626 336 l 626 983 l 461 983 l 43 343 l 43 221 l 496 221 l 496 0 l 626 0 l 626 221 l 768 221 l 768 336 z m 496 829 l 496 336 l 182 336 l 493 829 z "},"5":{"ha":826,"x_min":0,"x_max":0,"o":"m 681 864 l 681 983 l 150 983 l 136 461 b 240 500 167 477 201 490 b 354 515 279 510 317 515 b 442 503 385 515 414 511 b 515 464 469 494 494 481 b 566 397 537 446 553 424 b 585 300 578 369 585 337 b 569 214 585 269 579 240 b 525 147 558 188 544 166 b 460 104 506 129 485 114 b 379 89 435 94 408 89 b 262 125 335 89 296 101 b 188 221 228 149 203 181 l 65 172 b 185 28 92 112 132 64 b 379 -25 238 -7 302 -25 b 515 -1 428 -25 474 -17 b 624 67 557 16 593 38 b 696 174 654 97 678 132 b 722 314 713 215 722 262 b 697 442 722 361 714 404 b 628 540 681 481 658 513 b 524 602 599 567 565 588 b 393 624 484 616 440 624 b 328 619 373 624 351 622 b 267 606 306 617 285 612 l 275 864 z "},"6":{"ha":826,"x_min":0,"x_max":0,"o":"m 321 588 l 585 983 l 425 983 l 168 578 b 99 444 139 532 116 488 b 72 299 81 401 72 352 b 98 169 72 252 81 209 b 169 67 115 130 139 95 b 276 -1 199 38 235 16 b 413 -25 318 -17 363 -25 b 547 -1 461 -25 505 -17 b 654 65 588 14 624 37 b 726 169 685 94 709 128 b 751 303 743 209 751 254 b 728 426 751 347 744 388 b 663 524 712 464 690 497 b 565 588 635 552 602 573 b 444 611 527 603 487 611 b 378 604 423 611 401 609 b 322 585 355 600 336 593 z m 208 297 b 223 381 208 328 213 356 b 265 446 233 406 247 427 b 330 489 283 464 304 479 b 414 504 355 499 383 504 b 497 489 444 504 472 499 b 560 446 522 479 543 464 b 601 381 578 427 591 406 b 615 299 610 356 615 328 b 601 215 615 268 610 240 b 559 148 591 189 577 167 b 495 104 541 129 520 114 b 413 89 471 94 443 89 b 329 106 382 89 354 94 b 265 150 304 117 283 131 b 223 216 247 169 233 191 b 208 297 213 241 208 269 z "},"7":{"ha":826,"x_min":0,"x_max":0,"o":"m 715 861 l 715 983 l 89 983 l 89 864 l 576 864 l 167 0 l 321 0 z "},"8":{"ha":826,"x_min":0,"x_max":0,"o":"m 557 518 l 557 521 b 666 603 601 536 638 563 b 708 743 694 643 708 689 b 685 853 708 784 700 821 b 622 937 669 886 648 914 b 528 990 595 959 564 977 b 414 1008 492 1002 454 1008 b 299 990 373 1008 335 1002 b 206 935 264 977 232 959 b 142 851 179 912 157 884 b 118 740 126 818 118 781 b 160 601 118 686 132 639 b 269 521 189 563 225 537 l 269 518 b 198 485 244 511 221 500 b 138 432 175 471 155 453 b 98 358 121 411 108 386 b 83 268 88 331 83 300 b 110 144 83 222 92 181 b 181 53 127 108 151 78 b 287 -5 211 28 247 9 b 414 -25 327 -18 369 -25 b 540 -5 458 -25 500 -18 b 645 53 580 9 615 28 b 717 144 675 78 699 108 b 743 268 734 181 743 222 b 728 357 743 300 738 329 b 689 431 719 385 706 409 b 630 485 672 452 653 470 b 557 518 607 501 583 512 z m 253 736 b 265 801 253 759 257 781 b 298 852 272 821 284 838 b 349 885 312 866 329 878 b 414 897 369 893 391 897 b 476 885 436 897 457 893 b 527 852 496 878 513 866 b 562 801 541 838 553 821 b 575 736 571 781 575 759 b 563 674 575 714 571 693 b 528 623 554 654 543 637 b 476 589 513 609 496 597 b 414 576 457 581 436 576 b 349 589 391 576 369 581 b 298 623 329 597 312 609 b 265 674 284 637 272 654 b 253 736 257 693 253 714 z m 221 275 b 235 349 221 302 226 327 b 276 408 245 372 259 392 b 337 447 293 425 313 438 b 414 461 360 456 386 461 b 491 447 442 461 467 456 b 551 408 515 438 535 425 b 591 349 568 392 581 372 b 606 275 601 327 606 302 b 591 199 606 247 601 222 b 551 140 581 175 568 156 b 491 101 535 123 515 111 b 414 88 467 92 442 88 b 335 101 385 88 359 92 b 274 140 312 111 291 123 b 235 199 257 156 244 175 b 221 275 225 222 221 247 z "},"9":{"ha":826,"x_min":0,"x_max":0,"o":"m 507 397 l 243 0 l 403 0 l 660 406 b 728 539 688 451 710 495 b 754 685 745 582 754 631 b 728 814 754 731 746 774 b 658 917 711 854 688 888 b 550 984 628 945 592 968 b 415 1008 508 1000 463 1008 b 281 985 367 1008 322 1000 b 172 918 239 969 203 947 b 101 815 142 889 118 855 b 75 681 84 774 75 730 b 99 557 75 636 83 595 b 164 459 114 519 136 486 b 261 395 192 432 224 410 b 382 372 298 380 338 372 b 415 374 392 372 403 373 b 449 379 426 376 438 377 b 506 399 473 384 492 390 z m 619 686 b 605 603 619 656 615 628 b 563 538 595 578 581 556 b 498 494 545 519 523 505 b 414 479 472 484 444 479 b 331 494 383 479 356 484 b 267 538 306 505 284 519 b 226 603 249 556 235 578 b 211 685 216 628 211 655 b 226 769 211 715 216 744 b 267 836 235 795 249 818 b 332 880 285 855 307 869 b 415 896 357 891 385 896 b 499 879 446 896 474 890 b 563 834 524 868 545 853 b 605 767 581 815 595 793 b 619 686 615 742 619 715 z "},"\u0000":{"ha":694,"x_min":0,"x_max":0,"o":""},"\r":{"ha":0,"x_min":0,"x_max":0,"o":""}," ":{"ha":347,"x_min":0,"x_max":0,"o":""},"!":{"ha":464,"x_min":0,"x_max":0,"o":"m 300 288 l 300 983 l 163 983 l 163 288 z m 325 83 b 299 147 325 108 316 130 b 232 174 281 165 259 174 b 165 147 205 174 183 165 b 139 82 148 128 139 107 b 166 19 139 58 148 37 b 232 -8 184 1 206 -8 b 299 19 259 -8 281 1 b 325 83 316 38 325 59 z "},"\"":{"ha":588,"x_min":0,"x_max":0,"o":"m 125 983 l 125 636 l 239 636 l 239 983 z m 349 983 l 349 636 l 463 636 l 463 983 z "},"#":{"ha":797,"x_min":0,"x_max":0,"o":"m 190 293 l 149 0 l 251 0 l 293 293 l 457 293 l 415 0 l 519 0 l 561 293 l 703 293 l 703 394 l 574 394 l 601 590 l 740 590 l 740 692 l 615 692 l 657 983 l 553 983 l 513 692 l 349 692 l 390 983 l 286 983 l 246 692 l 94 692 l 94 590 l 231 590 l 204 394 l 57 394 l 57 293 z m 307 394 l 335 590 l 497 590 l 471 394 z "},"$":{"ha":826,"x_min":0,"x_max":0,"o":"m 367 449 l 367 96 b 313 103 350 96 332 98 b 257 126 294 109 275 116 b 203 161 238 135 220 147 b 158 208 185 175 170 191 l 57 122 b 194 23 96 80 142 47 b 367 -15 247 -1 305 -13 l 367 -115 l 438 -115 l 438 -15 b 549 5 476 -14 513 -8 b 641 60 584 17 615 36 b 703 147 667 84 688 113 b 726 264 719 181 726 220 b 701 381 726 309 718 348 b 635 463 685 413 663 441 b 542 519 608 486 577 505 b 438 560 508 534 473 548 l 438 890 b 535 868 470 889 503 882 b 617 807 568 854 595 834 l 711 894 b 584 973 676 930 634 956 b 438 1000 534 990 486 999 l 438 1096 l 367 1096 l 367 999 b 260 976 330 997 294 989 b 172 922 227 962 197 944 b 110 839 146 899 126 871 b 88 729 95 806 88 770 b 111 618 88 686 95 649 b 173 540 127 588 147 561 b 262 485 198 518 228 500 b 367 449 296 471 331 459 z m 438 96 l 438 429 b 549 368 482 414 519 394 b 593 263 578 342 593 307 b 580 190 593 235 589 211 b 545 140 571 170 559 153 b 496 108 531 126 514 116 b 438 96 477 101 458 97 z m 367 890 l 367 581 b 260 635 323 594 288 612 b 219 738 233 659 219 693 b 263 847 219 784 234 820 b 367 890 291 873 326 888 z "},"%":{"ha":1208,"x_min":0,"x_max":0,"o":"m 660 229 b 679 133 660 195 666 163 b 732 56 692 104 710 78 b 810 3 754 33 780 16 b 906 -17 839 -10 871 -17 b 1001 3 940 -17 972 -10 b 1079 56 1031 16 1057 33 b 1132 133 1101 78 1119 104 b 1151 229 1145 163 1151 195 b 1132 325 1151 263 1145 295 b 1079 403 1119 355 1101 381 b 1001 456 1057 425 1031 443 b 906 475 972 469 940 475 b 810 456 871 475 839 469 b 732 403 780 443 754 425 b 679 325 710 381 692 355 b 660 229 666 295 660 263 z m 1036 229 b 1026 178 1036 211 1033 194 b 998 137 1019 162 1009 148 b 956 109 986 125 972 116 b 906 99 940 102 923 99 b 854 109 887 99 870 102 b 813 137 838 116 825 125 b 785 178 802 148 792 162 b 775 229 778 194 775 211 b 785 280 775 247 778 264 b 813 322 792 296 802 310 b 854 349 825 333 838 342 b 906 360 870 356 887 360 b 956 349 923 360 940 356 b 998 322 972 342 986 333 b 1026 280 1009 310 1019 296 b 1036 229 1033 264 1036 247 z m 57 754 b 76 658 57 720 63 688 b 129 581 89 629 107 603 b 207 528 151 558 177 541 b 303 508 237 515 269 508 b 399 528 337 508 369 515 b 476 581 428 541 454 558 b 529 658 499 603 516 629 b 549 754 542 688 549 720 b 529 850 549 788 542 820 b 476 928 516 880 499 906 b 399 981 454 950 428 968 b 303 1000 369 994 337 1000 b 207 981 269 1000 237 994 b 129 928 177 968 151 950 b 76 850 107 906 89 880 b 57 754 63 820 57 788 z m 433 754 b 423 703 433 736 430 719 b 395 662 416 687 407 673 b 353 634 384 650 370 641 b 303 624 337 627 320 624 b 251 634 284 624 267 627 b 210 662 236 641 222 650 b 183 703 199 673 190 687 b 172 754 176 719 172 736 b 183 805 172 772 176 789 b 210 847 190 821 199 835 b 251 874 222 858 236 867 b 303 885 267 881 284 885 b 353 874 320 885 337 881 b 395 847 370 867 384 858 b 423 805 407 835 416 821 b 433 754 430 789 433 772 z m 351 -44 l 953 982 l 860 1028 l 257 1 z "},"&":{"ha":1004,"x_min":0,"x_max":0,"o":"m 764 232 l 953 525 l 800 525 l 676 317 l 481 518 b 560 563 508 531 535 546 b 628 619 586 579 608 598 b 674 690 647 641 663 664 b 692 778 686 716 692 745 b 671 878 692 816 685 849 b 615 950 657 906 638 931 b 535 994 592 969 565 984 b 438 1008 504 1003 472 1008 b 339 994 403 1008 370 1003 b 255 949 307 984 279 969 b 197 875 230 929 211 905 b 175 771 182 845 175 811 b 208 649 175 726 186 686 b 288 546 229 613 256 578 b 206 500 260 533 232 518 b 135 439 179 482 155 462 b 85 360 114 416 98 390 b 67 261 73 331 67 298 b 92 141 67 216 75 176 b 162 53 109 106 133 77 b 264 0 191 30 225 12 b 386 -18 303 -12 344 -18 b 559 21 455 -18 512 -5 b 685 129 606 47 648 83 l 807 0 l 989 0 z m 565 775 b 551 717 565 754 561 734 b 515 668 542 699 530 683 b 464 629 500 653 483 640 b 404 599 444 618 425 608 b 370 633 393 609 382 620 b 339 676 359 646 348 660 b 316 722 330 691 322 706 b 307 769 310 738 307 754 b 344 864 307 808 319 840 b 439 900 369 888 401 900 b 530 864 476 900 506 888 b 565 775 553 840 565 810 z m 364 461 l 597 217 b 508 124 570 176 541 145 b 389 93 476 103 436 93 b 321 105 366 93 343 97 b 262 139 299 113 279 124 b 221 193 245 154 231 172 b 206 264 211 214 206 238 b 249 385 206 314 220 354 b 364 461 277 415 316 441 z "},"'":{"ha":364,"x_min":0,"x_max":0,"o":"m 125 983 l 125 636 l 239 636 l 239 983 z "},"(":{"ha":438,"x_min":0,"x_max":0,"o":"m 165 400 b 214 698 165 502 181 601 b 344 957 246 795 290 881 l 250 1018 b 103 735 189 936 140 841 b 47 400 66 628 47 517 b 103 65 47 283 66 172 b 250 -218 140 -41 189 -136 l 344 -157 b 214 102 290 -81 246 5 b 165 400 181 199 165 298 z "},")":{"ha":438,"x_min":0,"x_max":0,"o":"m 272 400 b 224 102 272 298 256 199 b 93 -157 191 5 148 -81 l 188 -218 b 335 65 249 -136 298 -41 b 390 400 372 172 390 283 b 335 735 390 517 372 628 b 188 1018 298 841 249 936 l 93 957 b 224 698 148 881 191 795 b 272 400 256 601 272 502 z "},"*":{"ha":631,"x_min":0,"x_max":0,"o":"m 540 861 l 364 804 l 364 983 l 253 983 l 253 804 l 76 861 l 39 756 l 215 699 l 103 547 l 192 481 l 308 638 l 425 481 l 514 547 l 401 699 l 578 756 z "},"+":{"ha":925,"x_min":0,"x_max":0,"o":"m 519 478 l 519 786 l 406 786 l 406 478 l 97 478 l 97 364 l 406 364 l 406 56 l 519 56 l 519 364 l 828 364 l 828 478 z "},",":{"ha":361,"x_min":0,"x_max":0,"o":"m 158 -185 l 274 163 l 143 163 l 47 -185 z "},"-":{"ha":444,"x_min":0,"x_max":0,"o":"m 383 283 l 383 394 l 61 394 l 61 283 z "},".":{"ha":361,"x_min":0,"x_max":0,"o":"m 274 83 b 247 147 274 108 265 130 b 181 174 230 165 207 174 b 114 147 154 174 131 165 b 88 82 96 128 88 107 b 115 19 88 58 97 37 b 181 -8 133 1 155 -8 b 247 19 207 -8 230 1 b 274 83 265 38 274 59 z "},"/":{"ha":528,"x_min":0,"x_max":0,"o":"m 96 -46 l 522 994 l 424 1031 l -3 -12 z "},":":{"ha":417,"x_min":0,"x_max":0,"o":"m 301 576 b 275 640 301 600 293 622 b 208 667 257 658 235 667 b 142 639 181 667 159 657 b 115 575 124 620 115 599 b 142 511 115 550 124 529 b 208 485 160 494 182 485 b 275 512 235 485 257 494 b 301 576 293 530 301 551 z m 301 83 b 275 147 301 108 293 130 b 208 174 257 165 235 174 b 142 147 181 174 159 165 b 115 82 124 128 115 107 b 142 19 115 58 124 37 b 208 -8 160 1 182 -8 b 275 19 235 -8 257 1 b 301 83 293 38 301 59 z "},";":{"ha":417,"x_min":0,"x_max":0,"o":"m 301 576 b 275 640 301 600 293 622 b 208 667 257 658 235 667 b 142 639 181 667 159 657 b 115 575 124 620 115 599 b 142 511 115 550 124 529 b 208 485 160 494 182 485 b 275 512 235 485 257 494 b 301 576 293 530 301 551 z m 171 -185 l 286 163 l 156 163 l 60 -185 z "},"<":{"ha":925,"x_min":0,"x_max":0,"o":"m 818 665 l 818 783 l 110 463 l 110 379 l 815 58 l 815 176 l 283 421 z "},"=":{"ha":925,"x_min":0,"x_max":0,"o":"m 828 592 l 97 592 l 97 479 l 828 479 z m 828 363 l 97 363 l 97 250 l 828 250 z "},">":{"ha":925,"x_min":0,"x_max":0,"o":"m 110 783 l 110 665 l 642 421 l 110 176 l 110 58 l 815 379 l 815 463 z "},"?":{"ha":694,"x_min":0,"x_max":0,"o":"m 418 279 l 418 328 b 423 386 418 351 420 370 b 439 429 426 402 431 416 b 469 467 446 442 456 455 b 517 510 482 480 498 494 b 571 558 536 526 554 543 b 613 609 588 574 602 591 b 640 669 625 627 634 647 b 650 747 647 692 650 718 b 628 858 650 789 643 826 b 567 938 613 890 593 916 b 477 988 541 960 511 976 b 368 1004 443 999 407 1004 b 258 987 329 1004 293 998 b 167 936 224 975 194 958 b 101 855 141 914 119 887 b 67 747 84 823 72 787 l 200 732 b 249 840 205 775 221 811 b 360 885 276 870 313 885 b 469 845 404 885 441 872 b 511 739 497 819 511 783 b 491 659 511 706 504 680 b 440 601 478 638 461 619 l 389 553 b 347 509 373 538 359 523 b 315 464 334 495 323 480 b 294 411 306 448 299 431 b 288 346 290 392 288 370 l 288 279 z m 453 83 b 426 147 453 108 444 130 b 360 174 409 165 387 174 b 293 147 333 174 311 165 b 267 82 275 128 267 107 b 294 19 267 58 276 37 b 360 -8 312 1 334 -8 b 426 19 387 -8 409 1 b 453 83 444 38 453 59 z "},"@":{"ha":1111,"x_min":0,"x_max":0,"o":"m 572 664 b 622 652 593 664 609 660 b 653 622 635 644 646 634 b 670 579 661 609 667 595 b 675 531 673 563 675 547 b 667 463 675 510 672 488 b 640 395 661 439 652 416 b 592 342 627 374 611 357 b 519 321 572 328 548 321 b 469 333 499 321 482 325 b 439 365 456 342 446 352 b 424 405 431 377 426 391 b 419 444 421 419 419 432 b 429 521 419 469 423 495 b 458 592 436 547 445 570 b 506 644 471 613 487 630 b 572 664 525 657 547 664 z m 1011 142 l 947 215 b 791 112 900 171 848 136 b 588 75 734 87 666 75 b 417 104 525 75 469 85 b 285 187 366 124 322 151 b 198 317 248 222 219 266 b 167 488 177 368 167 425 b 196 653 167 547 176 602 b 279 788 215 705 243 750 b 408 876 315 825 358 855 b 575 908 458 898 514 908 b 729 885 631 908 682 901 b 851 817 776 870 817 847 b 931 706 886 787 912 750 b 960 551 950 661 960 610 b 949 458 960 518 956 487 b 921 385 942 430 933 405 b 877 337 909 364 894 348 b 821 319 860 325 841 319 b 775 339 797 319 781 326 b 765 382 769 352 765 366 b 770 432 765 396 767 413 b 779 481 773 451 776 468 l 833 742 l 728 742 l 715 683 l 713 683 b 663 740 704 706 688 724 b 572 763 638 755 607 763 b 459 735 531 763 493 753 b 372 665 425 717 396 694 b 317 564 348 635 330 602 b 297 449 304 526 297 488 b 350 285 297 382 315 328 b 497 222 385 243 434 222 b 558 231 519 222 540 225 b 607 255 576 237 592 245 b 644 287 622 265 634 275 b 668 319 655 298 663 309 l 675 319 b 706 251 675 293 685 270 b 796 222 727 232 757 222 b 899 244 832 222 866 229 b 986 308 932 258 961 280 b 1046 415 1011 337 1031 373 b 1068 563 1061 458 1068 507 b 1027 758 1068 638 1054 703 b 917 897 1000 814 963 860 b 760 981 872 934 819 962 b 576 1008 700 999 639 1008 b 370 969 503 1008 434 995 b 201 860 306 942 250 906 b 88 696 153 813 115 759 b 46 490 60 633 46 564 b 84 283 46 415 59 346 b 192 119 109 219 145 165 b 359 13 238 74 294 39 b 576 -25 424 -12 497 -25 b 817 15 663 -25 743 -12 b 1011 142 892 42 956 84 z "},"A":{"ha":988,"x_min":0,"x_max":0,"o":"m 160 0 l 258 242 l 725 242 l 825 0 l 981 0 l 558 983 l 433 983 l 7 0 z m 307 363 l 492 824 l 675 363 z "},"B":{"ha":892,"x_min":0,"x_max":0,"o":"m 119 983 l 119 0 l 443 0 b 587 17 494 0 542 6 b 704 69 632 29 671 46 b 783 156 738 91 764 120 b 813 279 803 191 813 232 b 797 372 813 313 807 344 b 751 444 786 400 771 424 b 682 494 732 465 709 481 b 594 518 655 506 626 514 l 594 521 b 719 597 646 535 688 560 b 767 735 751 634 767 680 b 740 853 767 782 758 821 b 669 929 722 884 698 910 b 569 971 640 949 606 963 b 458 983 532 979 495 983 z m 257 568 l 257 868 l 414 868 b 571 834 480 868 532 857 b 629 721 610 811 629 774 b 614 652 629 694 624 671 b 572 605 604 633 590 617 b 510 577 555 592 534 583 b 436 568 487 571 462 568 z m 257 117 l 257 451 l 442 451 b 614 413 517 451 574 438 b 674 286 654 387 674 344 b 652 203 674 253 666 225 b 595 151 638 182 619 164 b 516 124 572 138 545 129 b 429 117 487 119 458 117 z "},"C":{"ha":983,"x_min":0,"x_max":0,"o":"m 963 153 l 853 228 b 740 131 823 185 786 153 b 589 97 695 108 644 97 b 435 128 532 97 481 107 b 319 212 390 148 351 176 b 245 338 287 247 262 289 b 219 493 228 386 219 438 b 246 645 219 547 228 597 b 321 771 263 693 288 735 b 438 856 353 807 392 835 b 593 888 484 877 536 888 b 735 855 644 888 691 877 b 838 772 779 833 813 806 l 946 856 b 879 922 927 881 905 903 b 793 969 853 941 825 956 b 694 999 762 982 729 992 b 593 1008 660 1005 626 1008 b 385 971 518 1008 449 996 b 219 866 321 946 266 911 b 109 703 172 821 135 767 b 69 493 83 640 69 570 b 108 284 69 417 82 347 b 216 120 134 221 170 166 b 380 13 262 74 316 39 b 588 -25 443 -12 513 -25 b 811 24 675 -25 749 -9 b 963 153 873 57 924 100 z "},"D":{"ha":1057,"x_min":0,"x_max":0,"o":"m 119 983 l 119 0 l 457 0 b 646 30 520 0 583 10 b 817 120 709 50 766 80 b 940 273 868 160 909 211 b 988 492 972 334 988 407 b 940 715 988 579 972 653 b 817 868 909 777 868 828 b 646 956 766 908 709 937 b 457 983 583 974 520 983 z m 257 121 l 257 864 l 429 864 b 594 840 488 864 543 856 b 724 769 644 823 688 800 b 810 653 761 738 789 699 b 840 492 830 606 840 553 b 810 335 840 433 830 381 b 724 218 789 288 761 250 b 594 146 688 187 644 163 b 429 121 543 129 488 121 z "},"E":{"ha":835,"x_min":0,"x_max":0,"o":"m 257 122 l 257 450 l 721 450 l 721 568 l 257 568 l 257 863 l 750 863 l 750 983 l 119 983 l 119 0 l 771 0 l 771 122 z "},"F":{"ha":789,"x_min":0,"x_max":0,"o":"m 257 0 l 257 439 l 703 439 l 703 557 l 257 557 l 257 863 l 733 863 l 733 983 l 119 983 l 119 0 z "},"G":{"ha":1081,"x_min":0,"x_max":0,"o":"m 861 781 l 957 881 b 803 974 916 919 865 950 b 593 1008 742 997 672 1008 b 385 971 518 1008 449 996 b 219 866 321 946 266 911 b 109 703 172 821 135 767 b 69 493 83 640 69 570 b 108 284 69 417 82 347 b 217 120 134 221 170 166 b 383 13 263 74 318 39 b 594 -25 447 -12 518 -25 b 794 -3 667 -25 733 -18 b 964 61 856 12 912 33 l 964 538 l 610 538 l 610 421 l 828 421 l 828 147 b 726 111 799 131 765 119 b 599 99 688 103 645 99 b 440 129 540 99 488 109 b 321 213 393 150 353 178 b 246 339 288 249 263 291 b 219 493 228 387 219 438 b 246 645 219 547 228 597 b 321 771 263 693 288 735 b 439 856 353 807 393 835 b 594 888 485 877 537 888 b 748 858 651 888 702 878 b 861 781 794 839 831 813 z "},"H":{"ha":1013,"x_min":0,"x_max":0,"o":"m 119 983 l 119 0 l 257 0 l 257 450 l 754 450 l 754 0 l 893 0 l 893 983 l 754 983 l 754 572 l 257 572 l 257 983 z "},"I":{"ha":376,"x_min":0,"x_max":0,"o":"m 257 0 l 257 983 l 119 983 l 119 0 z "},"J":{"ha":688,"x_min":0,"x_max":0,"o":"m 149 219 l 21 183 b 114 33 36 122 67 72 b 297 -25 161 -6 222 -25 b 438 7 355 -25 402 -14 b 524 88 475 28 503 55 b 565 193 544 120 558 155 b 576 301 573 231 576 267 l 576 983 l 439 983 l 439 307 b 432 226 439 278 437 251 b 408 159 427 200 419 178 b 363 114 397 140 382 125 b 290 97 344 103 320 97 b 197 132 253 97 222 109 b 149 219 172 155 156 184 z "},"K":{"ha":915,"x_min":0,"x_max":0,"o":"m 257 550 l 257 983 l 119 983 l 119 0 l 257 0 l 257 508 l 260 508 l 721 0 l 918 0 l 411 533 l 889 983 l 699 983 l 260 550 z "},"L":{"ha":710,"x_min":0,"x_max":0,"o":"m 257 122 l 257 983 l 119 983 l 119 0 l 696 0 l 696 122 z "},"M":{"ha":1254,"x_min":0,"x_max":0,"o":"m 628 228 l 333 983 l 119 983 l 119 0 l 253 0 l 253 822 l 256 822 l 581 0 l 668 0 l 994 822 l 997 822 l 997 0 l 1135 0 l 1135 983 l 921 983 l 631 228 z "},"N":{"ha":1072,"x_min":0,"x_max":0,"o":"m 813 197 l 299 983 l 119 983 l 119 0 l 257 0 l 257 803 l 260 803 l 779 0 l 953 0 l 953 983 l 815 983 l 815 197 z "},"O":{"ha":1179,"x_min":0,"x_max":0,"o":"m 1111 493 b 1072 703 1111 570 1098 640 b 963 866 1045 767 1009 821 b 797 971 916 911 861 946 b 589 1008 733 996 664 1008 b 381 971 514 1008 445 996 b 217 866 318 946 263 911 b 108 703 170 821 134 767 b 69 493 82 640 69 570 b 108 284 69 417 82 347 b 217 120 134 221 170 166 b 381 13 263 74 318 39 b 589 -25 445 -12 514 -25 b 797 13 664 -25 733 -12 b 963 120 861 39 916 74 b 1072 284 1009 166 1045 221 b 1111 493 1098 347 1111 417 z m 963 493 b 936 339 963 438 954 387 b 861 213 919 291 894 249 b 743 129 829 178 789 150 b 589 99 697 109 645 99 b 436 129 532 99 481 109 b 319 213 391 150 352 178 b 244 339 287 249 262 291 b 218 493 227 387 218 438 b 244 645 218 547 227 597 b 319 771 262 693 287 735 b 435 856 351 807 390 835 b 589 888 481 877 532 888 b 744 856 646 888 698 877 b 861 771 790 835 829 807 b 936 645 894 735 919 693 b 963 493 954 597 963 547 z "},"P":{"ha":826,"x_min":0,"x_max":0,"o":"m 119 983 l 119 0 l 257 0 l 257 432 l 413 432 b 555 448 463 432 511 437 b 669 497 599 459 637 475 b 744 583 701 519 726 548 b 771 710 762 619 771 661 b 746 833 771 758 763 799 b 675 918 729 868 706 896 b 564 967 644 940 607 957 b 419 983 520 978 472 983 z m 257 549 l 257 867 l 406 867 b 496 859 438 867 468 864 b 567 833 524 854 547 845 b 615 784 587 820 603 804 b 632 710 626 764 632 739 b 615 635 632 680 626 655 b 568 585 604 614 588 598 b 495 558 548 573 523 564 b 403 549 467 552 436 549 z "},"Q":{"ha":1175,"x_min":0,"x_max":0,"o":"m 1158 0 l 1158 115 l 888 115 l 888 118 b 1035 274 949 156 998 208 b 1090 504 1072 339 1090 416 b 1052 708 1090 578 1078 646 b 946 867 1027 769 991 822 b 785 971 900 911 847 946 b 582 1008 723 996 655 1008 b 377 971 508 1008 440 996 b 215 867 315 946 261 911 b 108 708 170 822 134 769 b 69 504 82 646 69 578 b 107 296 69 427 82 358 b 213 138 132 234 167 181 b 374 36 258 94 312 60 b 581 0 437 12 506 0 z m 218 504 b 244 653 218 557 227 606 b 317 774 261 699 285 740 b 432 857 349 809 388 837 b 582 888 476 877 526 888 b 732 857 638 888 688 877 b 846 774 776 837 814 809 b 918 653 877 740 901 699 b 943 504 935 606 943 557 b 917 353 943 450 934 400 b 843 232 899 307 875 266 b 728 151 812 198 773 171 b 581 121 684 131 634 121 b 431 151 525 121 475 131 b 317 232 386 171 348 198 b 244 353 285 266 261 307 b 218 504 227 400 218 450 z "},"R":{"ha":853,"x_min":0,"x_max":0,"o":"m 257 0 l 257 438 l 404 438 l 654 0 l 821 0 l 546 451 b 718 536 616 463 674 492 b 785 711 763 581 785 639 b 757 838 785 761 775 803 b 681 922 738 873 713 901 b 569 969 649 944 612 959 b 435 983 527 978 482 983 l 119 983 l 119 0 z m 257 553 l 257 867 l 425 867 b 510 859 455 867 483 864 b 580 833 537 854 560 845 b 628 785 600 821 616 805 b 646 711 640 766 646 741 b 628 637 646 681 640 657 b 578 588 616 617 599 601 b 506 561 558 576 533 567 b 415 553 478 556 448 553 z "},"S":{"ha":790,"x_min":0,"x_max":0,"o":"m 608 801 l 706 896 b 585 978 675 930 635 957 b 424 1008 535 998 481 1008 b 302 992 383 1008 342 1003 b 194 942 262 982 226 965 b 116 854 162 919 136 889 b 86 728 96 819 86 777 b 108 614 86 682 94 644 b 167 537 123 583 143 558 b 249 485 191 516 218 499 b 342 451 279 472 310 461 b 431 422 373 441 403 431 b 506 386 459 412 484 400 b 556 335 527 372 544 355 b 575 261 569 316 575 291 b 557 185 575 231 569 206 b 510 133 545 165 529 147 b 447 103 491 119 470 109 b 378 93 424 96 401 93 b 251 125 332 93 290 104 b 158 208 213 146 181 174 l 51 118 b 195 11 89 71 137 35 b 375 -25 253 -13 313 -25 b 502 -7 419 -25 461 -19 b 611 48 543 5 580 23 b 687 141 643 72 668 103 b 715 274 706 178 715 223 b 689 395 715 323 706 363 b 621 475 671 427 649 454 b 528 526 593 496 562 513 b 426 561 494 539 460 551 b 348 588 399 570 372 579 b 284 620 323 597 302 608 b 241 666 266 633 252 648 b 225 733 230 684 225 706 b 242 805 225 761 231 785 b 288 855 254 825 269 841 b 349 884 306 868 327 878 b 417 893 372 890 394 893 b 529 867 458 893 496 884 b 608 801 563 850 589 828 z "},"T":{"ha":790,"x_min":0,"x_max":0,"o":"m 464 0 l 464 863 l 779 863 l 779 983 l 11 983 l 11 863 l 326 863 l 326 0 z "},"U":{"ha":989,"x_min":0,"x_max":0,"o":"m 494 -25 b 664 8 559 -25 616 -14 b 783 94 712 29 752 58 b 853 219 815 131 838 172 b 876 364 869 266 876 314 l 876 983 l 739 983 l 739 372 b 726 273 739 339 735 306 b 685 185 718 240 704 211 b 610 122 666 159 641 138 b 494 99 578 106 540 99 b 378 122 448 99 409 106 b 303 185 347 138 322 159 b 263 273 284 211 271 240 b 250 372 254 306 250 339 l 250 983 l 113 983 l 113 364 b 135 219 113 314 120 266 b 206 94 151 172 174 131 b 325 8 237 58 277 29 b 494 -25 373 -14 430 -25 z "},"V":{"ha":892,"x_min":0,"x_max":0,"o":"m 446 178 l 150 983 l -3 983 l 381 0 l 508 0 l 894 983 l 746 983 l 450 178 z "},"W":{"ha":1372,"x_min":0,"x_max":0,"o":"m 379 200 l 163 983 l 14 983 l 303 0 l 446 0 l 685 790 l 688 790 l 926 0 l 1069 0 l 1358 983 l 1213 983 l 996 200 l 993 200 l 764 983 l 613 983 l 382 200 z "},"X":{"ha":928,"x_min":0,"x_max":0,"o":"m 464 617 l 228 983 l 60 983 l 376 521 l 25 0 l 194 0 l 458 414 l 728 0 l 901 0 l 544 518 l 858 983 l 697 983 z "},"Y":{"ha":867,"x_min":0,"x_max":0,"o":"m 503 0 l 503 425 l 871 983 l 711 983 l 438 539 l 165 983 l -4 983 l 364 425 l 364 0 z "},"Z":{"ha":822,"x_min":0,"x_max":0,"o":"m 768 863 l 768 983 l 57 983 l 57 863 l 600 863 l 46 121 l 46 0 l 776 0 l 776 122 l 213 122 z "},"[":{"ha":438,"x_min":0,"x_max":0,"o":"m 328 925 l 328 1017 l 82 1017 l 82 -217 l 328 -217 l 328 -125 l 199 -125 l 199 925 z "},"\\":{"ha":528,"x_min":0,"x_max":0,"o":"m 6 994 l 432 -46 l 531 -12 l 103 1031 z "},"]":{"ha":438,"x_min":0,"x_max":0,"o":"m 110 -125 l 110 -217 l 356 -217 l 356 1017 l 110 1017 l 110 925 l 239 925 l 239 -125 z "},"^":{"ha":925,"x_min":0,"x_max":0,"o":"m 417 983 l 103 429 l 229 429 l 461 846 l 696 429 l 822 429 l 508 983 z "},"_":{"ha":694,"x_min":0,"x_max":0,"o":"m 0 -104 l 0 -192 l 694 -192 l 694 -104 z "},"`":{"ha":347,"x_min":0,"x_max":0,"o":"m -47 983 l 142 783 l 249 783 l 110 983 z "},"a":{"ha":753,"x_min":0,"x_max":0,"o":"m 522 426 l 522 408 b 357 401 467 408 412 406 b 210 372 302 397 253 387 b 104 305 166 356 131 334 b 64 186 77 276 64 236 b 87 90 64 148 72 116 b 144 28 102 64 121 44 b 222 -6 168 12 193 1 b 303 -17 250 -13 277 -17 b 433 13 353 -17 396 -7 b 524 94 469 32 500 59 l 528 94 b 539 0 528 63 531 31 l 657 0 b 649 60 653 16 651 36 b 647 131 648 85 647 108 l 647 418 b 631 519 647 454 642 488 b 581 601 619 551 603 578 b 495 656 558 625 530 643 b 372 676 460 670 419 676 b 222 650 319 676 268 668 b 103 578 175 632 135 608 l 172 494 b 255 549 194 517 222 535 b 360 571 288 564 323 571 b 478 535 409 571 448 559 b 522 426 507 512 522 475 z m 490 314 l 522 314 l 522 279 b 473 141 522 224 506 178 b 332 86 440 104 393 86 b 283 91 315 86 299 88 b 240 108 268 94 253 100 b 209 140 227 117 217 127 b 197 189 201 153 197 169 b 225 256 197 217 206 239 b 295 293 244 272 267 285 b 390 310 323 301 355 307 b 490 314 424 313 458 314 z "},"b":{"ha":883,"x_min":0,"x_max":0,"o":"m 242 104 l 244 104 b 347 13 270 64 305 34 b 482 -18 390 -8 435 -18 b 619 9 533 -18 579 -9 b 724 83 660 27 695 52 b 790 194 752 115 775 152 b 814 331 806 237 814 282 b 790 466 814 379 806 424 b 723 576 775 508 752 545 b 619 650 694 608 659 632 b 485 676 578 668 534 676 b 343 642 430 676 383 665 b 250 560 303 620 272 592 l 246 560 l 246 1050 l 115 1050 l 115 0 l 242 0 z m 679 331 b 665 242 679 300 675 270 b 624 165 656 213 642 188 b 555 112 605 143 582 125 b 460 92 528 98 496 92 b 369 111 426 92 396 98 b 299 163 341 124 318 141 b 253 239 279 185 264 210 b 238 329 243 268 238 298 b 253 419 238 361 243 391 b 299 496 264 448 279 474 b 369 549 318 518 341 536 b 460 568 396 562 426 568 b 555 549 496 568 528 562 b 624 496 582 536 605 518 b 665 419 642 474 656 448 b 679 331 675 391 679 361 z "},"c":{"ha":686,"x_min":0,"x_max":0,"o":"m 574 492 l 668 568 b 559 649 641 603 605 630 b 421 676 513 667 467 676 b 281 651 371 676 324 668 b 169 581 238 635 201 611 b 96 471 138 550 113 513 b 69 329 78 428 69 381 b 97 186 69 276 78 229 b 171 77 115 144 139 107 b 283 7 202 47 240 24 b 424 -18 326 -10 373 -18 b 565 9 476 -18 524 -9 b 669 85 607 27 642 52 l 582 164 b 515 111 564 142 542 124 b 424 92 487 98 457 92 b 332 111 389 92 359 98 b 264 163 305 124 282 141 b 222 239 245 185 231 210 b 207 329 212 268 207 298 b 222 419 207 361 212 391 b 264 495 231 448 245 473 b 331 547 282 517 305 534 b 422 567 358 560 388 567 b 511 545 454 567 483 559 b 574 492 539 531 560 513 z "},"d":{"ha":882,"x_min":0,"x_max":0,"o":"m 638 104 l 640 104 l 640 0 l 767 0 l 767 1050 l 636 1050 l 636 560 l 633 560 b 539 642 610 592 579 620 b 399 676 499 665 452 676 b 264 650 350 676 305 668 b 159 576 223 632 188 608 b 92 466 130 545 107 508 b 68 331 76 424 68 379 b 92 194 68 282 76 237 b 158 83 107 152 130 115 b 263 9 187 52 222 27 b 400 -18 303 -9 349 -18 b 535 13 447 -18 492 -8 b 638 104 578 34 613 64 z m 204 331 b 218 419 204 361 209 391 b 260 496 227 448 241 474 b 328 549 278 518 301 536 b 422 568 355 562 386 568 b 513 549 456 568 486 562 b 583 496 541 536 564 518 b 628 419 603 474 618 448 b 644 329 639 391 644 361 b 628 239 644 298 639 268 b 583 163 618 210 603 185 b 513 111 564 141 541 124 b 422 92 486 98 456 92 b 328 112 386 92 355 98 b 260 165 301 125 278 143 b 218 242 241 188 227 213 b 204 331 209 270 204 300 z "},"e":{"ha":796,"x_min":0,"x_max":0,"o":"m 594 388 l 203 388 b 223 460 205 413 211 438 b 267 519 234 483 249 503 b 331 559 285 536 307 549 b 410 574 356 569 382 574 b 490 559 440 574 467 569 b 547 519 512 549 531 536 b 581 460 562 503 573 483 b 594 388 589 438 594 413 z m 726 335 b 704 477 726 388 719 435 b 641 585 689 519 668 555 b 541 653 614 614 580 637 b 410 676 502 669 458 676 b 275 651 362 676 317 668 b 167 579 233 634 197 610 b 95 469 136 549 112 512 b 69 328 78 426 69 379 b 96 186 69 276 78 229 b 168 77 113 144 138 107 b 278 7 199 47 235 24 b 417 -18 320 -10 367 -18 b 576 15 475 -18 528 -7 b 700 117 623 36 665 70 l 608 190 b 532 119 590 163 564 139 b 417 90 500 100 461 90 b 335 106 388 90 361 95 b 268 148 310 116 288 130 b 222 212 249 166 233 187 b 203 290 210 236 204 263 l 725 290 b 726 313 726 298 726 305 z "},"f":{"ha":431,"x_min":0,"x_max":0,"o":"m 422 551 l 422 658 l 269 658 l 269 796 b 274 855 269 816 271 836 b 290 906 276 874 282 891 b 326 941 299 920 310 932 b 386 954 341 950 361 954 b 421 951 399 954 411 953 b 451 944 431 950 441 947 l 467 1057 b 385 1067 444 1063 416 1067 b 272 1046 340 1067 303 1060 b 195 989 241 1032 215 1013 b 152 903 175 965 161 936 b 139 796 143 871 139 835 l 139 658 l 8 658 l 8 551 l 139 551 l 139 0 l 269 0 l 269 551 z "},"g":{"ha":878,"x_min":0,"x_max":0,"o":"m 164 -112 l 81 -214 b 230 -302 122 -252 172 -281 b 403 -333 288 -323 345 -333 b 575 -303 471 -333 529 -323 b 688 -222 621 -282 659 -255 b 749 -105 716 -188 737 -149 b 767 33 761 -61 767 -15 l 767 658 l 640 658 l 640 553 l 638 553 b 535 646 613 594 578 625 b 400 676 492 666 447 676 b 264 649 350 676 305 667 b 160 576 223 631 188 607 b 93 467 131 545 109 508 b 69 333 77 425 69 381 b 93 201 69 286 77 242 b 160 93 109 159 131 124 b 265 21 188 63 223 38 b 401 -6 306 3 351 -6 b 535 24 449 -6 493 4 b 633 108 576 43 609 71 l 636 108 l 636 24 b 624 -72 636 -11 632 -43 b 585 -149 616 -102 603 -128 b 514 -201 567 -171 544 -188 b 404 -219 484 -213 448 -219 b 272 -190 359 -219 315 -210 b 164 -112 228 -171 193 -145 z m 204 336 b 219 426 204 368 209 397 b 262 499 228 454 243 478 b 331 549 281 520 304 537 b 422 568 357 562 388 568 b 513 549 456 568 486 562 b 584 499 541 537 564 520 b 630 425 604 477 619 453 b 646 336 641 397 646 368 b 630 245 646 304 641 273 b 585 172 619 217 604 192 b 514 122 565 151 542 134 b 422 104 486 110 456 104 b 331 124 388 104 357 111 b 262 175 304 137 281 154 b 219 249 243 196 228 221 b 204 336 209 276 204 306 z "},"h":{"ha":811,"x_min":0,"x_max":0,"o":"m 249 558 l 246 558 l 246 1050 l 115 1050 l 115 0 l 246 0 l 246 349 b 296 506 246 414 263 467 b 424 565 329 546 372 565 b 498 549 454 565 479 560 b 543 504 517 538 532 523 b 566 440 554 486 562 464 b 572 364 570 416 572 391 l 572 0 l 703 0 l 703 408 b 688 513 703 445 698 480 b 643 597 678 545 663 573 b 567 655 623 621 597 641 b 457 676 536 669 500 676 b 329 642 410 676 367 665 b 249 558 291 619 264 591 z "},"i":{"ha":360,"x_min":0,"x_max":0,"o":"m 244 0 l 244 658 l 114 658 l 114 0 z m 267 896 b 241 956 267 920 258 940 b 179 981 224 972 203 981 b 118 956 155 981 135 972 b 93 896 101 940 93 920 b 118 837 93 873 101 853 b 179 813 135 821 155 813 b 241 836 203 813 224 820 b 267 896 258 852 267 872 z "},"j":{"ha":361,"x_min":0,"x_max":0,"o":"m -29 -214 l -43 -325 b -7 -331 -33 -327 -21 -329 b 32 -333 7 -332 20 -333 b 139 -313 75 -333 111 -327 b 204 -258 167 -300 188 -281 b 237 -179 220 -235 231 -209 b 246 -85 243 -150 246 -118 l 246 658 l 115 658 l 115 -81 b 112 -135 115 -100 114 -118 b 99 -180 109 -153 105 -167 b 71 -210 92 -192 83 -202 b 24 -221 59 -217 43 -221 b -29 -214 7 -221 -11 -219 z m 268 896 b 242 956 268 920 259 940 b 181 981 225 972 205 981 b 119 956 156 981 136 972 b 93 896 102 940 93 920 b 119 837 93 873 102 853 b 181 813 136 821 156 813 b 242 836 205 813 225 820 b 268 896 259 852 268 872 z "},"k":{"ha":732,"x_min":0,"x_max":0,"o":"m 246 372 l 246 1050 l 115 1050 l 115 0 l 246 0 l 246 342 l 250 342 l 547 0 l 728 0 l 393 360 l 701 658 l 526 658 l 250 372 z "},"l":{"ha":361,"x_min":0,"x_max":0,"o":"m 246 0 l 246 1050 l 115 1050 l 115 0 z "},"m":{"ha":1232,"x_min":0,"x_max":0,"o":"m 240 550 l 240 550 l 236 550 b 235 602 236 564 236 581 b 231 658 234 623 232 642 l 107 658 b 111 585 109 637 110 613 b 113 517 112 557 113 534 l 113 0 l 243 0 l 243 350 b 291 508 243 416 259 468 b 411 567 323 547 363 567 b 476 553 437 567 459 562 b 519 517 494 545 508 533 b 543 463 531 502 538 484 b 550 392 548 441 550 418 l 550 0 l 681 0 l 681 356 b 690 432 681 381 684 407 b 719 499 696 457 705 479 b 771 548 732 519 750 535 b 847 567 792 560 818 567 b 918 550 876 567 900 561 b 963 506 937 539 951 524 b 986 442 974 487 981 466 b 993 365 991 418 993 392 l 993 0 l 1124 0 l 1124 408 b 1109 513 1124 445 1119 480 b 1064 597 1099 545 1084 573 b 988 655 1044 621 1018 641 b 878 676 957 669 920 676 b 747 642 831 676 787 665 b 654 544 707 620 676 587 b 570 646 634 592 606 625 b 450 676 534 666 494 676 b 320 640 400 676 357 664 b 240 550 284 615 257 585 z "},"n":{"ha":808,"x_min":0,"x_max":0,"o":"m 231 658 l 107 658 b 111 585 109 637 110 613 b 113 517 112 557 113 534 l 113 0 l 243 0 l 243 350 b 292 508 243 416 259 468 b 419 567 325 547 368 567 b 494 550 450 567 475 561 b 540 506 514 539 529 524 b 563 442 551 487 559 466 b 569 365 567 418 569 392 l 569 0 l 700 0 l 700 408 b 685 513 700 445 695 480 b 640 597 676 545 661 573 b 564 655 620 621 594 641 b 454 676 533 669 497 676 b 385 667 430 676 407 673 b 324 640 363 660 342 651 b 274 599 305 628 289 615 b 240 550 260 584 249 568 l 236 550 b 235 602 236 564 236 581 b 231 658 234 623 232 642 z "},"o":{"ha":847,"x_min":0,"x_max":0,"o":"m 779 331 b 752 470 779 381 770 428 b 677 579 734 512 709 549 b 564 651 645 610 607 634 b 424 676 520 668 474 676 b 283 651 374 676 327 668 b 171 579 240 634 202 610 b 97 470 139 549 115 512 b 69 331 78 428 69 381 b 97 190 69 280 78 233 b 171 80 115 148 139 111 b 283 8 202 49 240 25 b 424 -18 327 -9 374 -18 b 564 8 474 -18 520 -9 b 677 80 607 25 645 49 b 752 190 709 111 734 148 b 779 331 770 233 779 280 z m 643 331 b 628 240 643 299 638 269 b 586 164 619 212 605 186 b 517 111 568 142 545 124 b 424 92 490 98 459 92 b 330 111 388 92 357 98 b 261 164 303 124 280 142 b 219 240 243 186 228 212 b 204 331 209 269 204 299 b 219 421 204 362 209 392 b 261 497 228 450 243 475 b 330 549 280 518 303 536 b 424 568 357 562 388 568 b 517 549 459 568 490 562 b 586 497 545 536 568 518 b 628 421 605 475 619 450 b 643 331 638 392 643 362 z "},"p":{"ha":881,"x_min":0,"x_max":0,"o":"m 243 -333 l 243 99 l 247 99 b 346 13 271 62 304 33 b 479 -18 388 -8 432 -18 b 617 9 530 -18 576 -9 b 721 83 657 27 692 52 b 788 194 750 115 772 152 b 811 331 803 237 811 282 b 788 466 811 379 803 424 b 720 576 772 508 749 545 b 616 650 691 608 656 632 b 482 676 576 668 531 676 b 338 642 427 676 379 665 b 244 556 297 620 266 591 l 240 556 l 240 658 l 113 658 l 113 -333 z m 676 331 b 663 242 676 300 672 270 b 621 165 653 213 639 188 b 552 112 602 143 579 125 b 457 92 525 98 493 92 b 366 111 424 92 393 98 b 296 163 339 124 315 141 b 251 239 276 185 261 210 b 235 329 240 268 235 298 b 251 419 235 361 240 391 b 296 496 261 448 276 474 b 366 549 315 518 339 536 b 457 568 393 562 424 568 b 552 549 493 568 525 562 b 621 496 579 536 602 518 b 663 419 639 474 653 448 b 676 331 672 391 676 361 z "},"q":{"ha":879,"x_min":0,"x_max":0,"o":"m 633 99 l 636 99 l 636 -333 l 767 -333 l 767 658 l 640 658 l 640 556 l 636 556 b 541 642 614 591 582 620 b 399 676 500 665 452 676 b 264 650 350 676 305 668 b 159 576 223 632 188 608 b 92 466 130 545 107 508 b 68 331 76 424 68 379 b 92 194 68 282 76 237 b 158 83 107 152 130 115 b 263 9 187 52 222 27 b 400 -18 303 -9 349 -18 b 534 13 447 -18 492 -8 b 633 99 576 33 609 62 z m 204 331 b 218 419 204 361 209 391 b 260 496 227 448 241 474 b 328 549 278 518 301 536 b 422 568 355 562 386 568 b 513 549 456 568 486 562 b 583 496 541 536 564 518 b 628 419 603 474 618 448 b 644 329 639 391 644 361 b 628 239 644 298 639 268 b 583 163 618 210 603 185 b 513 111 564 141 541 124 b 422 92 486 98 456 92 b 328 112 386 92 355 98 b 260 165 301 125 278 143 b 218 242 241 188 227 213 b 204 331 209 270 204 300 z "},"r":{"ha":503,"x_min":0,"x_max":0,"o":"m 113 517 l 113 517 l 113 0 l 243 0 l 243 346 b 254 426 243 374 247 400 b 288 493 262 451 273 474 b 346 540 303 513 323 528 b 428 557 369 551 396 557 b 488 550 449 557 469 555 l 493 671 b 442 676 479 675 462 676 b 322 641 397 676 357 665 b 240 547 286 617 259 586 l 236 547 b 235 601 236 561 236 579 b 231 658 234 622 232 642 l 107 658 b 111 585 109 637 110 613 b 113 517 112 557 113 534 z "},"s":{"ha":617,"x_min":0,"x_max":0,"o":"m 468 492 l 558 568 b 456 649 534 603 500 630 b 319 676 412 667 367 676 b 228 665 288 676 257 672 b 149 628 198 657 172 645 b 92 566 125 612 107 591 b 71 475 78 541 71 510 b 88 398 71 444 77 419 b 133 346 100 377 115 360 b 195 313 152 332 172 321 b 263 293 218 305 240 299 b 391 251 319 280 362 266 b 435 183 420 237 435 214 b 424 138 435 165 431 150 b 394 108 416 125 406 116 b 352 92 381 101 367 96 b 304 88 337 89 321 88 b 202 114 267 88 233 96 b 129 179 171 131 147 153 l 36 100 b 155 11 68 60 107 31 b 301 -18 203 -8 251 -18 b 399 -7 335 -18 367 -14 b 483 30 430 0 458 13 b 542 96 507 47 527 69 b 564 194 556 123 564 156 b 547 269 564 223 558 248 b 501 324 536 291 521 309 b 431 363 481 340 457 352 b 343 389 404 373 375 381 b 231 426 293 400 256 412 b 193 488 206 439 193 460 b 203 527 193 503 197 516 b 231 553 210 538 220 547 b 271 569 243 560 256 566 b 315 574 286 572 300 574 b 406 551 349 574 379 566 b 468 492 432 535 453 516 z "},"t":{"ha":457,"x_min":0,"x_max":0,"o":"m 435 551 l 435 658 l 260 658 l 260 847 l 131 847 l 131 658 l 4 658 l 4 551 l 131 551 l 131 194 b 180 40 131 126 147 75 b 322 -11 213 6 260 -11 b 381 -6 343 -11 362 -9 b 433 7 400 -3 418 1 l 429 114 b 392 101 418 108 406 104 b 353 97 378 99 365 97 b 282 123 320 97 297 106 b 260 208 267 140 260 169 l 260 551 z "},"u":{"ha":808,"x_min":0,"x_max":0,"o":"m 576 0 l 700 0 b 696 74 698 21 697 46 b 694 142 695 101 694 124 l 694 658 l 564 658 l 564 308 b 515 151 564 243 548 190 b 388 92 483 111 440 92 b 313 108 357 92 332 97 b 267 153 293 119 278 134 b 244 217 256 171 248 193 b 238 294 240 242 238 268 l 238 658 l 107 658 l 107 250 b 122 146 107 213 112 178 b 166 60 131 113 146 85 b 242 3 186 36 211 17 b 353 -18 273 -11 310 -18 b 484 19 401 -18 445 -6 b 568 108 523 43 551 73 l 571 108 b 572 56 571 94 571 77 b 576 0 573 35 575 17 z "},"v":{"ha":700,"x_min":0,"x_max":0,"o":"m 422 0 l 686 658 l 547 658 l 353 140 l 350 140 l 157 658 l 13 658 l 281 0 z "},"w":{"ha":1074,"x_min":0,"x_max":0,"o":"m 161 658 l 19 658 l 239 0 l 375 0 l 536 494 l 539 494 l 701 0 l 838 0 l 1056 658 l 918 658 l 769 156 l 767 156 l 607 658 l 469 658 l 313 156 l 310 156 z "},"x":{"ha":710,"x_min":0,"x_max":0,"o":"m 274 346 l 10 0 l 167 0 l 353 257 l 536 0 l 699 0 l 433 347 l 671 658 l 518 658 l 356 432 l 194 658 l 33 658 z "},"y":{"ha":700,"x_min":0,"x_max":0,"o":"m 363 142 l 158 658 l 13 658 l 294 0 l 253 -110 b 207 -191 239 -145 224 -172 b 131 -219 190 -210 165 -219 b 65 -208 109 -219 88 -216 l 53 -324 b 97 -331 68 -327 82 -330 b 139 -333 111 -333 125 -333 b 223 -321 171 -333 199 -329 b 285 -285 247 -312 267 -301 b 331 -230 302 -270 318 -252 b 367 -156 344 -208 356 -183 l 686 658 l 547 658 l 365 142 z "},"z":{"ha":642,"x_min":0,"x_max":0,"o":"m 582 551 l 582 658 l 64 658 l 64 551 l 418 551 l 46 107 l 46 0 l 597 0 l 597 110 l 207 110 z "},"{":{"ha":438,"x_min":0,"x_max":0,"o":"m 7 451 l 7 349 b 79 319 35 349 59 339 b 110 218 100 299 110 265 l 110 -37 b 123 -119 110 -70 114 -97 b 159 -175 132 -142 144 -160 b 212 -207 174 -190 192 -200 b 274 -217 232 -213 252 -217 l 368 -217 l 368 -121 l 297 -121 b 260 -112 281 -121 269 -118 b 239 -88 250 -106 244 -98 b 229 -56 234 -78 231 -68 b 226 -21 227 -45 226 -33 l 226 229 b 212 311 226 263 222 290 b 176 362 202 332 190 349 b 133 389 163 374 148 383 b 97 399 119 394 106 398 l 97 401 b 133 413 106 402 119 406 b 176 441 148 419 163 428 b 212 490 190 453 202 470 b 226 567 222 511 226 536 l 226 821 b 229 856 226 833 227 845 b 239 888 231 868 234 878 b 260 912 244 898 250 906 b 297 921 269 918 281 921 l 368 921 l 368 1017 l 274 1017 b 212 1007 252 1017 232 1013 b 159 975 192 1000 174 990 b 123 919 144 960 132 941 b 110 838 114 896 110 869 l 110 576 b 79 481 110 532 100 500 b 7 451 59 461 35 451 z "},"|":{"ha":308,"x_min":0,"x_max":0,"o":"m 211 1042 l 97 1042 l 97 -347 l 211 -347 z "},"}":{"ha":438,"x_min":0,"x_max":0,"o":"m 431 349 l 431 349 l 431 451 b 358 481 403 451 379 461 b 328 576 338 500 328 532 l 328 838 b 315 919 328 869 323 896 b 278 975 306 941 294 960 b 226 1007 263 990 246 1000 b 164 1017 206 1013 185 1017 l 69 1017 l 69 921 l 142 921 b 178 912 156 921 169 918 b 199 888 187 906 194 898 b 208 856 203 878 206 868 b 211 821 210 845 211 833 l 211 567 b 226 490 211 536 216 511 b 261 441 235 470 247 453 b 304 413 275 428 289 419 b 342 401 319 406 331 402 l 342 399 b 304 389 331 398 319 394 b 261 362 289 383 275 374 b 226 311 247 349 235 332 b 211 229 216 290 211 263 l 211 -21 b 208 -56 211 -33 210 -45 b 199 -88 206 -68 203 -78 b 178 -112 194 -98 187 -106 b 142 -121 169 -118 156 -121 l 69 -121 l 69 -217 l 164 -217 b 226 -207 185 -217 206 -213 b 278 -175 246 -200 263 -190 b 315 -119 294 -160 306 -142 b 328 -37 323 -97 328 -70 l 328 218 b 358 319 328 265 338 299 b 431 349 379 339 403 349 z "},"~":{"ha":925,"x_min":0,"x_max":0,"o":"m 472 481 b 390 522 441 501 413 515 b 313 533 366 530 340 533 b 213 506 281 533 248 524 b 113 397 178 487 145 451 l 194 321 b 315 415 229 384 269 415 b 344 413 325 415 335 415 b 372 406 353 412 362 409 b 406 390 382 402 394 397 b 451 363 419 383 434 374 b 536 321 484 342 512 328 b 613 310 560 313 586 310 b 661 315 628 310 644 312 b 712 336 678 319 695 326 b 763 378 729 346 746 360 b 813 444 779 395 796 418 l 731 521 b 610 426 696 458 656 426 b 581 428 600 426 590 427 b 553 436 572 430 563 432 b 518 453 543 440 531 445 b 472 481 505 460 490 469 z "}," ":{"ha":347,"x_min":0,"x_max":0,"o":""},"¡":{"ha":464,"x_min":0,"x_max":0,"o":"m 163 -307 l 300 -307 l 300 389 l 163 389 z m 325 593 b 299 657 325 617 316 638 b 232 685 281 675 259 685 b 166 658 206 685 184 676 b 139 594 148 640 139 619 b 165 530 139 569 148 548 b 232 503 183 512 205 503 b 299 529 259 503 281 512 b 325 593 316 547 325 568 z "},"¢":{"ha":826,"x_min":0,"x_max":0,"o":"m 415 560 l 415 99 b 289 179 361 110 319 137 b 244 329 259 222 244 272 b 288 480 244 387 259 437 b 415 560 317 523 360 550 z m 486 97 l 486 561 b 566 538 516 559 542 552 b 625 488 590 525 609 508 l 717 571 b 612 648 687 606 652 632 b 486 675 572 664 530 673 l 486 764 l 415 764 l 415 674 b 290 637 369 668 327 656 b 196 563 253 618 222 593 b 136 459 170 533 150 498 b 115 331 122 420 115 377 b 136 201 115 284 122 241 b 196 96 150 162 170 126 b 290 21 222 65 253 40 b 415 -15 327 1 369 -11 l 415 -108 l 486 -108 l 486 -17 b 611 11 529 -15 570 -6 b 717 88 652 28 687 53 l 628 171 b 567 119 612 150 592 133 b 486 97 543 106 516 98 z "},"£":{"ha":826,"x_min":0,"x_max":0,"o":"m 603 451 l 603 551 l 372 551 l 372 665 b 379 740 372 688 375 713 b 406 815 384 767 393 792 b 461 873 420 838 438 858 b 551 896 484 888 514 896 b 636 878 582 896 610 890 b 701 832 662 867 684 851 l 783 925 b 680 988 754 953 719 974 b 554 1008 641 1001 599 1008 b 403 977 494 1008 444 998 b 305 897 362 956 329 929 b 252 788 280 864 263 828 b 236 674 241 749 236 711 l 236 551 l 101 551 l 101 451 l 236 451 l 236 117 l 97 117 l 97 0 l 738 0 l 738 117 l 372 117 l 372 451 z "},"€":{"ha":826,"x_min":0,"x_max":0,"o":"m 732 851 l 732 851 l 775 963 b 680 996 749 976 717 988 b 561 1008 642 1004 603 1008 b 413 985 508 1008 459 1000 b 288 917 366 969 325 946 b 194 808 252 887 220 851 b 135 664 167 766 148 718 l 57 664 l 22 565 l 119 565 b 116 528 118 555 116 543 b 115 486 116 513 115 499 b 116 451 115 475 116 463 b 118 417 116 438 117 427 l 53 417 l 19 318 l 131 318 b 177 188 140 273 155 229 b 262 79 199 147 227 111 b 384 3 297 48 337 22 b 544 -25 431 -16 484 -25 b 681 -8 594 -25 640 -19 b 788 38 722 3 758 18 l 739 143 b 653 105 712 125 683 113 b 553 93 622 97 589 93 b 449 110 516 93 481 99 b 363 156 417 121 389 136 b 299 227 338 176 316 200 b 264 318 282 254 270 285 l 572 318 l 604 417 l 249 417 b 245 451 247 427 246 438 b 244 486 245 464 244 476 b 246 527 244 500 245 514 b 250 565 247 541 248 553 l 646 565 l 678 664 l 269 664 b 310 759 279 699 292 731 b 375 831 328 787 350 811 b 458 876 400 850 428 865 b 554 892 488 886 520 892 b 652 881 589 892 622 888 b 732 851 682 874 709 864 z "},"¥":{"ha":826,"x_min":0,"x_max":0,"o":"m 347 317 l 111 317 l 111 225 l 347 225 l 347 0 l 479 0 l 479 225 l 715 225 l 715 317 l 479 317 l 479 443 l 715 443 l 715 535 l 519 535 l 808 983 l 656 983 l 419 575 l 178 983 l 18 983 l 313 535 l 111 535 l 111 443 l 347 443 z "},"Š":{"ha":790,"x_min":0,"x_max":0,"o":"m 608 801 l 706 896 b 585 978 675 930 635 957 b 424 1008 535 998 481 1008 b 302 992 383 1008 342 1003 b 194 942 262 982 226 965 b 116 854 162 919 136 889 b 86 728 96 819 86 777 b 108 614 86 682 94 644 b 167 537 123 583 143 558 b 249 485 191 516 218 499 b 342 451 279 472 310 461 b 431 422 373 441 403 431 b 506 386 459 412 484 400 b 556 335 527 372 544 355 b 575 261 569 316 575 291 b 557 185 575 231 569 206 b 510 133 545 165 529 147 b 447 103 491 119 470 109 b 378 93 424 96 401 93 b 251 125 332 93 290 104 b 158 208 213 146 181 174 l 51 118 b 195 11 89 71 137 35 b 375 -25 253 -13 313 -25 b 502 -7 419 -25 461 -19 b 611 48 543 5 580 23 b 687 141 643 72 668 103 b 715 274 706 178 715 223 b 689 395 715 323 706 363 b 621 475 671 427 649 454 b 528 526 593 496 562 513 b 426 561 494 539 460 551 b 348 588 399 570 372 579 b 284 620 323 597 302 608 b 241 666 266 633 252 648 b 225 733 230 684 225 706 b 242 805 225 761 231 785 b 288 855 254 825 269 841 b 349 884 306 868 327 878 b 417 893 372 890 394 893 b 529 867 458 893 496 884 b 608 801 563 850 589 828 z m 488 1061 l 643 1261 l 521 1261 l 415 1124 l 310 1261 l 185 1261 l 339 1061 z "},"§":{"ha":826,"x_min":0,"x_max":0,"o":"m 599 811 l 697 883 b 597 975 674 922 641 953 b 443 1008 553 997 501 1008 b 344 994 410 1008 377 1004 b 258 953 312 985 283 971 b 196 883 232 934 212 911 b 172 783 180 854 172 821 b 201 683 172 742 182 708 b 268 621 221 657 243 637 b 169 549 229 605 196 581 b 129 428 143 516 129 476 b 147 347 129 396 135 369 b 193 289 158 325 174 306 b 262 244 213 272 235 257 b 346 204 288 230 316 217 b 438 163 382 188 413 175 b 499 128 463 152 483 140 b 535 88 516 116 527 103 b 546 38 542 74 546 57 b 532 -18 546 15 541 -3 b 496 -53 523 -33 511 -45 b 448 -73 481 -62 465 -69 b 400 -79 431 -77 415 -79 b 294 -53 364 -79 329 -71 b 219 29 260 -36 235 -9 l 104 -35 b 228 -154 133 -88 174 -128 b 400 -193 283 -180 340 -193 b 503 -178 435 -193 470 -188 b 594 -135 537 -169 567 -154 b 658 -60 620 -115 641 -91 b 682 46 674 -30 682 5 b 597 213 682 119 654 175 b 681 283 630 227 657 251 b 715 393 704 315 715 351 b 698 476 715 425 709 452 b 649 541 686 500 670 522 b 576 591 628 560 604 577 b 485 633 547 605 517 619 b 408 667 456 645 431 657 b 353 702 386 678 368 690 b 319 742 338 715 327 728 b 307 792 311 757 307 773 b 349 872 307 827 321 854 b 444 900 376 891 408 900 b 539 874 481 900 512 891 b 599 811 566 856 586 835 z m 360 558 l 464 513 b 510 490 480 505 495 497 b 549 462 525 482 538 472 b 577 425 561 451 570 439 b 588 375 584 411 588 394 b 563 306 588 348 579 325 b 506 267 546 287 527 274 l 389 317 b 338 341 371 325 354 333 b 296 367 322 349 308 358 b 267 401 284 377 274 388 b 257 447 260 414 257 430 b 267 491 257 464 260 478 b 291 523 273 503 281 514 b 324 545 301 532 312 539 b 360 558 337 551 349 556 z "},"š":{"ha":617,"x_min":0,"x_max":0,"o":"m 468 492 l 558 568 b 456 649 534 603 500 630 b 319 676 412 667 367 676 b 228 665 288 676 257 672 b 149 628 198 657 172 645 b 92 566 125 612 107 591 b 71 475 78 541 71 510 b 88 398 71 444 77 419 b 133 346 100 377 115 360 b 195 313 152 332 172 321 b 263 293 218 305 240 299 b 391 251 319 280 362 266 b 435 183 420 237 435 214 b 424 138 435 165 431 150 b 394 108 416 125 406 116 b 352 92 381 101 367 96 b 304 88 337 89 321 88 b 202 114 267 88 233 96 b 129 179 171 131 147 153 l 36 100 b 155 11 68 60 107 31 b 301 -18 203 -8 251 -18 b 399 -7 335 -18 367 -14 b 483 30 430 0 458 13 b 542 96 507 47 527 69 b 564 194 556 123 564 156 b 547 269 564 223 558 248 b 501 324 536 291 521 309 b 431 363 481 340 457 352 b 343 389 404 373 375 381 b 231 426 293 400 256 412 b 193 488 206 439 193 460 b 203 527 193 503 197 516 b 231 553 210 538 220 547 b 271 569 243 560 256 566 b 315 574 286 572 300 574 b 406 551 349 574 379 566 b 468 492 432 535 453 516 z m 394 783 l 550 983 l 428 983 l 322 846 l 217 983 l 92 983 l 246 783 z "},"©":{"ha":1111,"x_min":0,"x_max":0,"o":"m 28 490 b 69 287 28 418 42 350 b 183 121 97 223 135 168 b 351 10 230 74 286 37 b 557 -31 415 -17 484 -31 b 761 10 629 -31 697 -17 b 928 121 825 37 881 74 b 1042 287 976 168 1014 223 b 1083 490 1069 350 1083 418 b 1042 695 1083 563 1069 632 b 928 861 1014 759 976 814 b 761 973 881 908 825 946 b 557 1014 697 1000 629 1014 b 351 973 484 1014 415 1000 b 183 861 286 946 230 908 b 69 695 135 814 97 759 b 28 490 42 632 28 563 z m 111 490 b 147 663 111 551 123 609 b 242 805 170 717 202 765 b 384 901 283 845 330 877 b 557 936 438 924 496 936 b 729 901 618 936 675 924 b 870 805 783 877 830 845 b 965 663 910 765 942 717 b 1000 490 988 609 1000 551 b 965 318 1000 429 988 372 b 870 177 942 264 910 217 b 729 82 830 137 783 105 b 557 47 675 59 618 47 b 384 82 496 47 438 59 b 242 177 330 105 283 137 b 147 318 202 217 170 264 b 111 490 123 372 111 429 z m 715 657 l 796 721 b 753 762 784 737 769 750 b 699 790 736 773 718 783 b 639 807 679 798 659 803 b 579 813 619 811 599 813 b 451 790 533 813 490 805 b 348 728 411 775 377 755 b 279 630 319 701 296 668 b 254 500 263 591 254 548 b 278 371 254 453 262 410 b 344 271 294 332 316 299 b 445 206 372 243 406 222 b 574 183 484 191 527 183 b 708 211 625 183 669 193 b 806 289 746 230 779 256 l 721 349 b 660 298 705 327 685 310 b 575 279 636 285 607 279 b 427 340 513 279 464 300 b 372 500 391 381 372 434 b 388 586 372 531 377 559 b 430 656 398 613 412 636 b 495 701 448 675 470 690 b 579 718 521 713 549 718 b 653 703 603 718 628 713 b 715 657 679 694 700 678 z "},"ª":{"ha":528,"x_min":0,"x_max":0,"o":"m 343 650 l 343 599 l 436 599 l 436 838 b 428 897 436 857 434 877 b 401 951 423 916 414 934 b 347 990 387 967 369 980 b 260 1004 324 999 295 1004 b 171 989 230 1004 200 999 b 93 942 141 979 115 963 l 143 882 b 191 914 156 895 172 906 b 251 926 210 922 230 926 b 315 908 276 926 298 920 b 342 854 333 896 342 878 l 342 844 b 247 840 311 844 280 843 b 160 822 215 838 186 831 b 96 781 134 812 113 798 b 71 711 79 763 71 740 b 85 653 71 688 75 669 b 121 615 94 637 106 625 b 169 595 136 606 152 599 b 218 589 186 591 202 589 b 294 606 247 589 272 595 b 342 650 316 618 331 632 z m 342 778 l 342 764 b 315 690 342 732 333 708 b 239 663 298 672 272 663 b 191 673 221 663 205 666 b 169 713 177 680 169 693 b 184 747 169 727 174 739 b 221 767 194 756 206 762 b 269 776 236 771 252 774 b 319 778 287 777 304 778 z "},"«":{"ha":694,"x_min":0,"x_max":0,"o":"m 183 339 l 343 582 l 258 640 l 56 339 l 258 36 l 344 96 z m 465 339 l 625 582 l 540 640 l 338 339 l 540 36 l 625 96 z "},"¬":{"ha":925,"x_min":0,"x_max":0,"o":"m 828 193 l 828 592 l 97 592 l 97 479 l 715 479 l 715 193 z "},"­":{"ha":444,"x_min":0,"x_max":0,"o":"m 383 283 l 383 394 l 61 394 l 61 283 z "},"®":{"ha":833,"x_min":0,"x_max":0,"o":"m 432 710 l 367 710 l 367 797 l 432 797 b 465 788 442 797 453 794 b 483 756 477 781 483 770 b 467 722 483 742 478 731 b 432 710 457 714 445 710 z m 493 511 l 593 511 l 499 661 b 549 696 519 669 536 680 b 569 756 563 712 569 731 b 558 809 569 777 566 795 b 526 843 550 823 539 835 b 483 861 513 851 499 857 b 435 867 468 865 451 867 l 282 867 l 282 511 l 367 511 l 367 649 l 417 649 z m 100 685 b 125 563 100 641 108 600 b 193 463 142 525 164 491 b 294 397 222 435 255 413 b 417 372 332 380 373 372 b 540 397 460 372 501 380 b 640 463 578 413 612 435 b 708 563 669 491 692 525 b 733 685 725 600 733 641 b 708 808 733 728 725 769 b 640 908 692 846 669 879 b 540 975 612 936 578 958 b 417 1000 501 992 460 1000 b 294 975 373 1000 332 992 b 193 908 255 958 222 936 b 125 808 164 879 142 846 b 100 685 108 769 100 728 z m 150 685 b 171 789 150 722 157 756 b 228 874 185 821 204 850 b 313 931 252 898 280 917 b 417 951 345 944 380 951 b 521 931 454 951 488 944 b 606 874 553 917 581 898 b 663 789 630 850 649 821 b 683 685 676 756 683 722 b 663 582 683 649 676 614 b 606 497 649 550 630 521 b 521 439 581 472 553 453 b 417 418 488 425 454 418 b 313 439 380 418 345 425 b 228 497 280 453 252 472 b 171 582 204 521 185 550 b 150 685 157 614 150 649 z "},"¯":{"ha":347,"x_min":0,"x_max":0,"o":"m 379 829 l 379 922 l -32 922 l -32 829 z "},"°":{"ha":556,"x_min":0,"x_max":0,"o":"m 493 785 b 476 869 493 815 488 844 b 431 938 465 895 450 918 b 363 983 411 957 388 972 b 278 1000 337 994 308 1000 b 193 983 247 1000 219 994 b 125 938 167 972 144 957 b 79 869 106 918 90 895 b 63 785 68 844 63 815 b 79 700 63 754 68 726 b 125 633 90 674 106 652 b 193 588 144 614 167 599 b 278 571 219 576 247 571 b 363 588 308 571 337 576 b 431 633 388 599 411 614 b 476 700 450 652 465 674 b 493 785 488 726 493 754 z m 404 785 b 367 695 404 750 392 720 b 278 658 343 671 313 658 b 188 695 243 658 213 671 b 151 785 164 720 151 750 b 161 835 151 802 155 819 b 188 876 168 850 177 864 b 228 903 200 887 213 896 b 278 913 244 909 260 913 b 327 903 295 913 312 909 b 367 876 342 896 356 887 b 394 835 379 864 388 850 b 404 785 401 819 404 802 z "},"±":{"ha":925,"x_min":0,"x_max":0,"o":"m 97 582 l 97 469 l 407 469 l 407 265 l 519 265 l 519 469 l 828 469 l 828 582 l 519 582 l 519 790 l 407 790 l 407 582 z m 97 168 l 97 56 l 828 56 l 828 168 z "},"²":{"ha":535,"x_min":0,"x_max":0,"o":"m 463 397 l 463 493 l 206 493 l 364 649 b 431 726 389 673 411 699 b 461 828 451 754 461 788 b 445 903 461 856 456 881 b 403 956 434 924 420 942 b 342 988 385 971 365 981 b 269 999 319 995 294 999 b 138 949 218 999 174 982 b 72 824 101 916 80 875 l 175 810 b 207 878 180 838 190 861 b 269 904 224 896 244 904 b 329 884 294 904 313 897 b 353 828 345 871 353 852 b 336 769 353 806 347 786 b 297 719 325 752 312 735 l 69 490 l 69 397 z "},"³":{"ha":535,"x_min":0,"x_max":0,"o":"m 199 747 l 199 661 l 236 661 b 281 657 251 661 266 660 b 322 642 297 654 310 649 b 352 615 334 635 344 626 b 364 572 360 604 364 590 b 332 503 364 541 353 518 b 263 482 311 489 288 482 b 194 505 236 482 213 490 b 154 565 176 520 163 540 l 56 535 b 139 423 74 483 102 446 b 265 389 176 400 218 389 b 340 400 291 389 316 393 b 405 434 364 407 386 419 b 451 490 424 449 439 468 b 468 569 462 513 468 539 b 440 658 468 604 459 633 b 367 710 421 683 396 700 b 428 758 391 720 411 736 b 453 839 444 781 453 807 b 438 910 453 866 448 889 b 398 960 428 930 415 947 b 338 990 381 974 361 984 b 265 1000 316 997 291 1000 b 152 966 224 1000 186 989 b 76 869 118 943 93 911 l 171 838 b 208 889 179 859 191 876 b 263 908 224 902 242 908 b 322 888 286 908 306 902 b 347 835 339 875 347 857 b 314 767 347 802 336 780 b 236 747 292 754 266 747 z "},"Ž":{"ha":822,"x_min":0,"x_max":0,"o":"m 768 863 l 768 983 l 57 983 l 57 863 l 600 863 l 46 121 l 46 0 l 776 0 l 776 122 l 213 122 z m 488 1061 l 643 1261 l 521 1261 l 415 1124 l 310 1261 l 185 1261 l 339 1061 z "},"µ":{"ha":803,"x_min":0,"x_max":0,"o":"m 574 0 l 697 0 b 693 74 695 21 694 46 b 692 142 692 101 692 124 l 692 658 l 561 658 l 561 308 b 513 151 561 243 545 190 b 385 92 480 111 438 92 b 310 108 354 92 329 97 b 264 153 290 119 275 134 b 241 217 253 171 245 193 b 235 294 237 242 235 268 l 235 658 l 104 658 l 104 -333 l 235 -333 l 235 24 b 284 -7 247 11 263 0 b 350 -18 305 -14 327 -18 b 481 19 398 -18 442 -6 b 565 108 521 43 549 73 l 568 108 b 569 56 568 94 569 77 b 574 0 570 35 572 17 z "},"¶":{"ha":833,"x_min":0,"x_max":0,"o":"m 726 -175 l 726 983 l 375 983 b 142 915 278 983 200 961 b 54 710 83 870 54 801 b 76 609 54 674 61 640 b 136 528 90 578 110 551 b 229 474 162 505 193 487 b 349 454 265 461 305 454 l 349 -175 l 458 -175 l 458 896 l 618 896 l 618 -175 z "},"·":{"ha":361,"x_min":0,"x_max":0,"o":"m 275 421 b 248 485 275 446 266 467 b 182 513 230 503 208 513 b 115 485 155 513 133 503 b 88 419 97 466 88 444 b 115 356 88 395 97 374 b 182 329 133 338 155 329 b 249 357 209 329 231 338 b 275 421 266 375 275 397 z "},"ž":{"ha":642,"x_min":0,"x_max":0,"o":"m 582 551 l 582 658 l 64 658 l 64 551 l 418 551 l 46 107 l 46 0 l 597 0 l 597 110 l 207 110 z m 403 783 l 558 983 l 436 983 l 331 846 l 225 983 l 100 983 l 254 783 z "},"¹":{"ha":535,"x_min":0,"x_max":0,"o":"m 343 392 l 343 983 l 250 983 l 76 842 l 140 771 l 235 853 l 235 392 z "},"º":{"ha":528,"x_min":0,"x_max":0,"o":"m 475 797 b 459 881 475 828 470 856 b 415 945 448 906 434 927 b 349 988 397 963 375 977 b 264 1003 323 998 294 1003 b 179 988 233 1003 205 998 b 113 945 153 977 131 963 b 69 881 94 927 79 906 b 53 797 58 856 53 828 b 69 715 53 768 58 740 b 113 649 79 689 94 667 b 179 607 131 631 153 617 b 264 592 205 597 233 592 b 349 607 294 592 323 597 b 415 649 375 617 397 631 b 459 715 434 667 448 689 b 475 797 470 740 475 768 z m 371 797 b 344 718 371 768 362 741 b 264 683 326 695 299 683 b 185 718 229 683 202 695 b 158 797 167 741 158 768 b 185 877 158 828 167 854 b 264 911 202 900 229 911 b 344 877 299 911 326 900 b 371 797 362 854 371 828 z "},"»":{"ha":694,"x_min":0,"x_max":0,"o":"m 436 640 l 351 582 l 511 339 l 350 96 l 436 36 l 639 339 z m 154 640 l 69 582 l 229 339 l 69 96 l 154 36 l 357 339 z "},"Œ":{"ha":1393,"x_min":0,"x_max":0,"o":"m 1308 983 l 600 983 b 411 956 537 983 474 974 b 240 868 348 937 291 908 b 117 715 189 828 148 777 b 69 492 85 653 69 579 b 117 273 69 407 85 334 b 240 120 148 211 189 160 b 411 30 291 80 348 50 b 600 0 474 10 537 0 l 1329 0 l 1329 122 l 849 122 l 849 450 l 1279 450 l 1279 568 l 849 568 l 849 863 l 1308 863 z m 628 863 l 711 863 l 711 122 l 628 122 b 463 147 569 122 514 131 b 333 219 413 164 369 188 b 247 335 296 251 268 290 b 217 492 227 381 217 433 b 247 652 217 553 227 606 b 333 768 268 698 296 737 b 463 839 369 800 413 823 b 628 863 514 855 569 863 z "},"œ":{"ha":1354,"x_min":0,"x_max":0,"o":"m 969 676 b 812 637 910 676 858 663 b 700 533 766 610 729 576 b 584 638 671 577 633 612 b 419 676 535 663 481 676 b 280 651 369 676 323 668 b 169 579 237 634 200 610 b 96 470 138 549 113 512 b 69 331 78 428 69 381 b 96 190 69 280 78 233 b 169 80 113 148 138 111 b 280 8 200 49 237 25 b 419 -18 323 -9 369 -18 b 583 20 481 -18 535 -5 b 699 124 631 46 670 80 b 812 20 726 80 764 46 b 975 -18 859 -5 914 -18 b 1258 117 1094 -18 1189 27 l 1168 190 b 1092 119 1150 163 1124 139 b 976 90 1060 100 1022 90 b 895 106 948 90 921 95 b 828 148 870 116 847 130 b 781 211 808 166 793 187 b 761 290 770 235 763 262 l 1285 290 b 1286 313 1286 298 1286 305 l 1286 335 b 1264 477 1286 388 1279 435 b 1201 585 1249 519 1228 555 b 1101 653 1173 614 1140 637 b 969 676 1063 669 1019 676 z m 643 331 b 628 240 643 299 638 269 b 586 164 619 212 605 186 b 517 111 568 142 545 124 b 424 92 490 98 459 92 b 329 111 388 92 357 98 b 260 164 301 124 278 142 b 217 240 241 186 227 212 b 203 331 208 269 203 299 b 217 421 203 362 208 392 b 260 497 227 450 241 475 b 329 549 278 518 301 536 b 424 568 357 562 388 568 b 517 549 459 568 490 562 b 586 497 545 536 568 518 b 628 421 605 475 619 450 b 643 331 638 392 643 362 z m 1156 388 l 763 388 b 783 460 764 413 771 438 b 827 519 794 483 809 503 b 891 559 845 536 866 549 b 969 574 916 569 942 574 b 1049 559 1000 574 1027 569 b 1107 519 1072 549 1091 536 b 1142 460 1123 503 1134 483 b 1156 388 1150 438 1155 413 z "},"Ÿ":{"ha":867,"x_min":0,"x_max":0,"o":"m 503 0 l 503 425 l 871 983 l 711 983 l 438 539 l 165 983 l -4 983 l 364 425 l 364 0 z m 217 1174 b 241 1116 217 1152 225 1133 b 303 1090 257 1099 278 1090 b 364 1115 327 1090 347 1098 b 389 1174 381 1131 389 1150 b 364 1234 389 1198 381 1218 b 303 1258 347 1250 327 1258 b 241 1233 278 1258 257 1250 b 217 1174 225 1216 217 1196 z m 486 1174 b 510 1116 486 1152 494 1133 b 572 1090 527 1099 547 1090 b 633 1115 596 1090 617 1098 b 658 1174 650 1131 658 1150 b 633 1234 658 1198 650 1218 b 572 1258 617 1250 596 1258 b 510 1233 547 1258 527 1250 b 486 1174 494 1216 486 1196 z "},"¿":{"ha":694,"x_min":0,"x_max":0,"o":"m 285 397 l 285 349 b 280 290 285 325 283 306 b 263 247 277 275 271 260 b 233 209 255 234 245 222 b 186 167 220 197 205 182 b 132 118 167 150 149 134 b 90 67 115 102 101 85 b 63 7 78 49 69 29 b 53 -71 56 -15 53 -41 b 75 -181 53 -112 60 -149 b 136 -262 90 -213 110 -240 b 226 -311 162 -284 192 -300 b 335 -328 259 -322 296 -328 b 444 -310 374 -328 410 -322 b 535 -260 479 -299 509 -282 b 601 -178 562 -237 584 -210 b 636 -71 619 -147 631 -111 l 503 -56 b 454 -164 498 -98 482 -134 b 343 -208 426 -194 389 -208 b 234 -169 299 -208 262 -195 b 192 -62 206 -142 192 -107 b 212 17 192 -30 198 -3 b 263 75 225 38 242 57 l 314 124 b 356 167 330 138 344 153 b 388 213 369 182 379 197 b 408 265 397 228 404 246 b 415 331 413 285 415 306 l 415 397 z m 250 593 b 276 529 250 568 259 547 b 343 503 294 512 316 503 b 410 530 370 503 392 512 b 436 594 427 548 436 569 b 409 658 436 619 427 640 b 343 685 391 676 369 685 b 276 657 316 685 294 675 b 250 593 259 638 250 617 z "},"À":{"ha":988,"x_min":0,"x_max":0,"o":"m 160 0 l 258 242 l 725 242 l 825 0 l 981 0 l 558 983 l 433 983 l 7 0 z m 307 363 l 492 824 l 675 363 z m 254 1261 l 444 1061 l 551 1061 l 413 1261 z "},"Á":{"ha":988,"x_min":0,"x_max":0,"o":"m 160 0 l 258 242 l 725 242 l 825 0 l 981 0 l 558 983 l 433 983 l 7 0 z m 307 363 l 492 824 l 675 363 z m 553 1061 l 743 1261 l 585 1261 l 447 1061 z "},"Â":{"ha":988,"x_min":0,"x_max":0,"o":"m 160 0 l 258 242 l 725 242 l 825 0 l 981 0 l 558 983 l 433 983 l 7 0 z m 307 363 l 492 824 l 675 363 z m 729 1061 l 574 1261 l 424 1261 l 268 1061 l 393 1061 l 499 1199 l 603 1061 z "},"Ã":{"ha":988,"x_min":0,"x_max":0,"o":"m 160 0 l 258 242 l 725 242 l 825 0 l 981 0 l 558 983 l 433 983 l 7 0 z m 307 363 l 492 824 l 675 363 z m 257 1072 l 333 1072 b 355 1116 338 1088 345 1103 b 399 1136 365 1129 379 1136 b 441 1128 412 1136 426 1133 b 489 1107 456 1122 472 1115 b 542 1087 506 1100 523 1093 b 596 1078 560 1081 578 1078 b 656 1092 619 1078 639 1082 b 697 1128 672 1101 686 1113 b 723 1180 708 1144 717 1161 b 738 1239 729 1199 734 1219 l 663 1239 b 641 1195 658 1223 651 1209 b 596 1175 631 1182 616 1175 b 553 1184 583 1175 569 1178 b 503 1206 538 1190 521 1197 b 452 1225 487 1213 470 1219 b 399 1233 434 1231 416 1233 b 338 1219 375 1233 354 1229 b 297 1183 322 1210 308 1198 b 272 1131 286 1167 278 1150 b 257 1072 266 1112 261 1093 z "},"Ä":{"ha":988,"x_min":0,"x_max":0,"o":"m 160 0 l 258 242 l 725 242 l 825 0 l 981 0 l 558 983 l 433 983 l 7 0 z m 307 363 l 492 824 l 675 363 z m 275 1174 b 299 1116 275 1152 283 1133 b 361 1090 316 1099 336 1090 b 422 1115 385 1090 406 1098 b 447 1174 439 1131 447 1150 b 422 1234 447 1198 439 1218 b 361 1258 406 1250 385 1258 b 299 1233 336 1258 316 1250 b 275 1174 283 1216 275 1196 z m 544 1174 b 569 1116 544 1152 553 1133 b 631 1090 585 1099 606 1090 b 692 1115 655 1090 675 1098 b 717 1174 708 1131 717 1150 b 692 1234 717 1198 708 1218 b 631 1258 675 1250 655 1258 b 569 1233 606 1258 585 1250 b 544 1174 553 1216 544 1196 z "},"Å":{"ha":988,"x_min":0,"x_max":0,"o":"m 160 0 l 258 242 l 725 242 l 825 0 l 981 0 l 558 983 l 433 983 l 7 0 z m 307 363 l 492 824 l 675 363 z m 638 1185 b 597 1282 638 1224 624 1256 b 497 1321 569 1308 536 1321 b 399 1282 458 1321 425 1308 b 358 1183 372 1256 358 1223 b 369 1129 358 1164 362 1146 b 399 1086 377 1113 387 1098 b 443 1058 412 1074 426 1065 b 497 1047 460 1051 478 1047 b 597 1086 536 1047 569 1060 b 638 1185 624 1112 638 1145 z m 581 1185 b 556 1127 581 1162 572 1142 b 497 1104 540 1112 520 1104 b 439 1127 474 1104 455 1112 b 415 1183 423 1142 415 1161 b 439 1242 415 1206 423 1226 b 497 1265 455 1257 474 1265 b 556 1242 520 1265 540 1258 b 581 1185 572 1227 581 1208 z "},"Æ":{"ha":1410,"x_min":0,"x_max":0,"o":"m 865 122 l 865 450 l 1296 450 l 1296 568 l 865 568 l 865 863 l 1325 863 l 1325 983 l 638 983 l 3 0 l 167 0 l 335 267 l 728 267 l 728 0 l 1346 0 l 1346 122 z m 728 386 l 407 386 l 708 863 l 728 863 z "},"Ç":{"ha":983,"x_min":0,"x_max":0,"o":"m 963 153 l 853 228 b 740 131 823 185 786 153 b 589 97 695 108 644 97 b 435 128 532 97 481 107 b 319 212 390 148 351 176 b 245 338 287 247 262 289 b 219 493 228 386 219 438 b 246 645 219 547 228 597 b 321 771 263 693 288 735 b 438 856 353 807 392 835 b 593 888 484 877 536 888 b 735 855 644 888 691 877 b 838 772 779 833 813 806 l 946 856 b 879 922 927 881 905 903 b 793 969 853 941 825 956 b 694 999 762 982 729 992 b 593 1008 660 1005 626 1008 b 385 971 518 1008 449 996 b 219 866 321 946 266 911 b 109 703 172 821 135 767 b 69 493 83 640 69 570 b 104 295 69 422 81 356 b 201 136 127 234 159 181 b 349 27 242 91 291 54 b 539 -22 406 0 469 -17 l 468 -131 l 496 -158 b 525 -151 505 -156 515 -153 b 553 -149 535 -150 544 -149 b 604 -160 571 -149 588 -152 b 628 -201 620 -167 628 -181 b 619 -231 628 -213 625 -223 b 597 -248 613 -238 605 -244 b 569 -257 588 -252 578 -255 b 543 -260 559 -259 550 -260 b 436 -236 506 -260 470 -252 l 408 -294 b 476 -318 428 -305 450 -312 b 551 -326 502 -324 527 -326 b 612 -321 571 -326 591 -325 b 669 -301 633 -317 652 -310 b 711 -262 686 -291 700 -278 b 728 -201 722 -246 728 -225 b 716 -150 728 -181 724 -164 b 685 -117 708 -136 698 -125 b 644 -99 673 -108 659 -102 b 597 -93 628 -95 613 -93 l 578 -93 b 560 -96 572 -93 566 -94 l 607 -24 b 818 29 688 -21 759 -3 b 963 153 877 62 925 103 z "},"È":{"ha":835,"x_min":0,"x_max":0,"o":"m 257 122 l 257 450 l 721 450 l 721 568 l 257 568 l 257 863 l 750 863 l 750 983 l 119 983 l 119 0 l 771 0 l 771 122 z m 244 1261 l 435 1061 l 542 1061 l 403 1261 z "},"É":{"ha":835,"x_min":0,"x_max":0,"o":"m 257 122 l 257 450 l 721 450 l 721 568 l 257 568 l 257 863 l 750 863 l 750 983 l 119 983 l 119 0 l 771 0 l 771 122 z m 469 1061 l 660 1261 l 501 1261 l 364 1061 z "},"Ê":{"ha":835,"x_min":0,"x_max":0,"o":"m 257 122 l 257 450 l 721 450 l 721 568 l 257 568 l 257 863 l 750 863 l 750 983 l 119 983 l 119 0 l 771 0 l 771 122 z m 672 1061 l 517 1261 l 367 1261 l 211 1061 l 336 1061 l 442 1199 l 546 1061 z "},"Ë":{"ha":835,"x_min":0,"x_max":0,"o":"m 257 122 l 257 450 l 721 450 l 721 568 l 257 568 l 257 863 l 750 863 l 750 983 l 119 983 l 119 0 l 771 0 l 771 122 z m 219 1174 b 244 1116 219 1152 228 1133 b 306 1090 260 1099 281 1090 b 367 1115 330 1090 350 1098 b 392 1174 383 1131 392 1150 b 367 1234 392 1198 383 1218 b 306 1258 350 1250 330 1258 b 244 1233 281 1258 260 1250 b 219 1174 228 1216 219 1196 z m 489 1174 b 513 1116 489 1152 497 1133 b 575 1090 529 1099 550 1090 b 636 1115 599 1090 619 1098 b 661 1174 653 1131 661 1150 b 636 1234 661 1198 653 1218 b 575 1258 619 1250 599 1258 b 513 1233 550 1258 529 1250 b 489 1174 497 1216 489 1196 z "},"Ì":{"ha":376,"x_min":0,"x_max":0,"o":"m 257 0 l 257 983 l 119 983 l 119 0 z m -39 1261 l 151 1061 l 258 1061 l 119 1261 z "},"Í":{"ha":376,"x_min":0,"x_max":0,"o":"m 257 0 l 257 983 l 119 983 l 119 0 z m 224 1061 l 414 1261 l 256 1261 l 118 1061 z "},"Î":{"ha":376,"x_min":0,"x_max":0,"o":"m 257 0 l 257 983 l 119 983 l 119 0 z m 417 1061 l 261 1261 l 111 1261 l -44 1061 l 81 1061 l 186 1199 l 290 1061 z "},"Ï":{"ha":376,"x_min":0,"x_max":0,"o":"m 257 0 l 257 983 l 119 983 l 119 0 z m -32 1174 b -8 1116 -32 1152 -24 1133 b 54 1090 9 1099 29 1090 b 115 1115 78 1090 99 1098 b 140 1174 132 1131 140 1150 b 115 1234 140 1198 132 1218 b 54 1258 99 1250 78 1258 b -8 1233 29 1258 9 1250 b -32 1174 -24 1216 -32 1196 z m 238 1174 b 262 1116 238 1152 246 1133 b 324 1090 278 1099 299 1090 b 385 1115 348 1090 368 1098 b 410 1174 401 1131 410 1150 b 385 1234 410 1198 401 1218 b 324 1258 368 1250 348 1258 b 262 1233 299 1258 278 1250 b 238 1174 246 1216 238 1196 z "},"Ð":{"ha":1057,"x_min":0,"x_max":0,"o":"m 114 465 l 114 0 l 461 0 b 644 30 521 0 582 10 b 811 121 705 50 761 80 b 933 274 861 162 902 213 b 981 492 965 336 981 408 b 937 708 981 574 966 646 b 821 861 908 769 869 820 b 658 953 773 902 718 932 b 472 983 597 973 535 983 l 114 983 l 114 563 l 18 563 l 18 465 z m 253 125 l 253 465 l 582 465 l 582 563 l 253 563 l 253 858 l 429 858 b 601 832 493 858 550 850 b 728 758 651 814 694 790 b 806 642 762 726 788 687 b 833 492 824 597 833 547 b 804 341 833 436 824 386 b 721 226 785 296 757 258 b 590 151 685 194 641 169 b 415 125 538 134 480 125 z "},"Ñ":{"ha":1072,"x_min":0,"x_max":0,"o":"m 813 197 l 299 983 l 119 983 l 119 0 l 257 0 l 257 803 l 260 803 l 779 0 l 953 0 l 953 983 l 815 983 l 815 197 z m 293 1072 l 369 1072 b 391 1116 374 1088 381 1103 b 435 1136 401 1129 415 1136 b 477 1128 448 1136 462 1133 b 525 1107 492 1122 508 1115 b 578 1087 542 1100 559 1093 b 632 1078 596 1081 614 1078 b 692 1092 655 1078 675 1082 b 733 1128 708 1101 722 1113 b 759 1180 744 1144 753 1161 b 774 1239 765 1199 770 1219 l 699 1239 b 677 1195 694 1223 687 1209 b 632 1175 667 1182 652 1175 b 590 1184 619 1175 605 1178 b 539 1206 574 1190 557 1197 b 488 1225 523 1213 506 1219 b 435 1233 470 1231 452 1233 b 374 1219 411 1233 391 1229 b 333 1183 358 1210 344 1198 b 308 1131 322 1167 314 1150 b 293 1072 302 1112 297 1093 z "},"Ò":{"ha":1179,"x_min":0,"x_max":0,"o":"m 1111 493 b 1072 703 1111 570 1098 640 b 963 866 1045 767 1009 821 b 797 971 916 911 861 946 b 589 1008 733 996 664 1008 b 381 971 514 1008 445 996 b 217 866 318 946 263 911 b 108 703 170 821 134 767 b 69 493 82 640 69 570 b 108 284 69 417 82 347 b 217 120 134 221 170 166 b 381 13 263 74 318 39 b 589 -25 445 -12 514 -25 b 797 13 664 -25 733 -12 b 963 120 861 39 916 74 b 1072 284 1009 166 1045 221 b 1111 493 1098 347 1111 417 z m 963 493 b 936 339 963 438 954 387 b 861 213 919 291 894 249 b 743 129 829 178 789 150 b 589 99 697 109 645 99 b 436 129 532 99 481 109 b 319 213 391 150 352 178 b 244 339 287 249 262 291 b 218 493 227 387 218 438 b 244 645 218 547 227 597 b 319 771 262 693 287 735 b 435 856 351 807 390 835 b 589 888 481 877 532 888 b 744 856 646 888 698 877 b 861 771 790 835 829 807 b 936 645 894 735 919 693 b 963 493 954 597 963 547 z m 378 1261 l 568 1061 l 675 1061 l 536 1261 z "},"Ó":{"ha":1179,"x_min":0,"x_max":0,"o":"m 1111 493 b 1072 703 1111 570 1098 640 b 963 866 1045 767 1009 821 b 797 971 916 911 861 946 b 589 1008 733 996 664 1008 b 381 971 514 1008 445 996 b 217 866 318 946 263 911 b 108 703 170 821 134 767 b 69 493 82 640 69 570 b 108 284 69 417 82 347 b 217 120 134 221 170 166 b 381 13 263 74 318 39 b 589 -25 445 -12 514 -25 b 797 13 664 -25 733 -12 b 963 120 861 39 916 74 b 1072 284 1009 166 1045 221 b 1111 493 1098 347 1111 417 z m 963 493 b 936 339 963 438 954 387 b 861 213 919 291 894 249 b 743 129 829 178 789 150 b 589 99 697 109 645 99 b 436 129 532 99 481 109 b 319 213 391 150 352 178 b 244 339 287 249 262 291 b 218 493 227 387 218 438 b 244 645 218 547 227 597 b 319 771 262 693 287 735 b 435 856 351 807 390 835 b 589 888 481 877 532 888 b 744 856 646 888 698 877 b 861 771 790 835 829 807 b 936 645 894 735 919 693 b 963 493 954 597 963 547 z m 621 1061 l 811 1261 l 653 1261 l 515 1061 z "},"Ô":{"ha":1179,"x_min":0,"x_max":0,"o":"m 1111 493 b 1072 703 1111 570 1098 640 b 963 866 1045 767 1009 821 b 797 971 916 911 861 946 b 589 1008 733 996 664 1008 b 381 971 514 1008 445 996 b 217 866 318 946 263 911 b 108 703 170 821 134 767 b 69 493 82 640 69 570 b 108 284 69 417 82 347 b 217 120 134 221 170 166 b 381 13 263 74 318 39 b 589 -25 445 -12 514 -25 b 797 13 664 -25 733 -12 b 963 120 861 39 916 74 b 1072 284 1009 166 1045 221 b 1111 493 1098 347 1111 417 z m 963 493 b 936 339 963 438 954 387 b 861 213 919 291 894 249 b 743 129 829 178 789 150 b 589 99 697 109 645 99 b 436 129 532 99 481 109 b 319 213 391 150 352 178 b 244 339 287 249 262 291 b 218 493 227 387 218 438 b 244 645 218 547 227 597 b 319 771 262 693 287 735 b 435 856 351 807 390 835 b 589 888 481 877 532 888 b 744 856 646 888 698 877 b 861 771 790 835 829 807 b 936 645 894 735 919 693 b 963 493 954 597 963 547 z m 819 1061 l 664 1261 l 514 1261 l 358 1061 l 483 1061 l 589 1199 l 693 1061 z "},"Õ":{"ha":1179,"x_min":0,"x_max":0,"o":"m 1111 493 b 1072 703 1111 570 1098 640 b 963 866 1045 767 1009 821 b 797 971 916 911 861 946 b 589 1008 733 996 664 1008 b 381 971 514 1008 445 996 b 217 866 318 946 263 911 b 108 703 170 821 134 767 b 69 493 82 640 69 570 b 108 284 69 417 82 347 b 217 120 134 221 170 166 b 381 13 263 74 318 39 b 589 -25 445 -12 514 -25 b 797 13 664 -25 733 -12 b 963 120 861 39 916 74 b 1072 284 1009 166 1045 221 b 1111 493 1098 347 1111 417 z m 963 493 b 936 339 963 438 954 387 b 861 213 919 291 894 249 b 743 129 829 178 789 150 b 589 99 697 109 645 99 b 436 129 532 99 481 109 b 319 213 391 150 352 178 b 244 339 287 249 262 291 b 218 493 227 387 218 438 b 244 645 218 547 227 597 b 319 771 262 693 287 735 b 435 856 351 807 390 835 b 589 888 481 877 532 888 b 744 856 646 888 698 877 b 861 771 790 835 829 807 b 936 645 894 735 919 693 b 963 493 954 597 963 547 z m 349 1072 l 425 1072 b 447 1116 430 1088 437 1103 b 490 1136 456 1129 471 1136 b 533 1128 503 1136 517 1133 b 581 1107 548 1122 564 1115 b 633 1087 597 1100 615 1093 b 688 1078 652 1081 670 1078 b 747 1092 711 1078 731 1082 b 789 1128 764 1101 778 1113 b 815 1180 800 1144 809 1161 b 829 1239 821 1199 825 1219 l 754 1239 b 733 1195 750 1223 742 1209 b 688 1175 723 1182 708 1175 b 645 1184 675 1175 660 1178 b 594 1206 630 1190 613 1197 b 544 1225 579 1213 562 1219 b 490 1233 526 1231 508 1233 b 430 1219 466 1233 446 1229 b 389 1183 414 1210 400 1198 b 363 1131 378 1167 369 1150 b 349 1072 357 1112 352 1093 z "},"Ö":{"ha":1179,"x_min":0,"x_max":0,"o":"m 1111 493 b 1072 703 1111 570 1098 640 b 963 866 1045 767 1009 821 b 797 971 916 911 861 946 b 589 1008 733 996 664 1008 b 381 971 514 1008 445 996 b 217 866 318 946 263 911 b 108 703 170 821 134 767 b 69 493 82 640 69 570 b 108 284 69 417 82 347 b 217 120 134 221 170 166 b 381 13 263 74 318 39 b 589 -25 445 -12 514 -25 b 797 13 664 -25 733 -12 b 963 120 861 39 916 74 b 1072 284 1009 166 1045 221 b 1111 493 1098 347 1111 417 z m 963 493 b 936 339 963 438 954 387 b 861 213 919 291 894 249 b 743 129 829 178 789 150 b 589 99 697 109 645 99 b 436 129 532 99 481 109 b 319 213 391 150 352 178 b 244 339 287 249 262 291 b 218 493 227 387 218 438 b 244 645 218 547 227 597 b 319 771 262 693 287 735 b 435 856 351 807 390 835 b 589 888 481 877 532 888 b 744 856 646 888 698 877 b 861 771 790 835 829 807 b 936 645 894 735 919 693 b 963 493 954 597 963 547 z m 368 1174 b 392 1116 368 1152 376 1133 b 454 1090 409 1099 429 1090 b 515 1115 478 1090 499 1098 b 540 1174 532 1131 540 1150 b 515 1234 540 1198 532 1218 b 454 1258 499 1250 478 1258 b 392 1233 429 1258 409 1250 b 368 1174 376 1216 368 1196 z m 638 1174 b 662 1116 638 1152 646 1133 b 724 1090 678 1099 699 1090 b 785 1115 748 1090 768 1098 b 810 1174 801 1131 810 1150 b 785 1234 810 1198 801 1218 b 724 1258 768 1250 748 1258 b 662 1233 699 1258 678 1250 b 638 1174 646 1216 638 1196 z "},"×":{"ha":925,"x_min":0,"x_max":0,"o":"m 463 500 l 225 738 l 146 660 l 383 418 l 144 182 l 225 101 l 461 338 l 699 101 l 781 182 l 542 422 l 778 660 l 699 738 z "},"Ø":{"ha":1179,"x_min":0,"x_max":0,"o":"m 971 857 l 1081 976 l 1021 1031 l 908 910 b 762 983 865 942 816 967 b 589 1008 708 1000 650 1008 b 381 971 514 1008 445 996 b 217 866 318 946 263 911 b 108 703 170 821 134 767 b 69 493 82 640 69 570 b 103 297 69 423 81 357 b 199 140 125 237 157 185 l 86 18 l 146 -36 l 258 85 b 408 3 303 50 353 22 b 589 -25 464 -16 524 -25 b 797 15 664 -24 733 -11 b 963 122 861 40 916 76 b 1072 285 1009 167 1045 222 b 1111 493 1098 348 1111 417 b 1074 697 1111 568 1099 636 b 971 857 1050 758 1015 812 z m 822 813 l 293 242 b 214 493 240 308 214 392 b 240 647 214 548 222 599 b 314 773 257 695 281 737 b 432 858 346 809 386 837 b 589 889 478 878 531 889 b 720 869 637 889 681 882 b 822 813 759 855 794 837 z m 349 181 l 881 756 b 945 635 909 720 931 680 b 967 493 959 591 967 543 b 940 338 967 438 958 386 b 865 212 923 289 897 247 b 745 127 832 176 792 148 b 589 96 698 106 646 96 b 454 118 539 96 494 103 b 349 181 414 133 379 154 z "},"Ù":{"ha":989,"x_min":0,"x_max":0,"o":"m 494 -25 b 664 8 559 -25 616 -14 b 783 94 712 29 752 58 b 853 219 815 131 838 172 b 876 364 869 266 876 314 l 876 983 l 739 983 l 739 372 b 726 273 739 339 735 306 b 685 185 718 240 704 211 b 610 122 666 159 641 138 b 494 99 578 106 540 99 b 378 122 448 99 409 106 b 303 185 347 138 322 159 b 263 273 284 211 271 240 b 250 372 254 306 250 339 l 250 983 l 113 983 l 113 364 b 135 219 113 314 120 266 b 206 94 151 172 174 131 b 325 8 237 58 277 29 b 494 -25 373 -14 430 -25 z m 258 1261 l 449 1061 l 556 1061 l 417 1261 z "},"Ú":{"ha":989,"x_min":0,"x_max":0,"o":"m 494 -25 b 664 8 559 -25 616 -14 b 783 94 712 29 752 58 b 853 219 815 131 838 172 b 876 364 869 266 876 314 l 876 983 l 739 983 l 739 372 b 726 273 739 339 735 306 b 685 185 718 240 704 211 b 610 122 666 159 641 138 b 494 99 578 106 540 99 b 378 122 448 99 409 106 b 303 185 347 138 322 159 b 263 273 284 211 271 240 b 250 372 254 306 250 339 l 250 983 l 113 983 l 113 364 b 135 219 113 314 120 266 b 206 94 151 172 174 131 b 325 8 237 58 277 29 b 494 -25 373 -14 430 -25 z m 515 1061 l 706 1261 l 547 1261 l 410 1061 z "},"Û":{"ha":989,"x_min":0,"x_max":0,"o":"m 494 -25 b 664 8 559 -25 616 -14 b 783 94 712 29 752 58 b 853 219 815 131 838 172 b 876 364 869 266 876 314 l 876 983 l 739 983 l 739 372 b 726 273 739 339 735 306 b 685 185 718 240 704 211 b 610 122 666 159 641 138 b 494 99 578 106 540 99 b 378 122 448 99 409 106 b 303 185 347 138 322 159 b 263 273 284 211 271 240 b 250 372 254 306 250 339 l 250 983 l 113 983 l 113 364 b 135 219 113 314 120 266 b 206 94 151 172 174 131 b 325 8 237 58 277 29 b 494 -25 373 -14 430 -25 z m 722 1061 l 567 1261 l 417 1261 l 261 1061 l 386 1061 l 492 1199 l 596 1061 z "},"Ü":{"ha":989,"x_min":0,"x_max":0,"o":"m 494 -25 b 664 8 559 -25 616 -14 b 783 94 712 29 752 58 b 853 219 815 131 838 172 b 876 364 869 266 876 314 l 876 983 l 739 983 l 739 372 b 726 273 739 339 735 306 b 685 185 718 240 704 211 b 610 122 666 159 641 138 b 494 99 578 106 540 99 b 378 122 448 99 409 106 b 303 185 347 138 322 159 b 263 273 284 211 271 240 b 250 372 254 306 250 339 l 250 983 l 113 983 l 113 364 b 135 219 113 314 120 266 b 206 94 151 172 174 131 b 325 8 237 58 277 29 b 494 -25 373 -14 430 -25 z m 274 1174 b 298 1116 274 1152 282 1133 b 360 1090 314 1099 335 1090 b 421 1115 384 1090 404 1098 b 446 1174 438 1131 446 1150 b 421 1234 446 1198 438 1218 b 360 1258 404 1250 384 1258 b 298 1233 335 1258 314 1250 b 274 1174 282 1216 274 1196 z m 543 1174 b 567 1116 543 1152 551 1133 b 629 1090 584 1099 604 1090 b 690 1115 653 1090 674 1098 b 715 1174 707 1131 715 1150 b 690 1234 715 1198 707 1218 b 629 1258 674 1250 653 1258 b 567 1233 604 1258 584 1250 b 543 1174 551 1216 543 1196 z "},"Ý":{"ha":867,"x_min":0,"x_max":0,"o":"m 503 0 l 503 425 l 871 983 l 711 983 l 438 539 l 165 983 l -4 983 l 364 425 l 364 0 z m 479 1061 l 669 1261 l 511 1261 l 374 1061 z "},"Þ":{"ha":826,"x_min":0,"x_max":0,"o":"m 119 983 l 119 0 l 257 0 l 257 229 l 413 229 b 555 244 463 229 511 234 b 669 293 599 255 637 271 b 744 379 701 315 726 344 b 771 507 762 414 771 457 b 746 628 771 553 763 594 b 675 713 729 662 706 691 b 564 764 644 736 607 753 b 419 781 520 775 472 781 l 257 781 l 257 983 z m 257 347 l 257 663 l 401 663 b 492 654 434 663 464 660 b 563 627 519 649 543 640 b 610 578 583 615 599 598 b 628 506 622 559 628 534 b 611 431 628 476 622 451 b 564 383 600 411 584 395 b 491 356 544 370 519 361 b 399 347 463 350 432 347 z "},"ß":{"ha":850,"x_min":0,"x_max":0,"o":"m 242 0 l 242 724 b 249 801 242 749 244 775 b 276 875 253 828 262 853 b 331 930 289 897 307 916 b 421 951 354 944 384 951 b 535 908 469 951 507 937 b 578 796 564 878 578 841 b 531 682 578 746 562 708 b 411 643 500 656 460 643 l 396 643 l 396 529 l 411 529 b 506 516 445 529 477 525 b 583 476 535 507 561 494 b 633 409 604 459 621 436 b 651 314 645 382 651 350 b 592 153 651 245 631 192 b 432 94 552 114 499 94 b 390 97 420 94 406 95 b 350 104 373 99 360 101 l 350 -6 b 449 -17 384 -13 417 -17 b 589 7 500 -17 547 -9 b 695 74 631 23 666 45 b 763 176 724 102 747 137 b 786 308 778 216 786 260 b 769 414 786 346 781 381 b 723 499 758 446 743 475 b 650 560 703 524 679 544 b 554 592 621 575 589 586 l 554 594 b 667 674 602 610 640 637 b 708 808 695 712 708 756 b 687 914 708 847 701 882 b 627 995 672 945 653 972 b 538 1048 602 1018 572 1035 b 426 1067 503 1060 466 1067 b 277 1038 367 1067 317 1057 b 180 961 237 1018 204 993 b 127 853 155 930 138 894 b 111 729 116 812 111 771 l 111 0 z "},"à":{"ha":753,"x_min":0,"x_max":0,"o":"m 522 426 l 522 408 b 357 401 467 408 412 406 b 210 372 302 397 253 387 b 104 305 166 356 131 334 b 64 186 77 276 64 236 b 87 90 64 148 72 116 b 144 28 102 64 121 44 b 222 -6 168 12 193 1 b 303 -17 250 -13 277 -17 b 433 13 353 -17 396 -7 b 524 94 469 32 500 59 l 528 94 b 539 0 528 63 531 31 l 657 0 b 649 60 653 16 651 36 b 647 131 648 85 647 108 l 647 418 b 631 519 647 454 642 488 b 581 601 619 551 603 578 b 495 656 558 625 530 643 b 372 676 460 670 419 676 b 222 650 319 676 268 668 b 103 578 175 632 135 608 l 172 494 b 255 549 194 517 222 535 b 360 571 288 564 323 571 b 478 535 409 571 448 559 b 522 426 507 512 522 475 z m 490 314 l 522 314 l 522 279 b 473 141 522 224 506 178 b 332 86 440 104 393 86 b 283 91 315 86 299 88 b 240 108 268 94 253 100 b 209 140 227 117 217 127 b 197 189 201 153 197 169 b 225 256 197 217 206 239 b 295 293 244 272 267 285 b 390 310 323 301 355 307 b 490 314 424 313 458 314 z m 167 983 l 356 783 l 463 783 l 324 983 z "},"á":{"ha":753,"x_min":0,"x_max":0,"o":"m 522 426 l 522 408 b 357 401 467 408 412 406 b 210 372 302 397 253 387 b 104 305 166 356 131 334 b 64 186 77 276 64 236 b 87 90 64 148 72 116 b 144 28 102 64 121 44 b 222 -6 168 12 193 1 b 303 -17 250 -13 277 -17 b 433 13 353 -17 396 -7 b 524 94 469 32 500 59 l 528 94 b 539 0 528 63 531 31 l 657 0 b 649 60 653 16 651 36 b 647 131 648 85 647 108 l 647 418 b 631 519 647 454 642 488 b 581 601 619 551 603 578 b 495 656 558 625 530 643 b 372 676 460 670 419 676 b 222 650 319 676 268 668 b 103 578 175 632 135 608 l 172 494 b 255 549 194 517 222 535 b 360 571 288 564 323 571 b 478 535 409 571 448 559 b 522 426 507 512 522 475 z m 490 314 l 522 314 l 522 279 b 473 141 522 224 506 178 b 332 86 440 104 393 86 b 283 91 315 86 299 88 b 240 108 268 94 253 100 b 209 140 227 117 217 127 b 197 189 201 153 197 169 b 225 256 197 217 206 239 b 295 293 244 272 267 285 b 390 310 323 301 355 307 b 490 314 424 313 458 314 z m 422 783 l 611 983 l 454 983 l 315 783 z "},"â":{"ha":753,"x_min":0,"x_max":0,"o":"m 522 426 l 522 408 b 357 401 467 408 412 406 b 210 372 302 397 253 387 b 104 305 166 356 131 334 b 64 186 77 276 64 236 b 87 90 64 148 72 116 b 144 28 102 64 121 44 b 222 -6 168 12 193 1 b 303 -17 250 -13 277 -17 b 433 13 353 -17 396 -7 b 524 94 469 32 500 59 l 528 94 b 539 0 528 63 531 31 l 657 0 b 649 60 653 16 651 36 b 647 131 648 85 647 108 l 647 418 b 631 519 647 454 642 488 b 581 601 619 551 603 578 b 495 656 558 625 530 643 b 372 676 460 670 419 676 b 222 650 319 676 268 668 b 103 578 175 632 135 608 l 172 494 b 255 549 194 517 222 535 b 360 571 288 564 323 571 b 478 535 409 571 448 559 b 522 426 507 512 522 475 z m 490 314 l 522 314 l 522 279 b 473 141 522 224 506 178 b 332 86 440 104 393 86 b 283 91 315 86 299 88 b 240 108 268 94 253 100 b 209 140 227 117 217 127 b 197 189 201 153 197 169 b 225 256 197 217 206 239 b 295 293 244 272 267 285 b 390 310 323 301 355 307 b 490 314 424 313 458 314 z m 603 783 l 447 983 l 297 983 l 142 783 l 267 783 l 372 921 l 476 783 z "},"ã":{"ha":753,"x_min":0,"x_max":0,"o":"m 522 426 l 522 408 b 357 401 467 408 412 406 b 210 372 302 397 253 387 b 104 305 166 356 131 334 b 64 186 77 276 64 236 b 87 90 64 148 72 116 b 144 28 102 64 121 44 b 222 -6 168 12 193 1 b 303 -17 250 -13 277 -17 b 433 13 353 -17 396 -7 b 524 94 469 32 500 59 l 528 94 b 539 0 528 63 531 31 l 657 0 b 649 60 653 16 651 36 b 647 131 648 85 647 108 l 647 418 b 631 519 647 454 642 488 b 581 601 619 551 603 578 b 495 656 558 625 530 643 b 372 676 460 670 419 676 b 222 650 319 676 268 668 b 103 578 175 632 135 608 l 172 494 b 255 549 194 517 222 535 b 360 571 288 564 323 571 b 478 535 409 571 448 559 b 522 426 507 512 522 475 z m 490 314 l 522 314 l 522 279 b 473 141 522 224 506 178 b 332 86 440 104 393 86 b 283 91 315 86 299 88 b 240 108 268 94 253 100 b 209 140 227 117 217 127 b 197 189 201 153 197 169 b 225 256 197 217 206 239 b 295 293 244 272 267 285 b 390 310 323 301 355 307 b 490 314 424 313 458 314 z m 132 794 l 208 794 b 230 838 213 810 220 825 b 274 858 240 852 254 858 b 316 850 287 858 301 856 b 364 829 331 844 347 838 b 417 809 381 822 398 815 b 471 800 435 803 453 800 b 531 814 494 800 514 805 b 572 851 547 823 561 835 b 598 902 583 866 592 883 b 613 961 604 921 609 941 l 538 961 b 516 917 533 945 526 931 b 471 897 506 904 491 897 b 428 906 458 897 444 900 b 378 928 413 912 396 919 b 327 947 362 935 345 942 b 274 956 309 953 291 956 b 213 942 250 956 229 951 b 172 905 197 932 183 920 b 147 853 161 890 153 872 b 132 794 141 834 136 815 z "},"ä":{"ha":753,"x_min":0,"x_max":0,"o":"m 522 426 l 522 408 b 357 401 467 408 412 406 b 210 372 302 397 253 387 b 104 305 166 356 131 334 b 64 186 77 276 64 236 b 87 90 64 148 72 116 b 144 28 102 64 121 44 b 222 -6 168 12 193 1 b 303 -17 250 -13 277 -17 b 433 13 353 -17 396 -7 b 524 94 469 32 500 59 l 528 94 b 539 0 528 63 531 31 l 657 0 b 649 60 653 16 651 36 b 647 131 648 85 647 108 l 647 418 b 631 519 647 454 642 488 b 581 601 619 551 603 578 b 495 656 558 625 530 643 b 372 676 460 670 419 676 b 222 650 319 676 268 668 b 103 578 175 632 135 608 l 172 494 b 255 549 194 517 222 535 b 360 571 288 564 323 571 b 478 535 409 571 448 559 b 522 426 507 512 522 475 z m 490 314 l 522 314 l 522 279 b 473 141 522 224 506 178 b 332 86 440 104 393 86 b 283 91 315 86 299 88 b 240 108 268 94 253 100 b 209 140 227 117 217 127 b 197 189 201 153 197 169 b 225 256 197 217 206 239 b 295 293 244 272 267 285 b 390 310 323 301 355 307 b 490 314 424 313 458 314 z m 153 896 b 177 838 153 875 161 855 b 239 813 193 821 214 813 b 300 837 263 813 283 821 b 325 896 317 853 325 873 b 300 956 325 920 317 940 b 239 981 283 972 263 981 b 177 955 214 981 193 972 b 153 896 161 938 153 918 z m 422 896 b 447 838 422 875 430 855 b 508 813 463 821 483 813 b 569 837 532 813 553 821 b 594 896 586 853 594 873 b 569 956 594 920 586 940 b 508 981 553 972 532 981 b 447 955 483 981 463 972 b 422 896 430 938 422 918 z "},"å":{"ha":753,"x_min":0,"x_max":0,"o":"m 522 426 l 522 408 b 357 401 467 408 412 406 b 210 372 302 397 253 387 b 104 305 166 356 131 334 b 64 186 77 276 64 236 b 87 90 64 148 72 116 b 144 28 102 64 121 44 b 222 -6 168 12 193 1 b 303 -17 250 -13 277 -17 b 433 13 353 -17 396 -7 b 524 94 469 32 500 59 l 528 94 b 539 0 528 63 531 31 l 657 0 b 649 60 653 16 651 36 b 647 131 648 85 647 108 l 647 418 b 631 519 647 454 642 488 b 581 601 619 551 603 578 b 495 656 558 625 530 643 b 372 676 460 670 419 676 b 222 650 319 676 268 668 b 103 578 175 632 135 608 l 172 494 b 255 549 194 517 222 535 b 360 571 288 564 323 571 b 478 535 409 571 448 559 b 522 426 507 512 522 475 z m 490 314 l 522 314 l 522 279 b 473 141 522 224 506 178 b 332 86 440 104 393 86 b 283 91 315 86 299 88 b 240 108 268 94 253 100 b 209 140 227 117 217 127 b 197 189 201 153 197 169 b 225 256 197 217 206 239 b 295 293 244 272 267 285 b 390 310 323 301 355 307 b 490 314 424 313 458 314 z m 513 907 b 472 1004 513 946 499 978 b 372 1043 444 1030 411 1043 b 274 1004 333 1043 300 1030 b 233 906 247 978 233 945 b 244 851 233 886 237 868 b 274 808 252 835 262 820 b 318 780 287 796 301 787 b 372 769 335 773 353 769 b 472 808 411 769 444 782 b 513 907 499 834 513 867 z m 454 907 b 430 850 454 884 446 865 b 372 828 414 835 394 828 b 316 851 351 828 332 835 b 292 907 300 866 292 885 b 316 963 292 929 300 948 b 372 985 332 977 351 985 b 430 963 394 985 414 977 b 454 907 446 948 454 929 z "},"æ":{"ha":1218,"x_min":0,"x_max":0,"o":"m 486 290 l 519 290 l 519 256 b 472 131 519 203 504 161 b 333 85 441 100 394 85 b 283 90 316 85 299 86 b 240 106 266 93 252 98 b 209 137 227 114 217 124 b 197 185 201 149 197 165 b 219 240 197 208 205 226 b 281 272 234 254 255 265 b 372 287 306 280 337 284 b 486 290 407 289 445 290 z m 1019 388 l 642 388 b 660 460 643 413 649 438 b 703 519 671 483 685 503 b 766 559 722 536 742 549 b 842 574 790 569 815 574 b 918 559 870 574 896 569 b 974 519 940 549 959 536 b 1008 460 988 503 1000 483 b 1019 388 1016 438 1019 413 z m 582 118 b 692 17 608 75 644 41 b 850 -18 739 -6 792 -18 b 1003 15 906 -18 958 -7 b 1124 117 1049 36 1089 70 l 1036 190 b 962 119 1018 163 993 139 b 850 90 931 100 894 90 b 772 106 822 90 796 95 b 706 148 747 116 725 130 b 661 212 687 166 672 187 b 643 290 650 236 644 263 l 1149 290 b 1150 313 1150 298 1150 305 l 1150 335 b 1128 477 1150 388 1143 435 b 1067 585 1114 519 1094 555 b 971 653 1041 614 1009 637 b 843 676 933 669 890 676 b 699 642 785 676 737 665 b 603 554 661 620 629 590 b 578 595 597 567 589 581 b 535 635 568 609 553 623 b 468 665 517 647 495 657 b 372 676 441 672 409 676 b 222 650 319 676 268 668 b 103 578 175 632 135 608 l 172 494 b 255 549 194 517 222 535 b 360 571 288 564 323 571 b 478 533 409 571 448 558 b 522 403 507 508 522 465 l 522 388 b 335 381 454 388 391 385 b 191 351 279 376 231 366 b 97 284 151 335 119 313 b 64 168 75 255 64 216 b 87 78 64 132 72 102 b 144 22 102 55 121 36 b 222 -8 168 8 193 -2 b 303 -17 250 -14 277 -17 b 467 13 363 -17 418 -7 b 582 118 517 33 555 68 z "},"ç":{"ha":686,"x_min":0,"x_max":0,"o":"m 574 492 l 668 568 b 559 649 641 603 605 630 b 421 676 513 667 467 676 b 281 651 371 676 324 668 b 169 581 238 635 201 611 b 96 471 138 550 113 513 b 69 329 78 428 69 381 b 92 197 69 281 77 237 b 155 93 106 157 128 123 b 251 21 182 63 214 39 b 374 -15 288 2 329 -10 l 297 -131 l 325 -158 b 354 -151 334 -156 344 -153 b 382 -149 364 -150 374 -149 b 433 -160 400 -149 418 -152 b 457 -201 449 -167 457 -181 b 448 -231 457 -213 454 -223 b 426 -248 442 -238 434 -244 b 398 -257 417 -252 408 -255 b 372 -260 388 -259 380 -260 b 265 -236 335 -260 300 -252 l 238 -294 b 306 -318 257 -305 280 -312 b 381 -326 331 -324 356 -326 b 441 -321 400 -326 420 -325 b 498 -301 462 -317 481 -310 b 540 -262 515 -291 529 -278 b 557 -201 551 -246 557 -225 b 545 -150 557 -181 553 -164 b 515 -117 537 -136 527 -125 b 473 -99 502 -108 488 -102 b 426 -93 458 -95 442 -93 l 407 -93 b 389 -96 401 -93 395 -94 l 440 -18 b 572 12 490 -16 534 -6 b 669 85 610 30 643 54 l 582 164 b 515 111 564 142 542 124 b 424 92 487 98 457 92 b 332 111 389 92 359 98 b 264 163 305 124 282 141 b 222 239 245 185 231 210 b 207 329 212 268 207 298 b 222 419 207 361 212 391 b 264 495 231 448 245 473 b 331 547 282 517 305 534 b 422 567 358 560 388 567 b 511 545 454 567 483 559 b 574 492 539 531 560 513 z "},"è":{"ha":796,"x_min":0,"x_max":0,"o":"m 594 388 l 203 388 b 223 460 205 413 211 438 b 267 519 234 483 249 503 b 331 559 285 536 307 549 b 410 574 356 569 382 574 b 490 559 440 574 467 569 b 547 519 512 549 531 536 b 581 460 562 503 573 483 b 594 388 589 438 594 413 z m 726 335 b 704 477 726 388 719 435 b 641 585 689 519 668 555 b 541 653 614 614 580 637 b 410 676 502 669 458 676 b 275 651 362 676 317 668 b 167 579 233 634 197 610 b 95 469 136 549 112 512 b 69 328 78 426 69 379 b 96 186 69 276 78 229 b 168 77 113 144 138 107 b 278 7 199 47 235 24 b 417 -18 320 -10 367 -18 b 576 15 475 -18 528 -7 b 700 117 623 36 665 70 l 608 190 b 532 119 590 163 564 139 b 417 90 500 100 461 90 b 335 106 388 90 361 95 b 268 148 310 116 288 130 b 222 212 249 166 233 187 b 203 290 210 236 204 263 l 725 290 b 726 313 726 298 726 305 z m 186 983 l 375 783 l 482 783 l 343 983 z "},"é":{"ha":796,"x_min":0,"x_max":0,"o":"m 594 388 l 203 388 b 223 460 205 413 211 438 b 267 519 234 483 249 503 b 331 559 285 536 307 549 b 410 574 356 569 382 574 b 490 559 440 574 467 569 b 547 519 512 549 531 536 b 581 460 562 503 573 483 b 594 388 589 438 594 413 z m 726 335 b 704 477 726 388 719 435 b 641 585 689 519 668 555 b 541 653 614 614 580 637 b 410 676 502 669 458 676 b 275 651 362 676 317 668 b 167 579 233 634 197 610 b 95 469 136 549 112 512 b 69 328 78 426 69 379 b 96 186 69 276 78 229 b 168 77 113 144 138 107 b 278 7 199 47 235 24 b 417 -18 320 -10 367 -18 b 576 15 475 -18 528 -7 b 700 117 623 36 665 70 l 608 190 b 532 119 590 163 564 139 b 417 90 500 100 461 90 b 335 106 388 90 361 95 b 268 148 310 116 288 130 b 222 212 249 166 233 187 b 203 290 210 236 204 263 l 725 290 b 726 313 726 298 726 305 z m 447 783 l 636 983 l 479 983 l 340 783 z "},"ê":{"ha":796,"x_min":0,"x_max":0,"o":"m 594 388 l 203 388 b 223 460 205 413 211 438 b 267 519 234 483 249 503 b 331 559 285 536 307 549 b 410 574 356 569 382 574 b 490 559 440 574 467 569 b 547 519 512 549 531 536 b 581 460 562 503 573 483 b 594 388 589 438 594 413 z m 726 335 b 704 477 726 388 719 435 b 641 585 689 519 668 555 b 541 653 614 614 580 637 b 410 676 502 669 458 676 b 275 651 362 676 317 668 b 167 579 233 634 197 610 b 95 469 136 549 112 512 b 69 328 78 426 69 379 b 96 186 69 276 78 229 b 168 77 113 144 138 107 b 278 7 199 47 235 24 b 417 -18 320 -10 367 -18 b 576 15 475 -18 528 -7 b 700 117 623 36 665 70 l 608 190 b 532 119 590 163 564 139 b 417 90 500 100 461 90 b 335 106 388 90 361 95 b 268 148 310 116 288 130 b 222 212 249 166 233 187 b 203 290 210 236 204 263 l 725 290 b 726 313 726 298 726 305 z m 649 783 l 493 983 l 343 983 l 188 783 l 313 783 l 418 921 l 522 783 z "},"ë":{"ha":796,"x_min":0,"x_max":0,"o":"m 594 388 l 203 388 b 223 460 205 413 211 438 b 267 519 234 483 249 503 b 331 559 285 536 307 549 b 410 574 356 569 382 574 b 490 559 440 574 467 569 b 547 519 512 549 531 536 b 581 460 562 503 573 483 b 594 388 589 438 594 413 z m 726 335 b 704 477 726 388 719 435 b 641 585 689 519 668 555 b 541 653 614 614 580 637 b 410 676 502 669 458 676 b 275 651 362 676 317 668 b 167 579 233 634 197 610 b 95 469 136 549 112 512 b 69 328 78 426 69 379 b 96 186 69 276 78 229 b 168 77 113 144 138 107 b 278 7 199 47 235 24 b 417 -18 320 -10 367 -18 b 576 15 475 -18 528 -7 b 700 117 623 36 665 70 l 608 190 b 532 119 590 163 564 139 b 417 90 500 100 461 90 b 335 106 388 90 361 95 b 268 148 310 116 288 130 b 222 212 249 166 233 187 b 203 290 210 236 204 263 l 725 290 b 726 313 726 298 726 305 z m 196 896 b 220 838 196 875 204 855 b 282 813 236 821 257 813 b 343 837 306 813 326 821 b 368 896 360 853 368 873 b 343 956 368 920 360 940 b 282 981 326 972 306 981 b 220 955 257 981 236 972 b 196 896 204 938 196 918 z m 465 896 b 490 838 465 875 473 855 b 551 813 506 821 526 813 b 613 837 575 813 596 821 b 638 896 629 853 638 873 b 613 956 638 920 629 940 b 551 981 596 972 575 981 b 490 955 526 981 506 972 b 465 896 473 938 465 918 z "},"ì":{"ha":360,"x_min":0,"x_max":0,"o":"m 244 0 l 244 658 l 114 658 l 114 0 z m -50 983 l 139 783 l 246 783 l 107 983 z "},"í":{"ha":360,"x_min":0,"x_max":0,"o":"m 244 0 l 244 658 l 114 658 l 114 0 z m 221 783 l 410 983 l 253 983 l 114 783 z "},"î":{"ha":360,"x_min":0,"x_max":0,"o":"m 244 0 l 244 658 l 114 658 l 114 0 z m 411 783 l 256 983 l 106 983 l -50 783 l 75 783 l 181 921 l 285 783 z "},"ï":{"ha":360,"x_min":0,"x_max":0,"o":"m 244 0 l 244 658 l 114 658 l 114 0 z m -40 896 b -16 838 -40 875 -32 855 b 46 813 0 821 21 813 b 107 837 70 813 90 821 b 132 896 124 853 132 873 b 107 956 132 920 124 940 b 46 981 90 972 70 981 b -16 955 21 981 0 972 b -40 896 -32 938 -40 918 z m 229 896 b 253 838 229 875 237 855 b 315 813 270 821 290 813 b 376 837 339 813 360 821 b 401 896 393 853 401 873 b 376 956 401 920 393 940 b 315 981 360 972 339 981 b 253 955 290 981 270 972 b 229 896 237 938 229 918 z "},"ð":{"ha":847,"x_min":0,"x_max":0,"o":"m 515 915 l 668 990 l 596 1054 l 446 981 b 388 1032 430 995 411 1013 b 317 1089 364 1051 341 1070 l 210 1024 b 272 978 229 1010 250 994 b 333 926 294 961 315 944 l 181 853 l 247 788 l 400 861 b 510 746 440 828 476 789 b 596 611 543 702 572 657 l 593 608 b 509 660 566 632 538 650 b 413 676 480 671 448 676 b 275 651 363 676 318 668 b 164 579 232 634 195 610 b 90 469 132 549 108 512 b 64 329 73 427 64 380 b 90 189 64 278 73 231 b 164 79 108 146 132 110 b 276 8 195 49 233 25 b 418 -18 320 -9 367 -18 b 577 14 479 -18 532 -7 b 688 99 622 35 659 63 b 751 221 716 134 738 175 b 772 364 765 267 772 315 b 752 520 772 418 766 470 b 697 666 739 571 720 619 b 615 799 674 713 647 757 b 515 915 584 840 550 879 z m 197 329 b 212 419 197 361 202 391 b 254 494 222 447 236 472 b 324 546 273 516 296 533 b 418 565 351 559 383 565 b 512 546 453 565 484 559 b 581 494 539 533 562 516 b 623 419 599 472 613 447 b 638 329 633 391 638 361 b 623 240 638 298 633 268 b 581 165 613 211 599 186 b 512 113 562 143 539 125 b 418 93 484 100 453 93 b 324 113 383 93 351 100 b 254 165 296 125 273 143 b 212 240 236 186 222 211 b 197 329 202 268 197 298 z "},"ñ":{"ha":808,"x_min":0,"x_max":0,"o":"m 231 658 l 107 658 b 111 585 109 637 110 613 b 113 517 112 557 113 534 l 113 0 l 243 0 l 243 350 b 292 508 243 416 259 468 b 419 567 325 547 368 567 b 494 550 450 567 475 561 b 540 506 514 539 529 524 b 563 442 551 487 559 466 b 569 365 567 418 569 392 l 569 0 l 700 0 l 700 408 b 685 513 700 445 695 480 b 640 597 676 545 661 573 b 564 655 620 621 594 641 b 454 676 533 669 497 676 b 385 667 430 676 407 673 b 324 640 363 660 342 651 b 274 599 305 628 289 615 b 240 550 260 584 249 568 l 236 550 b 235 602 236 564 236 581 b 231 658 234 623 232 642 z m 168 794 l 244 794 b 266 838 249 810 256 825 b 310 858 276 852 290 858 b 352 850 323 858 337 856 b 400 829 367 844 383 838 b 453 809 417 822 434 815 b 507 800 471 803 489 800 b 567 814 530 800 550 805 b 608 851 583 823 597 835 b 634 902 619 866 628 883 b 649 961 640 921 645 941 l 574 961 b 552 917 569 945 562 931 b 507 897 542 904 527 897 b 465 906 494 897 480 900 b 414 928 449 912 432 919 b 363 947 398 935 381 942 b 310 956 345 953 327 956 b 249 942 286 956 266 951 b 208 905 233 932 219 920 b 183 853 197 890 189 872 b 168 794 177 834 172 815 z "},"ò":{"ha":847,"x_min":0,"x_max":0,"o":"m 779 331 b 752 470 779 381 770 428 b 677 579 734 512 709 549 b 564 651 645 610 607 634 b 424 676 520 668 474 676 b 283 651 374 676 327 668 b 171 579 240 634 202 610 b 97 470 139 549 115 512 b 69 331 78 428 69 381 b 97 190 69 280 78 233 b 171 80 115 148 139 111 b 283 8 202 49 240 25 b 424 -18 327 -9 374 -18 b 564 8 474 -18 520 -9 b 677 80 607 25 645 49 b 752 190 709 111 734 148 b 779 331 770 233 779 280 z m 643 331 b 628 240 643 299 638 269 b 586 164 619 212 605 186 b 517 111 568 142 545 124 b 424 92 490 98 459 92 b 330 111 388 92 357 98 b 261 164 303 124 280 142 b 219 240 243 186 228 212 b 204 331 209 269 204 299 b 219 421 204 362 209 392 b 261 497 228 450 243 475 b 330 549 280 518 303 536 b 424 568 357 562 388 568 b 517 549 459 568 490 562 b 586 497 545 536 568 518 b 628 421 605 475 619 450 b 643 331 638 392 643 362 z m 204 983 l 393 783 l 500 783 l 361 983 z "},"ó":{"ha":847,"x_min":0,"x_max":0,"o":"m 779 331 b 752 470 779 381 770 428 b 677 579 734 512 709 549 b 564 651 645 610 607 634 b 424 676 520 668 474 676 b 283 651 374 676 327 668 b 171 579 240 634 202 610 b 97 470 139 549 115 512 b 69 331 78 428 69 381 b 97 190 69 280 78 233 b 171 80 115 148 139 111 b 283 8 202 49 240 25 b 424 -18 327 -9 374 -18 b 564 8 474 -18 520 -9 b 677 80 607 25 645 49 b 752 190 709 111 734 148 b 779 331 770 233 779 280 z m 643 331 b 628 240 643 299 638 269 b 586 164 619 212 605 186 b 517 111 568 142 545 124 b 424 92 490 98 459 92 b 330 111 388 92 357 98 b 261 164 303 124 280 142 b 219 240 243 186 228 212 b 204 331 209 269 204 299 b 219 421 204 362 209 392 b 261 497 228 450 243 475 b 330 549 280 518 303 536 b 424 568 357 562 388 568 b 517 549 459 568 490 562 b 586 497 545 536 568 518 b 628 421 605 475 619 450 b 643 331 638 392 643 362 z m 451 783 l 640 983 l 483 983 l 344 783 z "},"ô":{"ha":847,"x_min":0,"x_max":0,"o":"m 779 331 b 752 470 779 381 770 428 b 677 579 734 512 709 549 b 564 651 645 610 607 634 b 424 676 520 668 474 676 b 283 651 374 676 327 668 b 171 579 240 634 202 610 b 97 470 139 549 115 512 b 69 331 78 428 69 381 b 97 190 69 280 78 233 b 171 80 115 148 139 111 b 283 8 202 49 240 25 b 424 -18 327 -9 374 -18 b 564 8 474 -18 520 -9 b 677 80 607 25 645 49 b 752 190 709 111 734 148 b 779 331 770 233 779 280 z m 643 331 b 628 240 643 299 638 269 b 586 164 619 212 605 186 b 517 111 568 142 545 124 b 424 92 490 98 459 92 b 330 111 388 92 357 98 b 261 164 303 124 280 142 b 219 240 243 186 228 212 b 204 331 209 269 204 299 b 219 421 204 362 209 392 b 261 497 228 450 243 475 b 330 549 280 518 303 536 b 424 568 357 562 388 568 b 517 549 459 568 490 562 b 586 497 545 536 568 518 b 628 421 605 475 619 450 b 643 331 638 392 643 362 z m 656 783 l 500 983 l 350 983 l 194 783 l 319 783 l 425 921 l 529 783 z "},"õ":{"ha":847,"x_min":0,"x_max":0,"o":"m 779 331 b 752 470 779 381 770 428 b 677 579 734 512 709 549 b 564 651 645 610 607 634 b 424 676 520 668 474 676 b 283 651 374 676 327 668 b 171 579 240 634 202 610 b 97 470 139 549 115 512 b 69 331 78 428 69 381 b 97 190 69 280 78 233 b 171 80 115 148 139 111 b 283 8 202 49 240 25 b 424 -18 327 -9 374 -18 b 564 8 474 -18 520 -9 b 677 80 607 25 645 49 b 752 190 709 111 734 148 b 779 331 770 233 779 280 z m 643 331 b 628 240 643 299 638 269 b 586 164 619 212 605 186 b 517 111 568 142 545 124 b 424 92 490 98 459 92 b 330 111 388 92 357 98 b 261 164 303 124 280 142 b 219 240 243 186 228 212 b 204 331 209 269 204 299 b 219 421 204 362 209 392 b 261 497 228 450 243 475 b 330 549 280 518 303 536 b 424 568 357 562 388 568 b 517 549 459 568 490 562 b 586 497 545 536 568 518 b 628 421 605 475 619 450 b 643 331 638 392 643 362 z m 185 794 l 261 794 b 283 838 266 810 273 825 b 326 858 292 852 307 858 b 369 850 339 858 353 856 b 417 829 384 844 400 838 b 469 809 433 822 451 815 b 524 800 488 803 506 800 b 583 814 547 800 567 805 b 625 851 600 823 614 835 b 651 902 636 866 645 883 b 665 961 657 921 662 941 l 590 961 b 569 917 586 945 578 931 b 524 897 559 904 544 897 b 481 906 511 897 497 900 b 431 928 466 912 449 919 b 380 947 415 935 398 942 b 326 956 362 953 344 956 b 266 942 302 956 282 951 b 225 905 250 932 236 920 b 199 853 214 890 205 872 b 185 794 193 834 188 815 z "},"ö":{"ha":847,"x_min":0,"x_max":0,"o":"m 779 331 b 752 470 779 381 770 428 b 677 579 734 512 709 549 b 564 651 645 610 607 634 b 424 676 520 668 474 676 b 283 651 374 676 327 668 b 171 579 240 634 202 610 b 97 470 139 549 115 512 b 69 331 78 428 69 381 b 97 190 69 280 78 233 b 171 80 115 148 139 111 b 283 8 202 49 240 25 b 424 -18 327 -9 374 -18 b 564 8 474 -18 520 -9 b 677 80 607 25 645 49 b 752 190 709 111 734 148 b 779 331 770 233 779 280 z m 643 331 b 628 240 643 299 638 269 b 586 164 619 212 605 186 b 517 111 568 142 545 124 b 424 92 490 98 459 92 b 330 111 388 92 357 98 b 261 164 303 124 280 142 b 219 240 243 186 228 212 b 204 331 209 269 204 299 b 219 421 204 362 209 392 b 261 497 228 450 243 475 b 330 549 280 518 303 536 b 424 568 357 562 388 568 b 517 549 459 568 490 562 b 586 497 545 536 568 518 b 628 421 605 475 619 450 b 643 331 638 392 643 362 z m 204 896 b 228 838 204 875 212 855 b 290 813 245 821 265 813 b 351 837 314 813 335 821 b 376 896 368 853 376 873 b 351 956 376 920 368 940 b 290 981 335 972 314 981 b 228 955 265 981 245 972 b 204 896 212 938 204 918 z m 474 896 b 498 838 474 875 482 855 b 560 813 514 821 535 813 b 621 837 584 813 604 821 b 646 896 638 853 646 873 b 621 956 646 920 638 940 b 560 981 604 972 584 981 b 498 955 535 981 514 972 b 474 896 482 938 474 918 z "},"÷":{"ha":925,"x_min":0,"x_max":0,"o":"m 828 364 l 828 478 l 97 478 l 97 364 z m 553 183 b 527 247 553 207 544 228 b 463 274 510 265 488 274 b 398 247 437 274 415 265 b 372 183 381 228 372 207 b 398 120 372 159 381 138 b 463 93 415 102 437 93 b 527 120 488 93 510 102 b 553 183 544 138 553 159 z m 553 651 b 527 715 553 675 544 697 b 463 742 510 733 488 742 b 398 715 437 742 415 733 b 372 651 381 697 372 675 b 398 588 372 627 381 606 b 463 561 415 570 437 561 b 527 588 488 561 510 570 b 553 651 544 606 553 627 z "},"ø":{"ha":847,"x_min":0,"x_max":0,"o":"m 696 557 l 789 654 l 738 703 l 643 606 b 424 676 583 653 510 676 b 283 651 374 676 327 668 b 171 579 240 634 202 610 b 97 469 139 549 115 512 b 69 329 78 427 69 380 b 90 203 69 284 76 242 b 150 101 104 165 124 131 l 58 7 l 108 -43 l 203 53 b 303 1 232 31 266 13 b 424 -18 340 -12 380 -18 b 564 8 474 -18 520 -9 b 677 79 607 25 645 49 b 752 189 709 110 734 146 b 779 329 770 231 779 278 b 757 455 779 375 772 416 b 696 557 742 493 722 527 z m 564 524 l 239 189 b 210 253 226 206 216 228 b 200 329 203 278 200 303 b 215 420 200 361 205 391 b 258 498 224 449 239 475 b 328 552 277 521 300 539 b 424 572 356 566 388 572 b 501 560 450 572 476 568 b 564 524 526 551 547 539 z m 282 136 l 608 469 b 638 406 621 452 631 431 b 649 331 645 381 649 356 b 634 240 649 299 644 269 b 591 162 624 210 610 184 b 520 108 572 139 548 121 b 422 88 492 94 459 88 b 282 136 367 88 320 104 z "},"ù":{"ha":808,"x_min":0,"x_max":0,"o":"m 576 0 l 700 0 b 696 74 698 21 697 46 b 694 142 695 101 694 124 l 694 658 l 564 658 l 564 308 b 515 151 564 243 548 190 b 388 92 483 111 440 92 b 313 108 357 92 332 97 b 267 153 293 119 278 134 b 244 217 256 171 248 193 b 238 294 240 242 238 268 l 238 658 l 107 658 l 107 250 b 122 146 107 213 112 178 b 166 60 131 113 146 85 b 242 3 186 36 211 17 b 353 -18 273 -11 310 -18 b 484 19 401 -18 445 -6 b 568 108 523 43 551 73 l 571 108 b 572 56 571 94 571 77 b 576 0 573 35 575 17 z m 182 983 l 371 783 l 478 783 l 339 983 z "},"ú":{"ha":808,"x_min":0,"x_max":0,"o":"m 576 0 l 700 0 b 696 74 698 21 697 46 b 694 142 695 101 694 124 l 694 658 l 564 658 l 564 308 b 515 151 564 243 548 190 b 388 92 483 111 440 92 b 313 108 357 92 332 97 b 267 153 293 119 278 134 b 244 217 256 171 248 193 b 238 294 240 242 238 268 l 238 658 l 107 658 l 107 250 b 122 146 107 213 112 178 b 166 60 131 113 146 85 b 242 3 186 36 211 17 b 353 -18 273 -11 310 -18 b 484 19 401 -18 445 -6 b 568 108 523 43 551 73 l 571 108 b 572 56 571 94 571 77 b 576 0 573 35 575 17 z m 439 783 l 628 983 l 471 983 l 332 783 z "},"û":{"ha":808,"x_min":0,"x_max":0,"o":"m 576 0 l 700 0 b 696 74 698 21 697 46 b 694 142 695 101 694 124 l 694 658 l 564 658 l 564 308 b 515 151 564 243 548 190 b 388 92 483 111 440 92 b 313 108 357 92 332 97 b 267 153 293 119 278 134 b 244 217 256 171 248 193 b 238 294 240 242 238 268 l 238 658 l 107 658 l 107 250 b 122 146 107 213 112 178 b 166 60 131 113 146 85 b 242 3 186 36 211 17 b 353 -18 273 -11 310 -18 b 484 19 401 -18 445 -6 b 568 108 523 43 551 73 l 571 108 b 572 56 571 94 571 77 b 576 0 573 35 575 17 z m 635 783 l 479 983 l 329 983 l 174 783 l 299 783 l 404 921 l 508 783 z "},"ü":{"ha":808,"x_min":0,"x_max":0,"o":"m 576 0 l 700 0 b 696 74 698 21 697 46 b 694 142 695 101 694 124 l 694 658 l 564 658 l 564 308 b 515 151 564 243 548 190 b 388 92 483 111 440 92 b 313 108 357 92 332 97 b 267 153 293 119 278 134 b 244 217 256 171 248 193 b 238 294 240 242 238 268 l 238 658 l 107 658 l 107 250 b 122 146 107 213 112 178 b 166 60 131 113 146 85 b 242 3 186 36 211 17 b 353 -18 273 -11 310 -18 b 484 19 401 -18 445 -6 b 568 108 523 43 551 73 l 571 108 b 572 56 571 94 571 77 b 576 0 573 35 575 17 z m 182 896 b 206 838 182 875 190 855 b 268 813 222 821 243 813 b 329 837 292 813 313 821 b 354 896 346 853 354 873 b 329 956 354 920 346 940 b 268 981 313 972 292 981 b 206 955 243 981 222 972 b 182 896 190 938 182 918 z m 451 896 b 476 838 451 875 459 855 b 538 813 492 821 513 813 b 599 837 562 813 582 821 b 624 896 615 853 624 873 b 599 956 624 920 615 940 b 538 981 582 972 562 981 b 476 955 513 981 492 972 b 451 896 459 938 451 918 z "},"ý":{"ha":700,"x_min":0,"x_max":0,"o":"m 363 142 l 158 658 l 13 658 l 294 0 l 253 -110 b 207 -191 239 -145 224 -172 b 131 -219 190 -210 165 -219 b 65 -208 109 -219 88 -216 l 53 -324 b 97 -331 68 -327 82 -330 b 139 -333 111 -333 125 -333 b 223 -321 171 -333 199 -329 b 285 -285 247 -312 267 -301 b 331 -230 302 -270 318 -252 b 367 -156 344 -208 356 -183 l 686 658 l 547 658 l 365 142 z m 397 783 l 586 983 l 429 983 l 290 783 z "},"þ":{"ha":883,"x_min":0,"x_max":0,"o":"m 243 -333 l 243 99 l 247 99 b 346 13 271 62 304 33 b 479 -18 388 -8 432 -18 b 617 9 530 -18 576 -9 b 721 83 657 27 692 52 b 788 194 750 115 772 152 b 811 331 803 237 811 282 b 788 466 811 379 803 424 b 720 576 772 508 749 545 b 616 650 691 608 656 632 b 482 676 576 668 531 676 b 339 642 427 676 380 665 b 247 556 298 620 268 591 l 243 556 l 243 1050 l 114 1050 l 114 -333 z m 676 331 b 663 242 676 300 672 270 b 621 165 653 213 639 188 b 552 112 602 143 579 125 b 457 92 525 98 493 92 b 366 111 424 92 393 98 b 296 163 339 124 315 141 b 251 239 276 185 261 210 b 235 329 240 268 235 298 b 251 419 235 361 240 391 b 296 496 261 448 276 474 b 366 549 315 518 339 536 b 457 568 393 562 424 568 b 552 549 493 568 525 562 b 621 496 579 536 602 518 b 663 419 639 474 653 448 b 676 331 672 391 676 361 z "},"ÿ":{"ha":700,"x_min":0,"x_max":0,"o":"m 363 142 l 158 658 l 13 658 l 294 0 l 253 -110 b 207 -191 239 -145 224 -172 b 131 -219 190 -210 165 -219 b 65 -208 109 -219 88 -216 l 53 -324 b 97 -331 68 -327 82 -330 b 139 -333 111 -333 125 -333 b 223 -321 171 -333 199 -329 b 285 -285 247 -312 267 -301 b 331 -230 302 -270 318 -252 b 367 -156 344 -208 356 -183 l 686 658 l 547 658 l 365 142 z m 140 896 b 165 838 140 875 148 855 b 226 813 181 821 201 813 b 288 837 250 813 271 821 b 313 896 304 853 313 873 b 288 956 313 920 304 940 b 226 981 271 972 250 981 b 165 955 201 981 181 972 b 140 896 148 938 140 918 z m 410 896 b 434 838 410 875 418 855 b 496 813 450 821 471 813 b 557 837 520 813 540 821 b 582 896 574 853 582 873 b 557 956 582 920 574 940 b 496 981 540 972 520 981 b 434 955 471 981 450 972 b 410 896 418 938 410 918 z "},"¤":{"ha":826,"x_min":0,"x_max":0,"o":"m 686 583 l 800 697 l 728 768 l 613 654 b 524 699 587 673 557 688 b 415 717 490 711 454 717 b 308 699 377 717 341 711 b 217 654 274 688 244 673 l 100 768 l 28 697 l 143 581 b 102 493 125 554 112 525 b 88 388 92 462 88 426 b 104 280 88 350 93 314 b 147 190 115 246 130 216 l 28 68 l 100 -4 l 222 117 b 313 72 249 98 279 83 b 415 56 346 61 380 56 b 521 71 453 56 488 61 b 608 114 553 81 582 95 l 729 -4 l 800 68 l 683 186 b 728 278 702 213 717 244 b 746 388 740 312 746 349 b 731 494 746 426 741 462 b 686 583 720 527 706 556 z m 415 607 b 503 590 448 607 477 601 b 571 542 530 578 552 562 b 613 473 589 522 603 499 b 628 388 623 447 628 418 b 613 302 628 357 623 328 b 571 232 603 276 589 252 b 503 184 552 212 530 196 b 415 167 477 172 448 167 b 328 184 383 167 354 172 b 261 232 302 196 280 212 b 219 302 243 252 228 276 b 204 388 209 328 204 357 b 219 473 204 418 209 447 b 261 542 228 499 243 522 b 328 590 280 562 302 578 b 415 607 354 601 383 607 z "},"¦":{"ha":308,"x_min":0,"x_max":0,"o":"m 211 938 l 97 938 l 97 451 l 211 451 z m 211 243 l 97 243 l 97 -243 l 211 -243 z "},"¨":{"ha":347,"x_min":0,"x_max":0,"o":"m -47 896 b -23 838 -47 875 -39 855 b 39 813 -7 821 14 813 b 100 837 63 813 83 821 b 125 896 117 853 125 873 b 100 956 125 920 117 940 b 39 981 83 972 63 981 b -23 955 14 981 -7 972 b -47 896 -39 938 -47 918 z m 222 896 b 247 838 222 875 230 855 b 308 813 263 821 283 813 b 369 837 332 813 353 821 b 394 896 386 853 394 873 b 369 956 394 920 386 940 b 308 981 353 972 332 981 b 247 955 283 981 263 972 b 222 896 230 938 222 918 z "},"´":{"ha":347,"x_min":0,"x_max":0,"o":"m 206 783 l 394 983 l 238 983 l 99 783 z "},"¸":{"ha":347,"x_min":0,"x_max":0,"o":"m 168 -96 l 232 0 l 163 0 l 76 -131 l 104 -158 b 133 -151 113 -156 123 -153 b 161 -149 144 -150 153 -149 b 213 -160 180 -149 197 -152 b 236 -201 228 -167 236 -181 b 227 -231 236 -213 233 -223 b 205 -248 221 -238 214 -244 b 177 -257 196 -252 187 -255 b 151 -260 167 -259 159 -260 b 44 -236 114 -260 79 -252 l 17 -294 b 85 -318 36 -305 59 -312 b 160 -326 111 -324 136 -326 b 220 -321 179 -326 199 -325 b 277 -301 241 -317 260 -310 b 319 -262 294 -291 308 -278 b 336 -201 331 -246 336 -225 b 324 -150 336 -181 332 -164 b 294 -117 316 -136 306 -125 b 252 -99 281 -108 267 -102 b 206 -93 237 -95 221 -93 l 186 -93 b 168 -96 181 -93 175 -94 z "},"¼":{"ha":1208,"x_min":0,"x_max":0,"o":"m 1036 219 l 1036 592 l 921 592 l 675 215 l 675 126 l 938 126 l 938 0 l 1036 0 l 1036 126 l 1118 126 l 1118 219 z m 933 461 l 938 461 l 938 219 l 782 219 z m 343 392 l 343 983 l 250 983 l 76 842 l 140 771 l 235 853 l 235 392 z m 315 -49 l 940 983 l 861 1026 l 235 -6 z "},"½":{"ha":1208,"x_min":0,"x_max":0,"o":"m 343 392 l 343 983 l 250 983 l 76 842 l 140 771 l 235 853 l 235 392 z m 1126 0 l 1126 96 l 869 96 l 1028 251 b 1095 329 1053 275 1075 301 b 1125 431 1115 357 1125 391 b 1109 506 1125 459 1120 484 b 1067 559 1098 527 1084 545 b 1006 591 1049 573 1029 584 b 933 601 982 598 958 601 b 801 552 881 601 838 585 b 736 426 765 519 744 477 l 839 413 b 871 481 844 441 854 464 b 933 507 888 498 908 507 b 993 487 957 507 977 500 b 1017 431 1009 473 1017 455 b 1000 372 1017 408 1011 389 b 961 322 989 354 976 338 l 733 93 l 733 0 z m 315 -49 l 940 983 l 861 1026 l 235 -6 z "},"¾":{"ha":1208,"x_min":0,"x_max":0,"o":"m 1036 219 l 1036 592 l 921 592 l 675 215 l 675 126 l 938 126 l 938 0 l 1036 0 l 1036 126 l 1118 126 l 1118 219 z m 933 461 l 938 461 l 938 219 l 782 219 z m 315 -49 l 940 983 l 861 1026 l 235 -6 z m 199 747 l 199 661 l 236 661 b 281 657 251 661 266 660 b 322 642 297 654 310 649 b 352 615 334 635 344 626 b 364 572 360 604 364 590 b 332 503 364 541 353 518 b 263 482 311 489 288 482 b 194 505 236 482 213 490 b 154 565 176 520 163 540 l 56 535 b 139 423 74 483 102 446 b 265 389 176 400 218 389 b 340 400 291 389 316 393 b 405 434 364 407 386 419 b 451 490 424 449 439 468 b 468 569 462 513 468 539 b 440 658 468 604 459 633 b 367 710 421 683 396 700 b 428 758 391 720 411 736 b 453 839 444 781 453 807 b 438 910 453 866 448 889 b 398 960 428 930 415 947 b 338 990 381 974 361 984 b 265 1000 316 997 291 1000 b 152 966 224 1000 186 989 b 76 869 118 943 93 911 l 171 838 b 208 889 179 859 191 876 b 263 908 224 902 242 908 b 322 888 286 908 306 902 b 347 835 339 875 347 857 b 314 767 347 802 336 780 b 236 747 292 754 266 747 z "},"Ā":{"ha":988,"x_min":0,"x_max":0,"o":"m 160 0 l 258 242 l 725 242 l 825 0 l 981 0 l 558 983 l 433 983 l 7 0 z m 307 363 l 492 824 l 675 363 z m 697 1107 l 697 1200 l 286 1200 l 286 1107 z "},"ā":{"ha":753,"x_min":0,"x_max":0,"o":"m 522 426 l 522 408 b 357 401 467 408 412 406 b 210 372 302 397 253 387 b 104 305 166 356 131 334 b 64 186 77 276 64 236 b 87 90 64 148 72 116 b 144 28 102 64 121 44 b 222 -6 168 12 193 1 b 303 -17 250 -13 277 -17 b 433 13 353 -17 396 -7 b 524 94 469 32 500 59 l 528 94 b 539 0 528 63 531 31 l 657 0 b 649 60 653 16 651 36 b 647 131 648 85 647 108 l 647 418 b 631 519 647 454 642 488 b 581 601 619 551 603 578 b 495 656 558 625 530 643 b 372 676 460 670 419 676 b 222 650 319 676 268 668 b 103 578 175 632 135 608 l 172 494 b 255 549 194 517 222 535 b 360 571 288 564 323 571 b 478 535 409 571 448 559 b 522 426 507 512 522 475 z m 490 314 l 522 314 l 522 279 b 473 141 522 224 506 178 b 332 86 440 104 393 86 b 283 91 315 86 299 88 b 240 108 268 94 253 100 b 209 140 227 117 217 127 b 197 189 201 153 197 169 b 225 256 197 217 206 239 b 295 293 244 272 267 285 b 390 310 323 301 355 307 b 490 314 424 313 458 314 z m 581 829 l 581 922 l 169 922 l 169 829 z "},"Ă":{"ha":988,"x_min":0,"x_max":0,"o":"m 160 0 l 258 242 l 725 242 l 825 0 l 981 0 l 558 983 l 433 983 l 7 0 z m 307 363 l 492 824 l 675 363 z m 713 1261 l 636 1261 b 586 1183 628 1223 611 1197 b 492 1161 561 1168 530 1161 b 399 1185 456 1161 425 1169 b 349 1261 372 1200 355 1226 l 271 1261 b 338 1117 275 1197 298 1149 b 492 1069 378 1085 430 1069 b 644 1117 553 1069 603 1085 b 713 1261 684 1149 707 1197 z "},"ă":{"ha":753,"x_min":0,"x_max":0,"o":"m 522 426 l 522 408 b 357 401 467 408 412 406 b 210 372 302 397 253 387 b 104 305 166 356 131 334 b 64 186 77 276 64 236 b 87 90 64 148 72 116 b 144 28 102 64 121 44 b 222 -6 168 12 193 1 b 303 -17 250 -13 277 -17 b 433 13 353 -17 396 -7 b 524 94 469 32 500 59 l 528 94 b 539 0 528 63 531 31 l 657 0 b 649 60 653 16 651 36 b 647 131 648 85 647 108 l 647 418 b 631 519 647 454 642 488 b 581 601 619 551 603 578 b 495 656 558 625 530 643 b 372 676 460 670 419 676 b 222 650 319 676 268 668 b 103 578 175 632 135 608 l 172 494 b 255 549 194 517 222 535 b 360 571 288 564 323 571 b 478 535 409 571 448 559 b 522 426 507 512 522 475 z m 490 314 l 522 314 l 522 279 b 473 141 522 224 506 178 b 332 86 440 104 393 86 b 283 91 315 86 299 88 b 240 108 268 94 253 100 b 209 140 227 117 217 127 b 197 189 201 153 197 169 b 225 256 197 217 206 239 b 295 293 244 272 267 285 b 390 310 323 301 355 307 b 490 314 424 313 458 314 z m 594 983 l 518 983 b 468 905 510 945 493 919 b 374 883 443 891 412 883 b 281 907 338 883 307 891 b 231 983 254 923 237 948 l 153 983 b 220 840 157 919 180 872 b 374 792 260 808 312 792 b 526 840 435 792 485 808 b 594 983 566 872 589 919 z "},"Ą":{"ha":988,"x_min":0,"x_max":0,"o":"m 963 -262 l 932 -200 b 897 -222 922 -209 910 -217 b 858 -231 884 -228 871 -231 b 811 -212 840 -231 824 -224 b 792 -165 798 -199 792 -184 b 823 -81 792 -137 802 -109 b 893 0 844 -52 867 -25 l 981 0 l 558 983 l 433 983 l 7 0 l 160 0 l 258 242 l 725 242 l 822 4 b 778 -35 808 -7 794 -20 b 738 -82 763 -50 750 -65 b 708 -135 725 -99 716 -116 b 696 -193 700 -154 696 -174 b 707 -244 696 -212 700 -228 b 737 -282 714 -259 724 -272 b 780 -306 749 -292 764 -300 b 831 -314 796 -311 813 -314 b 901 -300 855 -314 878 -309 b 963 -262 923 -291 944 -278 z m 307 363 l 492 824 l 675 363 z "},"ą":{"ha":753,"x_min":0,"x_max":0,"o":"m 676 -262 l 646 -200 b 611 -222 636 -209 624 -217 b 572 -231 598 -228 585 -231 b 525 -212 554 -231 538 -224 b 506 -165 512 -199 506 -184 b 537 -81 506 -137 516 -109 b 607 0 558 -52 581 -25 l 657 0 b 649 60 653 16 651 36 b 647 131 648 85 647 108 l 647 418 b 631 519 647 454 642 488 b 581 601 619 551 603 578 b 495 656 558 625 530 643 b 372 676 460 670 419 676 b 222 650 319 676 268 668 b 103 578 175 632 135 608 l 172 494 b 255 549 194 517 222 535 b 360 571 288 564 323 571 b 478 535 409 571 448 559 b 522 426 507 512 522 475 l 522 408 b 357 401 467 408 412 406 b 210 372 302 397 253 387 b 104 305 166 356 131 334 b 64 186 77 276 64 236 b 87 90 64 148 72 116 b 144 28 102 64 121 44 b 222 -6 168 12 193 1 b 303 -17 250 -13 277 -17 b 433 13 353 -17 396 -7 b 524 94 469 32 500 59 l 528 94 b 530 49 528 80 528 64 b 538 4 531 33 534 18 b 493 -35 523 -7 508 -20 b 452 -82 478 -50 465 -65 b 422 -135 440 -99 429 -116 b 410 -193 414 -154 410 -174 b 421 -244 410 -212 413 -228 b 451 -282 428 -259 438 -272 b 494 -306 463 -292 478 -300 b 544 -314 510 -311 527 -314 b 615 -300 569 -314 592 -309 b 676 -262 637 -291 658 -278 z m 490 314 l 522 314 l 522 279 b 473 141 522 224 506 178 b 332 86 440 104 393 86 b 283 91 315 86 299 88 b 240 108 268 94 253 100 b 209 140 227 117 217 127 b 197 189 201 153 197 169 b 225 256 197 217 206 239 b 295 293 244 272 267 285 b 390 310 323 301 355 307 b 490 314 424 313 458 314 z "},"Ć":{"ha":983,"x_min":0,"x_max":0,"o":"m 963 153 l 853 228 b 740 131 823 185 786 153 b 589 97 695 108 644 97 b 435 128 532 97 481 107 b 319 212 390 148 351 176 b 245 338 287 247 262 289 b 219 493 228 386 219 438 b 246 645 219 547 228 597 b 321 771 263 693 288 735 b 438 856 353 807 392 835 b 593 888 484 877 536 888 b 735 855 644 888 691 877 b 838 772 779 833 813 806 l 946 856 b 879 922 927 881 905 903 b 793 969 853 941 825 956 b 694 999 762 982 729 992 b 593 1008 660 1005 626 1008 b 385 971 518 1008 449 996 b 219 866 321 946 266 911 b 109 703 172 821 135 767 b 69 493 83 640 69 570 b 108 284 69 417 82 347 b 216 120 134 221 170 166 b 380 13 262 74 316 39 b 588 -25 443 -12 513 -25 b 811 24 675 -25 749 -9 b 963 153 873 57 924 100 z m 599 1061 l 789 1261 l 631 1261 l 493 1061 z "},"ć":{"ha":686,"x_min":0,"x_max":0,"o":"m 574 492 l 668 568 b 559 649 641 603 605 630 b 421 676 513 667 467 676 b 281 651 371 676 324 668 b 169 581 238 635 201 611 b 96 471 138 550 113 513 b 69 329 78 428 69 381 b 97 186 69 276 78 229 b 171 77 115 144 139 107 b 283 7 202 47 240 24 b 424 -18 326 -10 373 -18 b 565 9 476 -18 524 -9 b 669 85 607 27 642 52 l 582 164 b 515 111 564 142 542 124 b 424 92 487 98 457 92 b 332 111 389 92 359 98 b 264 163 305 124 282 141 b 222 239 245 185 231 210 b 207 329 212 268 207 298 b 222 419 207 361 212 391 b 264 495 231 448 245 473 b 331 547 282 517 305 534 b 422 567 358 560 388 567 b 511 545 454 567 483 559 b 574 492 539 531 560 513 z m 444 783 l 633 983 l 476 983 l 338 783 z "},"Ĉ":{"ha":983,"x_min":0,"x_max":0,"o":"m 963 153 l 853 228 b 740 131 823 185 786 153 b 589 97 695 108 644 97 b 435 128 532 97 481 107 b 319 212 390 148 351 176 b 245 338 287 247 262 289 b 219 493 228 386 219 438 b 246 645 219 547 228 597 b 321 771 263 693 288 735 b 438 856 353 807 392 835 b 593 888 484 877 536 888 b 735 855 644 888 691 877 b 838 772 779 833 813 806 l 946 856 b 879 922 927 881 905 903 b 793 969 853 941 825 956 b 694 999 762 982 729 992 b 593 1008 660 1005 626 1008 b 385 971 518 1008 449 996 b 219 866 321 946 266 911 b 109 703 172 821 135 767 b 69 493 83 640 69 570 b 108 284 69 417 82 347 b 216 120 134 221 170 166 b 380 13 262 74 316 39 b 588 -25 443 -12 513 -25 b 811 24 675 -25 749 -9 b 963 153 873 57 924 100 z m 818 1061 l 663 1261 l 513 1261 l 357 1061 l 482 1061 l 588 1199 l 692 1061 z "},"ĉ":{"ha":686,"x_min":0,"x_max":0,"o":"m 574 492 l 668 568 b 559 649 641 603 605 630 b 421 676 513 667 467 676 b 281 651 371 676 324 668 b 169 581 238 635 201 611 b 96 471 138 550 113 513 b 69 329 78 428 69 381 b 97 186 69 276 78 229 b 171 77 115 144 139 107 b 283 7 202 47 240 24 b 424 -18 326 -10 373 -18 b 565 9 476 -18 524 -9 b 669 85 607 27 642 52 l 582 164 b 515 111 564 142 542 124 b 424 92 487 98 457 92 b 332 111 389 92 359 98 b 264 163 305 124 282 141 b 222 239 245 185 231 210 b 207 329 212 268 207 298 b 222 419 207 361 212 391 b 264 495 231 448 245 473 b 331 547 282 517 305 534 b 422 567 358 560 388 567 b 511 545 454 567 483 559 b 574 492 539 531 560 513 z m 651 783 l 496 983 l 346 983 l 190 783 l 315 783 l 421 921 l 525 783 z "},"Ċ":{"ha":983,"x_min":0,"x_max":0,"o":"m 963 153 l 853 228 b 740 131 823 185 786 153 b 589 97 695 108 644 97 b 435 128 532 97 481 107 b 319 212 390 148 351 176 b 245 338 287 247 262 289 b 219 493 228 386 219 438 b 246 645 219 547 228 597 b 321 771 263 693 288 735 b 438 856 353 807 392 835 b 593 888 484 877 536 888 b 735 855 644 888 691 877 b 838 772 779 833 813 806 l 946 856 b 879 922 927 881 905 903 b 793 969 853 941 825 956 b 694 999 762 982 729 992 b 593 1008 660 1005 626 1008 b 385 971 518 1008 449 996 b 219 866 321 946 266 911 b 109 703 172 821 135 767 b 69 493 83 640 69 570 b 108 284 69 417 82 347 b 216 120 134 221 170 166 b 380 13 262 74 316 39 b 588 -25 443 -12 513 -25 b 811 24 675 -25 749 -9 b 963 153 873 57 924 100 z m 675 1174 b 649 1234 675 1198 666 1218 b 588 1258 632 1250 612 1258 b 526 1234 563 1258 543 1250 b 501 1174 510 1218 501 1198 b 526 1115 501 1150 510 1131 b 588 1090 543 1098 563 1090 b 649 1114 612 1090 632 1098 b 675 1174 666 1130 675 1150 z "},"ċ":{"ha":686,"x_min":0,"x_max":0,"o":"m 574 492 l 668 568 b 559 649 641 603 605 630 b 421 676 513 667 467 676 b 281 651 371 676 324 668 b 169 581 238 635 201 611 b 96 471 138 550 113 513 b 69 329 78 428 69 381 b 97 186 69 276 78 229 b 171 77 115 144 139 107 b 283 7 202 47 240 24 b 424 -18 326 -10 373 -18 b 565 9 476 -18 524 -9 b 669 85 607 27 642 52 l 582 164 b 515 111 564 142 542 124 b 424 92 487 98 457 92 b 332 111 389 92 359 98 b 264 163 305 124 282 141 b 222 239 245 185 231 210 b 207 329 212 268 207 298 b 222 419 207 361 212 391 b 264 495 231 448 245 473 b 331 547 282 517 305 534 b 422 567 358 560 388 567 b 511 545 454 567 483 559 b 574 492 539 531 560 513 z m 504 896 b 478 956 504 920 496 940 b 417 981 461 972 441 981 b 356 956 393 981 372 972 b 331 896 339 940 331 920 b 356 837 331 873 339 853 b 417 813 372 821 393 813 b 478 836 441 813 461 820 b 504 896 496 852 504 872 z "},"Č":{"ha":983,"x_min":0,"x_max":0,"o":"m 963 153 l 853 228 b 740 131 823 185 786 153 b 589 97 695 108 644 97 b 435 128 532 97 481 107 b 319 212 390 148 351 176 b 245 338 287 247 262 289 b 219 493 228 386 219 438 b 246 645 219 547 228 597 b 321 771 263 693 288 735 b 438 856 353 807 392 835 b 593 888 484 877 536 888 b 735 855 644 888 691 877 b 838 772 779 833 813 806 l 946 856 b 879 922 927 881 905 903 b 793 969 853 941 825 956 b 694 999 762 982 729 992 b 593 1008 660 1005 626 1008 b 385 971 518 1008 449 996 b 219 866 321 946 266 911 b 109 703 172 821 135 767 b 69 493 83 640 69 570 b 108 284 69 417 82 347 b 216 120 134 221 170 166 b 380 13 262 74 316 39 b 588 -25 443 -12 513 -25 b 811 24 675 -25 749 -9 b 963 153 873 57 924 100 z m 661 1061 l 817 1261 l 694 1261 l 589 1124 l 483 1261 l 358 1261 l 513 1061 z "},"č":{"ha":686,"x_min":0,"x_max":0,"o":"m 574 492 l 668 568 b 559 649 641 603 605 630 b 421 676 513 667 467 676 b 281 651 371 676 324 668 b 169 581 238 635 201 611 b 96 471 138 550 113 513 b 69 329 78 428 69 381 b 97 186 69 276 78 229 b 171 77 115 144 139 107 b 283 7 202 47 240 24 b 424 -18 326 -10 373 -18 b 565 9 476 -18 524 -9 b 669 85 607 27 642 52 l 582 164 b 515 111 564 142 542 124 b 424 92 487 98 457 92 b 332 111 389 92 359 98 b 264 163 305 124 282 141 b 222 239 245 185 231 210 b 207 329 212 268 207 298 b 222 419 207 361 212 391 b 264 495 231 448 245 473 b 331 547 282 517 305 534 b 422 567 358 560 388 567 b 511 545 454 567 483 559 b 574 492 539 531 560 513 z m 496 783 l 651 983 l 529 983 l 424 846 l 318 983 l 193 983 l 347 783 z "},"Ď":{"ha":1057,"x_min":0,"x_max":0,"o":"m 119 983 l 119 0 l 457 0 b 646 30 520 0 583 10 b 817 120 709 50 766 80 b 940 273 868 160 909 211 b 988 492 972 334 988 407 b 940 715 988 579 972 653 b 817 868 909 777 868 828 b 646 956 766 908 709 937 b 457 983 583 974 520 983 z m 257 121 l 257 864 l 429 864 b 594 840 488 864 543 856 b 724 769 644 823 688 800 b 810 653 761 738 789 699 b 840 492 830 606 840 553 b 810 335 840 433 830 381 b 724 218 789 288 761 250 b 594 146 688 187 644 163 b 429 121 543 129 488 121 z m 551 1061 l 707 1261 l 585 1261 l 479 1124 l 374 1261 l 249 1261 l 403 1061 z "},"ď":{"ha":882,"x_min":0,"x_max":0,"o":"m 638 104 l 640 104 l 640 0 l 767 0 l 767 1050 l 636 1050 l 636 560 l 633 560 b 539 642 610 592 579 620 b 399 676 499 665 452 676 b 264 650 350 676 305 668 b 159 576 223 632 188 608 b 92 466 130 545 107 508 b 68 331 76 424 68 379 b 92 194 68 282 76 237 b 158 83 107 152 130 115 b 263 9 187 52 222 27 b 400 -18 303 -9 349 -18 b 535 13 447 -18 492 -8 b 638 104 578 34 613 64 z m 204 331 b 218 419 204 361 209 391 b 260 496 227 448 241 474 b 328 549 278 518 301 536 b 422 568 355 562 386 568 b 513 549 456 568 486 562 b 583 496 541 536 564 518 b 628 419 603 474 618 448 b 644 329 639 391 644 361 b 628 239 644 298 639 268 b 583 163 618 210 603 185 b 513 111 564 141 541 124 b 422 92 486 98 456 92 b 328 112 386 92 355 98 b 260 165 301 125 278 143 b 218 242 241 188 227 213 b 204 331 209 270 204 300 z m 924 719 l 1032 983 l 903 983 l 814 719 z "},"Đ":{"ha":1057,"x_min":0,"x_max":0,"o":"m 114 465 l 114 0 l 461 0 b 644 30 521 0 582 10 b 811 121 705 50 761 80 b 933 274 861 162 902 213 b 981 492 965 336 981 408 b 937 708 981 574 966 646 b 821 861 908 769 869 820 b 658 953 773 902 718 932 b 472 983 597 973 535 983 l 114 983 l 114 563 l 18 563 l 18 465 z m 253 125 l 253 465 l 582 465 l 582 563 l 253 563 l 253 858 l 429 858 b 601 832 493 858 550 850 b 728 758 651 814 694 790 b 806 642 762 726 788 687 b 833 492 824 597 833 547 b 804 341 833 436 824 386 b 721 226 785 296 757 258 b 590 151 685 194 641 169 b 415 125 538 134 480 125 z "},"đ":{"ha":882,"x_min":0,"x_max":0,"o":"m 636 879 l 410 879 l 410 792 l 636 792 l 636 560 l 633 560 b 539 642 610 592 579 620 b 399 676 499 665 452 676 b 264 650 350 676 305 668 b 159 576 223 632 188 608 b 92 466 130 545 107 508 b 68 331 76 424 68 379 b 92 194 68 282 76 237 b 158 83 107 152 130 115 b 263 9 187 52 222 27 b 400 -18 303 -9 349 -18 b 535 13 447 -18 492 -8 b 638 104 578 34 613 64 l 640 104 l 640 0 l 767 0 l 767 792 l 844 792 l 844 879 l 767 879 l 767 1050 l 636 1050 z m 204 331 b 218 419 204 361 209 391 b 260 496 227 448 241 474 b 328 549 278 518 301 536 b 422 568 355 562 386 568 b 513 549 456 568 486 562 b 583 496 541 536 564 518 b 628 419 603 474 618 448 b 644 329 639 391 644 361 b 628 239 644 298 639 268 b 583 163 618 210 603 185 b 513 111 564 141 541 124 b 422 92 486 98 456 92 b 328 112 386 92 355 98 b 260 165 301 125 278 143 b 218 242 241 188 227 213 b 204 331 209 270 204 300 z "},"Ē":{"ha":835,"x_min":0,"x_max":0,"o":"m 257 122 l 257 450 l 721 450 l 721 568 l 257 568 l 257 863 l 750 863 l 750 983 l 119 983 l 119 0 l 771 0 l 771 122 z m 642 1107 l 642 1200 l 231 1200 l 231 1107 z "},"ē":{"ha":796,"x_min":0,"x_max":0,"o":"m 594 388 l 203 388 b 223 460 205 413 211 438 b 267 519 234 483 249 503 b 331 559 285 536 307 549 b 410 574 356 569 382 574 b 490 559 440 574 467 569 b 547 519 512 549 531 536 b 581 460 562 503 573 483 b 594 388 589 438 594 413 z m 726 335 b 704 477 726 388 719 435 b 641 585 689 519 668 555 b 541 653 614 614 580 637 b 410 676 502 669 458 676 b 275 651 362 676 317 668 b 167 579 233 634 197 610 b 95 469 136 549 112 512 b 69 328 78 426 69 379 b 96 186 69 276 78 229 b 168 77 113 144 138 107 b 278 7 199 47 235 24 b 417 -18 320 -10 367 -18 b 576 15 475 -18 528 -7 b 700 117 623 36 665 70 l 608 190 b 532 119 590 163 564 139 b 417 90 500 100 461 90 b 335 106 388 90 361 95 b 268 148 310 116 288 130 b 222 212 249 166 233 187 b 203 290 210 236 204 263 l 725 290 b 726 313 726 298 726 305 z m 617 829 l 617 922 l 206 922 l 206 829 z "},"Ĕ":{"ha":835,"x_min":0,"x_max":0,"o":"m 257 122 l 257 450 l 721 450 l 721 568 l 257 568 l 257 863 l 750 863 l 750 983 l 119 983 l 119 0 l 771 0 l 771 122 z m 661 1261 l 585 1261 b 535 1183 576 1223 560 1197 b 440 1161 510 1168 478 1161 b 347 1185 405 1161 374 1169 b 297 1261 320 1200 304 1226 l 219 1261 b 287 1117 224 1197 247 1149 b 440 1069 327 1085 378 1069 b 592 1117 501 1069 552 1085 b 661 1261 633 1149 656 1197 z "},"ĕ":{"ha":796,"x_min":0,"x_max":0,"o":"m 594 388 l 203 388 b 223 460 205 413 211 438 b 267 519 234 483 249 503 b 331 559 285 536 307 549 b 410 574 356 569 382 574 b 490 559 440 574 467 569 b 547 519 512 549 531 536 b 581 460 562 503 573 483 b 594 388 589 438 594 413 z m 726 335 b 704 477 726 388 719 435 b 641 585 689 519 668 555 b 541 653 614 614 580 637 b 410 676 502 669 458 676 b 275 651 362 676 317 668 b 167 579 233 634 197 610 b 95 469 136 549 112 512 b 69 328 78 426 69 379 b 96 186 69 276 78 229 b 168 77 113 144 138 107 b 278 7 199 47 235 24 b 417 -18 320 -10 367 -18 b 576 15 475 -18 528 -7 b 700 117 623 36 665 70 l 608 190 b 532 119 590 163 564 139 b 417 90 500 100 461 90 b 335 106 388 90 361 95 b 268 148 310 116 288 130 b 222 212 249 166 233 187 b 203 290 210 236 204 263 l 725 290 b 726 313 726 298 726 305 z m 636 983 l 560 983 b 510 905 551 945 535 919 b 415 883 485 891 453 883 b 322 907 380 883 349 891 b 272 983 295 923 279 948 l 194 983 b 262 840 199 919 222 872 b 415 792 302 808 353 792 b 567 840 476 792 527 808 b 636 983 608 872 631 919 z "},"Ė":{"ha":835,"x_min":0,"x_max":0,"o":"m 257 122 l 257 450 l 721 450 l 721 568 l 257 568 l 257 863 l 750 863 l 750 983 l 119 983 l 119 0 l 771 0 l 771 122 z m 524 1174 b 498 1234 524 1198 515 1218 b 436 1258 481 1250 460 1258 b 375 1234 412 1258 392 1250 b 350 1174 358 1218 350 1198 b 375 1115 350 1150 358 1131 b 436 1090 392 1098 412 1090 b 498 1114 460 1090 481 1098 b 524 1174 515 1130 524 1150 z "},"ė":{"ha":796,"x_min":0,"x_max":0,"o":"m 594 388 l 203 388 b 223 460 205 413 211 438 b 267 519 234 483 249 503 b 331 559 285 536 307 549 b 410 574 356 569 382 574 b 490 559 440 574 467 569 b 547 519 512 549 531 536 b 581 460 562 503 573 483 b 594 388 589 438 594 413 z m 726 335 b 704 477 726 388 719 435 b 641 585 689 519 668 555 b 541 653 614 614 580 637 b 410 676 502 669 458 676 b 275 651 362 676 317 668 b 167 579 233 634 197 610 b 95 469 136 549 112 512 b 69 328 78 426 69 379 b 96 186 69 276 78 229 b 168 77 113 144 138 107 b 278 7 199 47 235 24 b 417 -18 320 -10 367 -18 b 576 15 475 -18 528 -7 b 700 117 623 36 665 70 l 608 190 b 532 119 590 163 564 139 b 417 90 500 100 461 90 b 335 106 388 90 361 95 b 268 148 310 116 288 130 b 222 212 249 166 233 187 b 203 290 210 236 204 263 l 725 290 b 726 313 726 298 726 305 z m 499 896 b 473 956 499 920 490 940 b 411 981 456 972 435 981 b 350 956 387 981 367 972 b 325 896 333 940 325 920 b 350 837 325 873 333 853 b 411 813 367 821 387 813 b 473 836 435 813 456 820 b 499 896 490 852 499 872 z "},"Ę":{"ha":835,"x_min":0,"x_max":0,"o":"m 819 -262 l 789 -200 b 754 -222 779 -209 767 -217 b 715 -231 741 -228 728 -231 b 668 -212 697 -231 681 -224 b 649 -165 655 -199 649 -184 b 680 -81 649 -137 659 -109 b 750 0 701 -52 724 -25 l 771 0 l 771 122 l 257 122 l 257 450 l 721 450 l 721 568 l 257 568 l 257 863 l 750 863 l 750 983 l 119 983 l 119 0 l 674 0 b 631 -39 660 -11 646 -24 b 592 -86 617 -54 604 -69 b 564 -138 581 -103 571 -120 b 553 -193 556 -156 553 -175 b 564 -244 553 -212 556 -228 b 594 -282 571 -259 581 -272 b 637 -306 606 -292 621 -300 b 688 -314 653 -311 670 -314 b 758 -300 712 -314 735 -309 b 819 -262 780 -291 801 -278 z "},"ę":{"ha":796,"x_min":0,"x_max":0,"o":"m 556 -262 l 525 -200 b 490 -222 515 -209 503 -217 b 451 -231 477 -228 464 -231 b 404 -212 433 -231 417 -224 b 385 -165 391 -199 385 -184 b 411 -89 385 -140 394 -115 b 472 -14 429 -63 449 -38 b 700 117 565 -3 641 41 l 608 190 b 532 119 590 163 564 139 b 417 90 500 100 461 90 b 335 106 388 90 361 95 b 268 148 310 116 288 130 b 222 212 249 166 233 187 b 203 290 210 236 204 263 l 725 290 b 726 313 726 298 726 305 l 726 335 b 704 477 726 388 719 435 b 641 585 689 519 668 555 b 541 653 614 614 580 637 b 410 676 502 669 458 676 b 275 651 362 676 317 668 b 167 579 233 634 197 610 b 95 469 136 549 112 512 b 69 328 78 426 69 379 b 93 192 69 278 77 232 b 160 85 109 151 131 116 b 261 14 188 55 222 31 b 390 -17 300 -4 343 -14 b 320 -97 364 -40 341 -67 b 289 -193 299 -128 289 -160 b 300 -244 289 -212 293 -228 b 330 -282 307 -259 317 -272 b 373 -306 342 -292 357 -300 b 424 -314 389 -311 406 -314 b 494 -300 448 -314 471 -309 b 556 -262 516 -291 537 -278 z m 594 388 l 203 388 b 223 460 205 413 211 438 b 267 519 234 483 249 503 b 331 559 285 536 307 549 b 410 574 356 569 382 574 b 490 559 440 574 467 569 b 547 519 512 549 531 536 b 581 460 562 503 573 483 b 594 388 589 438 594 413 z "},"Ě":{"ha":835,"x_min":0,"x_max":0,"o":"m 257 122 l 257 450 l 721 450 l 721 568 l 257 568 l 257 863 l 750 863 l 750 983 l 119 983 l 119 0 l 771 0 l 771 122 z m 514 1061 l 669 1261 l 547 1261 l 442 1124 l 336 1261 l 211 1261 l 365 1061 z "},"ě":{"ha":796,"x_min":0,"x_max":0,"o":"m 594 388 l 203 388 b 223 460 205 413 211 438 b 267 519 234 483 249 503 b 331 559 285 536 307 549 b 410 574 356 569 382 574 b 490 559 440 574 467 569 b 547 519 512 549 531 536 b 581 460 562 503 573 483 b 594 388 589 438 594 413 z m 726 335 b 704 477 726 388 719 435 b 641 585 689 519 668 555 b 541 653 614 614 580 637 b 410 676 502 669 458 676 b 275 651 362 676 317 668 b 167 579 233 634 197 610 b 95 469 136 549 112 512 b 69 328 78 426 69 379 b 96 186 69 276 78 229 b 168 77 113 144 138 107 b 278 7 199 47 235 24 b 417 -18 320 -10 367 -18 b 576 15 475 -18 528 -7 b 700 117 623 36 665 70 l 608 190 b 532 119 590 163 564 139 b 417 90 500 100 461 90 b 335 106 388 90 361 95 b 268 148 310 116 288 130 b 222 212 249 166 233 187 b 203 290 210 236 204 263 l 725 290 b 726 313 726 298 726 305 z m 485 783 l 640 983 l 518 983 l 413 846 l 307 983 l 182 983 l 336 783 z "},"Ĝ":{"ha":1081,"x_min":0,"x_max":0,"o":"m 861 781 l 957 881 b 803 974 916 919 865 950 b 593 1008 742 997 672 1008 b 385 971 518 1008 449 996 b 219 866 321 946 266 911 b 109 703 172 821 135 767 b 69 493 83 640 69 570 b 108 284 69 417 82 347 b 217 120 134 221 170 166 b 383 13 263 74 318 39 b 594 -25 447 -12 518 -25 b 794 -3 667 -25 733 -18 b 964 61 856 12 912 33 l 964 538 l 610 538 l 610 421 l 828 421 l 828 147 b 726 111 799 131 765 119 b 599 99 688 103 645 99 b 440 129 540 99 488 109 b 321 213 393 150 353 178 b 246 339 288 249 263 291 b 219 493 228 387 219 438 b 246 645 219 547 228 597 b 321 771 263 693 288 735 b 439 856 353 807 393 835 b 594 888 485 877 537 888 b 748 858 651 888 702 878 b 861 781 794 839 831 813 z m 824 1061 l 668 1261 l 518 1261 l 363 1061 l 488 1061 l 593 1199 l 697 1061 z "},"ĝ":{"ha":878,"x_min":0,"x_max":0,"o":"m 164 -112 l 81 -214 b 230 -302 122 -252 172 -281 b 403 -333 288 -323 345 -333 b 575 -303 471 -333 529 -323 b 688 -222 621 -282 659 -255 b 749 -105 716 -188 737 -149 b 767 33 761 -61 767 -15 l 767 658 l 640 658 l 640 553 l 638 553 b 535 646 613 594 578 625 b 400 676 492 666 447 676 b 264 649 350 676 305 667 b 160 576 223 631 188 607 b 93 467 131 545 109 508 b 69 333 77 425 69 381 b 93 201 69 286 77 242 b 160 93 109 159 131 124 b 265 21 188 63 223 38 b 401 -6 306 3 351 -6 b 535 24 449 -6 493 4 b 633 108 576 43 609 71 l 636 108 l 636 24 b 624 -72 636 -11 632 -43 b 585 -149 616 -102 603 -128 b 514 -201 567 -171 544 -188 b 404 -219 484 -213 448 -219 b 272 -190 359 -219 315 -210 b 164 -112 228 -171 193 -145 z m 204 336 b 219 426 204 368 209 397 b 262 499 228 454 243 478 b 331 549 281 520 304 537 b 422 568 357 562 388 568 b 513 549 456 568 486 562 b 584 499 541 537 564 520 b 630 425 604 477 619 453 b 646 336 641 397 646 368 b 630 245 646 304 641 273 b 585 172 619 217 604 192 b 514 122 565 151 542 134 b 422 104 486 110 456 104 b 331 124 388 104 357 111 b 262 175 304 137 281 154 b 219 249 243 196 228 221 b 204 336 209 276 204 306 z m 661 783 l 506 983 l 356 983 l 200 783 l 325 783 l 431 921 l 535 783 z "},"Ğ":{"ha":1081,"x_min":0,"x_max":0,"o":"m 861 781 l 957 881 b 803 974 916 919 865 950 b 593 1008 742 997 672 1008 b 385 971 518 1008 449 996 b 219 866 321 946 266 911 b 109 703 172 821 135 767 b 69 493 83 640 69 570 b 108 284 69 417 82 347 b 217 120 134 221 170 166 b 383 13 263 74 318 39 b 594 -25 447 -12 518 -25 b 794 -3 667 -25 733 -18 b 964 61 856 12 912 33 l 964 538 l 610 538 l 610 421 l 828 421 l 828 147 b 726 111 799 131 765 119 b 599 99 688 103 645 99 b 440 129 540 99 488 109 b 321 213 393 150 353 178 b 246 339 288 249 263 291 b 219 493 228 387 219 438 b 246 645 219 547 228 597 b 321 771 263 693 288 735 b 439 856 353 807 393 835 b 594 888 485 877 537 888 b 748 858 651 888 702 878 b 861 781 794 839 831 813 z m 814 1261 l 738 1261 b 688 1183 729 1223 713 1197 b 593 1161 663 1168 631 1161 b 500 1185 558 1161 527 1169 b 450 1261 473 1200 456 1226 l 372 1261 b 440 1117 377 1197 399 1149 b 593 1069 480 1085 531 1069 b 745 1117 654 1069 705 1085 b 814 1261 785 1149 808 1197 z "},"ğ":{"ha":878,"x_min":0,"x_max":0,"o":"m 164 -112 l 81 -214 b 230 -302 122 -252 172 -281 b 403 -333 288 -323 345 -333 b 575 -303 471 -333 529 -323 b 688 -222 621 -282 659 -255 b 749 -105 716 -188 737 -149 b 767 33 761 -61 767 -15 l 767 658 l 640 658 l 640 553 l 638 553 b 535 646 613 594 578 625 b 400 676 492 666 447 676 b 264 649 350 676 305 667 b 160 576 223 631 188 607 b 93 467 131 545 109 508 b 69 333 77 425 69 381 b 93 201 69 286 77 242 b 160 93 109 159 131 124 b 265 21 188 63 223 38 b 401 -6 306 3 351 -6 b 535 24 449 -6 493 4 b 633 108 576 43 609 71 l 636 108 l 636 24 b 624 -72 636 -11 632 -43 b 585 -149 616 -102 603 -128 b 514 -201 567 -171 544 -188 b 404 -219 484 -213 448 -219 b 272 -190 359 -219 315 -210 b 164 -112 228 -171 193 -145 z m 204 336 b 219 426 204 368 209 397 b 262 499 228 454 243 478 b 331 549 281 520 304 537 b 422 568 357 562 388 568 b 513 549 456 568 486 562 b 584 499 541 537 564 520 b 630 425 604 477 619 453 b 646 336 641 397 646 368 b 630 245 646 304 641 273 b 585 172 619 217 604 192 b 514 122 565 151 542 134 b 422 104 486 110 456 104 b 331 124 388 104 357 111 b 262 175 304 137 281 154 b 219 249 243 196 228 221 b 204 336 209 276 204 306 z m 646 983 l 569 983 b 519 905 561 945 544 919 b 425 883 494 891 463 883 b 332 907 390 883 359 891 b 282 983 305 923 288 948 l 204 983 b 272 840 209 919 231 872 b 425 792 312 808 363 792 b 577 840 486 792 537 808 b 646 983 617 872 640 919 z "},"Ġ":{"ha":1081,"x_min":0,"x_max":0,"o":"m 861 781 l 957 881 b 803 974 916 919 865 950 b 593 1008 742 997 672 1008 b 385 971 518 1008 449 996 b 219 866 321 946 266 911 b 109 703 172 821 135 767 b 69 493 83 640 69 570 b 108 284 69 417 82 347 b 217 120 134 221 170 166 b 383 13 263 74 318 39 b 594 -25 447 -12 518 -25 b 794 -3 667 -25 733 -18 b 964 61 856 12 912 33 l 964 538 l 610 538 l 610 421 l 828 421 l 828 147 b 726 111 799 131 765 119 b 599 99 688 103 645 99 b 440 129 540 99 488 109 b 321 213 393 150 353 178 b 246 339 288 249 263 291 b 219 493 228 387 219 438 b 246 645 219 547 228 597 b 321 771 263 693 288 735 b 439 856 353 807 393 835 b 594 888 485 877 537 888 b 748 858 651 888 702 878 b 861 781 794 839 831 813 z m 679 1174 b 653 1234 679 1198 671 1218 b 592 1258 636 1250 616 1258 b 531 1234 568 1258 547 1250 b 506 1174 514 1218 506 1198 b 531 1115 506 1150 514 1131 b 592 1090 547 1098 568 1090 b 653 1114 616 1090 636 1098 b 679 1174 671 1130 679 1150 z "},"ġ":{"ha":878,"x_min":0,"x_max":0,"o":"m 164 -112 l 81 -214 b 230 -302 122 -252 172 -281 b 403 -333 288 -323 345 -333 b 575 -303 471 -333 529 -323 b 688 -222 621 -282 659 -255 b 749 -105 716 -188 737 -149 b 767 33 761 -61 767 -15 l 767 658 l 640 658 l 640 553 l 638 553 b 535 646 613 594 578 625 b 400 676 492 666 447 676 b 264 649 350 676 305 667 b 160 576 223 631 188 607 b 93 467 131 545 109 508 b 69 333 77 425 69 381 b 93 201 69 286 77 242 b 160 93 109 159 131 124 b 265 21 188 63 223 38 b 401 -6 306 3 351 -6 b 535 24 449 -6 493 4 b 633 108 576 43 609 71 l 636 108 l 636 24 b 624 -72 636 -11 632 -43 b 585 -149 616 -102 603 -128 b 514 -201 567 -171 544 -188 b 404 -219 484 -213 448 -219 b 272 -190 359 -219 315 -210 b 164 -112 228 -171 193 -145 z m 204 336 b 219 426 204 368 209 397 b 262 499 228 454 243 478 b 331 549 281 520 304 537 b 422 568 357 562 388 568 b 513 549 456 568 486 562 b 584 499 541 537 564 520 b 630 425 604 477 619 453 b 646 336 641 397 646 368 b 630 245 646 304 641 273 b 585 172 619 217 604 192 b 514 122 565 151 542 134 b 422 104 486 110 456 104 b 331 124 388 104 357 111 b 262 175 304 137 281 154 b 219 249 243 196 228 221 b 204 336 209 276 204 306 z m 528 896 b 502 956 528 920 519 940 b 440 981 485 972 464 981 b 379 956 416 981 396 972 b 354 896 363 940 354 920 b 379 837 354 873 363 853 b 440 813 396 821 416 813 b 502 836 464 813 485 820 b 528 896 519 852 528 872 z "},"Ģ":{"ha":1081,"x_min":0,"x_max":0,"o":"m 861 781 l 957 881 b 803 974 916 919 865 950 b 593 1008 742 997 672 1008 b 385 971 518 1008 449 996 b 219 866 321 946 266 911 b 109 703 172 821 135 767 b 69 493 83 640 69 570 b 108 284 69 417 82 347 b 217 120 134 221 170 166 b 383 13 263 74 318 39 b 594 -25 447 -12 518 -25 b 794 -3 667 -25 733 -18 b 964 61 856 12 912 33 l 964 538 l 610 538 l 610 421 l 828 421 l 828 147 b 726 111 799 131 765 119 b 599 99 688 103 645 99 b 440 129 540 99 488 109 b 321 213 393 150 353 178 b 246 339 288 249 263 291 b 219 493 228 387 219 438 b 246 645 219 547 228 597 b 321 771 263 693 288 735 b 439 856 353 807 393 835 b 594 888 485 877 537 888 b 748 858 651 888 702 878 b 861 781 794 839 831 813 z m 572 -326 l 681 -62 l 551 -62 l 463 -326 z "},"ģ":{"ha":878,"x_min":0,"x_max":0,"o":"m 164 -112 l 81 -214 b 230 -302 122 -252 172 -281 b 403 -333 288 -323 345 -333 b 575 -303 471 -333 529 -323 b 688 -222 621 -282 659 -255 b 749 -105 716 -188 737 -149 b 767 33 761 -61 767 -15 l 767 658 l 640 658 l 640 553 l 638 553 b 535 646 613 594 578 625 b 400 676 492 666 447 676 b 264 649 350 676 305 667 b 160 576 223 631 188 607 b 93 467 131 545 109 508 b 69 333 77 425 69 381 b 93 201 69 286 77 242 b 160 93 109 159 131 124 b 265 21 188 63 223 38 b 401 -6 306 3 351 -6 b 535 24 449 -6 493 4 b 633 108 576 43 609 71 l 636 108 l 636 24 b 624 -72 636 -11 632 -43 b 585 -149 616 -102 603 -128 b 514 -201 567 -171 544 -188 b 404 -219 484 -213 448 -219 b 272 -190 359 -219 315 -210 b 164 -112 228 -171 193 -145 z m 204 336 b 219 426 204 368 209 397 b 262 499 228 454 243 478 b 331 549 281 520 304 537 b 422 568 357 562 388 568 b 513 549 456 568 486 562 b 584 499 541 537 564 520 b 630 425 604 477 619 453 b 646 336 641 397 646 368 b 630 245 646 304 641 273 b 585 172 619 217 604 192 b 514 122 565 151 542 134 b 422 104 486 110 456 104 b 331 124 388 104 357 111 b 262 175 304 137 281 154 b 219 249 243 196 228 221 b 204 336 209 276 204 306 z m 486 1047 l 378 783 l 507 783 l 596 1047 z "},"Ĥ":{"ha":1013,"x_min":0,"x_max":0,"o":"m 119 983 l 119 0 l 257 0 l 257 450 l 754 450 l 754 0 l 893 0 l 893 983 l 754 983 l 754 572 l 257 572 l 257 983 z m 736 1061 l 581 1261 l 431 1261 l 275 1061 l 400 1061 l 506 1199 l 610 1061 z "},"ĥ":{"ha":811,"x_min":0,"x_max":0,"o":"m 249 558 l 246 558 l 246 1050 l 115 1050 l 115 0 l 246 0 l 246 349 b 296 506 246 414 263 467 b 424 565 329 546 372 565 b 498 549 454 565 479 560 b 543 504 517 538 532 523 b 566 440 554 486 562 464 b 572 364 570 416 572 391 l 572 0 l 703 0 l 703 408 b 688 513 703 445 698 480 b 643 597 678 545 663 573 b 567 655 623 621 597 641 b 457 676 536 669 500 676 b 329 642 410 676 367 665 b 249 558 291 619 264 591 z m 640 1106 l 485 1306 l 335 1306 l 179 1106 l 304 1106 l 410 1243 l 514 1106 z "},"Ħ":{"ha":1013,"x_min":0,"x_max":0,"o":"m 119 983 l 119 0 l 257 0 l 257 450 l 754 450 l 754 0 l 893 0 l 893 983 l 754 983 l 754 782 l 257 782 l 257 983 z m 754 572 l 257 572 l 257 694 l 754 694 z "},"ħ":{"ha":811,"x_min":0,"x_max":0,"o":"m 115 879 l 40 879 l 40 792 l 115 792 l 115 0 l 246 0 l 246 349 b 296 506 246 414 263 467 b 424 565 329 546 372 565 b 498 549 454 565 479 560 b 543 504 517 538 532 523 b 566 440 554 486 562 464 b 572 364 570 416 572 391 l 572 0 l 704 0 l 704 408 b 690 513 704 445 699 480 b 644 597 680 545 665 573 b 567 655 624 621 598 641 b 457 676 536 669 500 676 b 329 642 410 676 367 665 b 249 558 291 619 264 591 l 246 558 l 246 792 l 474 792 l 474 879 l 246 879 l 246 1050 l 115 1050 z "},"Ĩ":{"ha":376,"x_min":0,"x_max":0,"o":"m 257 0 l 257 983 l 119 983 l 119 0 z m -53 1072 l 24 1072 b 45 1116 28 1088 35 1103 b 89 1136 55 1129 69 1136 b 131 1128 102 1136 116 1133 b 179 1107 147 1122 163 1115 b 232 1087 196 1100 213 1093 b 286 1078 250 1081 269 1078 b 346 1092 309 1078 329 1082 b 388 1128 363 1101 376 1113 b 413 1180 399 1144 407 1161 b 428 1239 419 1199 424 1219 l 353 1239 b 331 1195 348 1223 341 1209 b 286 1175 322 1182 306 1175 b 244 1184 273 1175 259 1178 b 193 1206 228 1190 212 1197 b 142 1225 177 1213 160 1219 b 89 1233 124 1231 106 1233 b 28 1219 65 1233 45 1229 b -12 1183 12 1210 -1 1198 b -38 1131 -24 1167 -32 1150 b -53 1072 -44 1112 -49 1093 z "},"ĩ":{"ha":360,"x_min":0,"x_max":0,"o":"m 244 0 l 244 658 l 114 658 l 114 0 z m -58 794 l 18 794 b 40 838 23 810 30 825 b 83 858 49 852 64 858 b 126 850 96 858 110 856 b 174 829 141 844 157 838 b 226 809 190 822 208 815 b 281 800 245 803 263 800 b 340 814 304 800 324 805 b 382 851 357 823 371 835 b 408 902 393 866 402 883 b 422 961 414 921 419 941 l 347 961 b 326 917 343 945 335 931 b 281 897 316 904 301 897 b 238 906 268 897 253 900 b 188 928 223 912 206 919 b 137 947 172 935 155 942 b 83 956 119 953 101 956 b 23 942 59 956 39 951 b -18 905 7 932 -7 920 b -44 853 -29 890 -38 872 b -58 794 -50 834 -55 815 z "},"Ī":{"ha":376,"x_min":0,"x_max":0,"o":"m 257 0 l 257 983 l 119 983 l 119 0 z m 392 1107 l 392 1200 l -19 1200 l -19 1107 z "},"ī":{"ha":360,"x_min":0,"x_max":0,"o":"m 244 0 l 244 658 l 114 658 l 114 0 z m 386 829 l 386 922 l -25 922 l -25 829 z "},"Į":{"ha":376,"x_min":0,"x_max":0,"o":"m 315 -262 l 285 -200 b 250 -222 275 -209 263 -217 b 211 -231 237 -228 224 -231 b 164 -212 193 -231 177 -224 b 144 -165 151 -199 144 -184 b 176 -81 144 -137 155 -109 b 246 0 197 -52 220 -25 l 257 0 l 257 983 l 119 983 l 119 0 l 169 0 b 127 -39 156 -11 141 -24 b 88 -86 113 -54 100 -69 b 60 -138 77 -103 67 -120 b 49 -193 52 -156 49 -175 b 60 -244 49 -212 52 -228 b 90 -282 67 -259 77 -272 b 133 -306 102 -292 116 -300 b 183 -314 149 -311 166 -314 b 253 -300 207 -314 231 -309 b 315 -262 276 -291 297 -278 z "},"į":{"ha":360,"x_min":0,"x_max":0,"o":"m 299 -262 l 268 -200 b 233 -222 258 -209 246 -217 b 194 -231 220 -228 207 -231 b 147 -212 176 -231 160 -224 b 128 -165 134 -199 128 -184 b 159 -81 128 -137 138 -109 b 229 0 180 -52 203 -25 l 244 0 l 244 658 l 114 658 l 114 0 l 153 0 b 110 -39 139 -11 125 -24 b 72 -86 96 -54 83 -69 b 43 -138 60 -103 50 -120 b 32 -193 36 -156 32 -175 b 43 -244 32 -212 36 -228 b 73 -282 50 -259 60 -272 b 116 -306 85 -292 100 -300 b 167 -314 132 -311 149 -314 b 237 -300 191 -314 214 -309 b 299 -262 259 -291 280 -278 z m 267 896 b 241 956 267 920 258 940 b 179 981 224 972 203 981 b 118 956 155 981 135 972 b 93 896 101 940 93 920 b 118 837 93 873 101 853 b 179 813 135 821 155 813 b 241 836 203 813 224 820 b 267 896 258 852 267 872 z "},"İ":{"ha":376,"x_min":0,"x_max":0,"o":"m 257 0 l 257 983 l 119 983 l 119 0 z m 278 1174 b 252 1234 278 1198 269 1218 b 190 1258 235 1250 214 1258 b 129 1234 166 1258 146 1250 b 104 1174 113 1218 104 1198 b 129 1115 104 1150 113 1131 b 190 1090 146 1098 166 1090 b 252 1114 214 1090 235 1098 b 278 1174 269 1130 278 1150 z "},"ı":{"ha":360,"x_min":0,"x_max":0,"o":"m 244 0 l 244 658 l 114 658 l 114 0 z "},"Ĳ":{"ha":1053,"x_min":0,"x_max":0,"o":"m 257 0 l 257 983 l 119 983 l 119 0 z m 514 219 l 386 183 b 479 33 401 122 432 72 b 663 -25 526 -6 588 -25 b 803 7 720 -25 767 -14 b 889 88 840 28 869 55 b 931 193 909 120 923 155 b 942 301 938 231 942 267 l 942 983 l 804 983 l 804 307 b 797 226 804 278 802 251 b 774 159 793 200 785 178 b 728 114 763 140 747 125 b 656 97 709 103 685 97 b 563 132 619 97 588 109 b 514 219 538 155 521 184 z "},"ĳ":{"ha":715,"x_min":0,"x_max":0,"o":"m 244 0 l 244 658 l 114 658 l 114 0 z m 267 896 b 241 956 267 920 258 940 b 179 981 224 972 203 981 b 118 956 155 981 135 972 b 93 896 101 940 93 920 b 118 837 93 873 101 853 b 179 813 135 821 155 813 b 241 836 203 813 224 820 b 267 896 258 852 267 872 z m 325 -214 l 311 -325 b 347 -331 321 -327 333 -329 b 386 -333 361 -332 374 -333 b 493 -313 430 -333 465 -327 b 558 -258 521 -300 543 -281 b 591 -179 574 -235 585 -209 b 600 -85 597 -150 600 -118 l 600 658 l 469 658 l 469 -81 b 466 -135 469 -100 468 -118 b 453 -180 464 -153 459 -167 b 425 -210 446 -192 437 -202 b 378 -221 413 -217 397 -221 b 325 -214 361 -221 344 -219 z m 622 896 b 597 956 622 920 614 940 b 535 981 579 972 559 981 b 473 956 511 981 490 972 b 447 896 456 940 447 920 b 473 837 447 873 456 853 b 535 813 490 821 511 813 b 597 836 559 813 579 820 b 622 896 614 852 622 872 z "},"Ĵ":{"ha":688,"x_min":0,"x_max":0,"o":"m 149 219 l 21 183 b 114 33 36 122 67 72 b 297 -25 161 -6 222 -25 b 438 7 355 -25 402 -14 b 524 88 475 28 503 55 b 565 193 544 120 558 155 b 576 301 573 231 576 267 l 576 983 l 439 983 l 439 307 b 432 226 439 278 437 251 b 408 159 427 200 419 178 b 363 114 397 140 382 125 b 290 97 344 103 320 97 b 197 132 253 97 222 109 b 149 219 172 155 156 184 z m 738 1061 l 582 1261 l 432 1261 l 276 1061 l 401 1061 l 507 1199 l 611 1061 z "},"ĵ":{"ha":361,"x_min":0,"x_max":0,"o":"m -29 -214 l -43 -325 b -7 -331 -33 -327 -21 -329 b 32 -333 7 -332 20 -333 b 139 -313 75 -333 111 -327 b 204 -258 167 -300 188 -281 b 237 -179 220 -235 231 -209 b 246 -85 243 -150 246 -118 l 246 658 l 115 658 l 115 -81 b 112 -135 115 -100 114 -118 b 99 -180 109 -153 105 -167 b 71 -210 92 -192 83 -202 b 24 -221 59 -217 43 -221 b -29 -214 7 -221 -11 -219 z m 408 783 l 253 983 l 103 983 l -53 783 l 72 783 l 178 921 l 282 783 z "},"Ķ":{"ha":915,"x_min":0,"x_max":0,"o":"m 257 550 l 257 983 l 119 983 l 119 0 l 257 0 l 257 508 l 260 508 l 721 0 l 918 0 l 411 533 l 889 983 l 699 983 l 260 550 z m 447 -326 l 556 -62 l 426 -62 l 338 -326 z "},"ķ":{"ha":732,"x_min":0,"x_max":0,"o":"m 246 372 l 246 1050 l 115 1050 l 115 0 l 246 0 l 246 342 l 250 342 l 547 0 l 728 0 l 393 360 l 701 658 l 526 658 l 250 372 z m 354 -326 l 463 -62 l 333 -62 l 244 -326 z "},"Ĺ":{"ha":710,"x_min":0,"x_max":0,"o":"m 257 122 l 257 983 l 119 983 l 119 0 l 696 0 l 696 122 z m 231 1061 l 421 1261 l 263 1261 l 125 1061 z "},"ĺ":{"ha":361,"x_min":0,"x_max":0,"o":"m 246 0 l 246 1050 l 115 1050 l 115 0 z m 222 1100 l 411 1300 l 254 1300 l 115 1100 z "},"Ļ":{"ha":710,"x_min":0,"x_max":0,"o":"m 257 122 l 257 983 l 119 983 l 119 0 l 696 0 l 696 122 z m 385 -326 l 493 -62 l 364 -62 l 275 -326 z "},"ļ":{"ha":361,"x_min":0,"x_max":0,"o":"m 246 0 l 246 1050 l 115 1050 l 115 0 z m 160 -326 l 268 -62 l 139 -62 l 50 -326 z "},"Ľ":{"ha":710,"x_min":0,"x_max":0,"o":"m 257 122 l 257 983 l 119 983 l 119 0 l 696 0 l 696 122 z m 428 719 l 536 983 l 407 983 l 318 719 z "},"ľ":{"ha":361,"x_min":0,"x_max":0,"o":"m 246 0 l 246 1050 l 115 1050 l 115 0 z m 404 719 l 513 983 l 383 983 l 294 719 z "},"Ŀ":{"ha":710,"x_min":0,"x_max":0,"o":"m 257 122 l 257 983 l 119 983 l 119 0 l 696 0 l 696 122 z m 624 465 b 598 526 624 489 615 509 b 536 550 581 542 560 550 b 475 526 512 550 492 542 b 450 465 458 509 450 489 b 475 406 450 442 458 422 b 536 382 492 390 512 382 b 598 406 560 382 581 390 b 624 465 615 421 624 441 z "},"ŀ":{"ha":486,"x_min":0,"x_max":0,"o":"m 246 0 l 246 1050 l 115 1050 l 115 0 z m 506 465 b 480 526 506 489 497 509 b 418 550 463 542 442 550 b 357 526 394 550 374 542 b 332 465 340 509 332 489 b 357 406 332 442 340 422 b 418 382 374 390 394 382 b 480 406 442 382 463 390 b 506 465 497 421 506 441 z "},"Ł":{"ha":710,"x_min":0,"x_max":0,"o":"m 257 535 l 257 983 l 119 983 l 119 432 l 14 342 l 14 215 l 119 307 l 119 0 l 696 0 l 696 122 l 257 122 l 257 410 l 550 665 l 550 790 z "},"ł":{"ha":361,"x_min":0,"x_max":0,"o":"m 244 667 l 244 1050 l 115 1050 l 115 563 l 11 458 l 11 331 l 115 436 l 115 0 l 244 0 l 244 543 l 349 647 l 349 772 z "},"Ń":{"ha":1072,"x_min":0,"x_max":0,"o":"m 813 197 l 299 983 l 119 983 l 119 0 l 257 0 l 257 803 l 260 803 l 779 0 l 953 0 l 953 983 l 815 983 l 815 197 z m 543 1061 l 733 1261 l 575 1261 l 438 1061 z "},"ń":{"ha":808,"x_min":0,"x_max":0,"o":"m 231 658 l 107 658 b 111 585 109 637 110 613 b 113 517 112 557 113 534 l 113 0 l 243 0 l 243 350 b 292 508 243 416 259 468 b 419 567 325 547 368 567 b 494 550 450 567 475 561 b 540 506 514 539 529 524 b 563 442 551 487 559 466 b 569 365 567 418 569 392 l 569 0 l 700 0 l 700 408 b 685 513 700 445 695 480 b 640 597 676 545 661 573 b 564 655 620 621 594 641 b 454 676 533 669 497 676 b 385 667 430 676 407 673 b 324 640 363 660 342 651 b 274 599 305 628 289 615 b 240 550 260 584 249 568 l 236 550 b 235 602 236 564 236 581 b 231 658 234 623 232 642 z m 431 783 l 619 983 l 463 983 l 324 783 z "},"Ņ":{"ha":1072,"x_min":0,"x_max":0,"o":"m 813 197 l 299 983 l 119 983 l 119 0 l 257 0 l 257 803 l 260 803 l 779 0 l 953 0 l 953 983 l 815 983 l 815 197 z m 524 -326 l 632 -62 l 503 -62 l 414 -326 z "},"ņ":{"ha":808,"x_min":0,"x_max":0,"o":"m 231 658 l 107 658 b 111 585 109 637 110 613 b 113 517 112 557 113 534 l 113 0 l 243 0 l 243 350 b 292 508 243 416 259 468 b 419 567 325 547 368 567 b 494 550 450 567 475 561 b 540 506 514 539 529 524 b 563 442 551 487 559 466 b 569 365 567 418 569 392 l 569 0 l 700 0 l 700 408 b 685 513 700 445 695 480 b 640 597 676 545 661 573 b 564 655 620 621 594 641 b 454 676 533 669 497 676 b 385 667 430 676 407 673 b 324 640 363 660 342 651 b 274 599 305 628 289 615 b 240 550 260 584 249 568 l 236 550 b 235 602 236 564 236 581 b 231 658 234 623 232 642 z m 385 -326 l 493 -62 l 364 -62 l 275 -326 z "},"Ň":{"ha":1072,"x_min":0,"x_max":0,"o":"m 813 197 l 299 983 l 119 983 l 119 0 l 257 0 l 257 803 l 260 803 l 779 0 l 953 0 l 953 983 l 815 983 l 815 197 z m 614 1061 l 769 1261 l 647 1261 l 542 1124 l 436 1261 l 311 1261 l 465 1061 z "},"ň":{"ha":808,"x_min":0,"x_max":0,"o":"m 231 658 l 107 658 b 111 585 109 637 110 613 b 113 517 112 557 113 534 l 113 0 l 243 0 l 243 350 b 292 508 243 416 259 468 b 419 567 325 547 368 567 b 494 550 450 567 475 561 b 540 506 514 539 529 524 b 563 442 551 487 559 466 b 569 365 567 418 569 392 l 569 0 l 700 0 l 700 408 b 685 513 700 445 695 480 b 640 597 676 545 661 573 b 564 655 620 621 594 641 b 454 676 533 669 497 676 b 385 667 430 676 407 673 b 324 640 363 660 342 651 b 274 599 305 628 289 615 b 240 550 260 584 249 568 l 236 550 b 235 602 236 564 236 581 b 231 658 234 623 232 642 z m 479 783 l 635 983 l 513 983 l 407 846 l 301 983 l 176 983 l 331 783 z "},"ŉ":{"ha":836,"x_min":0,"x_max":0,"o":"m 258 658 l 135 658 b 139 585 137 637 138 613 b 140 517 140 557 140 534 l 140 0 l 271 0 l 271 350 b 320 508 271 416 287 468 b 447 567 353 547 395 567 b 522 550 478 567 503 561 b 568 506 542 539 557 524 b 591 442 579 487 587 466 b 597 365 595 418 597 392 l 597 0 l 728 0 l 728 408 b 713 513 728 445 723 480 b 668 597 703 545 688 573 b 592 655 648 621 622 641 b 482 676 561 669 525 676 b 413 667 458 676 435 673 b 351 640 390 660 370 651 b 302 599 333 628 316 615 b 268 550 288 584 276 568 l 264 550 b 263 602 264 564 263 581 b 258 658 262 623 260 642 z m 93 719 l 201 983 l 72 983 l -17 719 z "},"Ō":{"ha":1179,"x_min":0,"x_max":0,"o":"m 1111 493 b 1072 703 1111 570 1098 640 b 963 866 1045 767 1009 821 b 797 971 916 911 861 946 b 589 1008 733 996 664 1008 b 381 971 514 1008 445 996 b 217 866 318 946 263 911 b 108 703 170 821 134 767 b 69 493 82 640 69 570 b 108 284 69 417 82 347 b 217 120 134 221 170 166 b 381 13 263 74 318 39 b 589 -25 445 -12 514 -25 b 797 13 664 -25 733 -12 b 963 120 861 39 916 74 b 1072 284 1009 166 1045 221 b 1111 493 1098 347 1111 417 z m 963 493 b 936 339 963 438 954 387 b 861 213 919 291 894 249 b 743 129 829 178 789 150 b 589 99 697 109 645 99 b 436 129 532 99 481 109 b 319 213 391 150 352 178 b 244 339 287 249 262 291 b 218 493 227 387 218 438 b 244 645 218 547 227 597 b 319 771 262 693 287 735 b 435 856 351 807 390 835 b 589 888 481 877 532 888 b 744 856 646 888 698 877 b 861 771 790 835 829 807 b 936 645 894 735 919 693 b 963 493 954 597 963 547 z m 796 1107 l 796 1200 l 385 1200 l 385 1107 z "},"ō":{"ha":847,"x_min":0,"x_max":0,"o":"m 779 331 b 752 470 779 381 770 428 b 677 579 734 512 709 549 b 564 651 645 610 607 634 b 424 676 520 668 474 676 b 283 651 374 676 327 668 b 171 579 240 634 202 610 b 97 470 139 549 115 512 b 69 331 78 428 69 381 b 97 190 69 280 78 233 b 171 80 115 148 139 111 b 283 8 202 49 240 25 b 424 -18 327 -9 374 -18 b 564 8 474 -18 520 -9 b 677 80 607 25 645 49 b 752 190 709 111 734 148 b 779 331 770 233 779 280 z m 643 331 b 628 240 643 299 638 269 b 586 164 619 212 605 186 b 517 111 568 142 545 124 b 424 92 490 98 459 92 b 330 111 388 92 357 98 b 261 164 303 124 280 142 b 219 240 243 186 228 212 b 204 331 209 269 204 299 b 219 421 204 362 209 392 b 261 497 228 450 243 475 b 330 549 280 518 303 536 b 424 568 357 562 388 568 b 517 549 459 568 490 562 b 586 497 545 536 568 518 b 628 421 605 475 619 450 b 643 331 638 392 643 362 z m 631 829 l 631 922 l 219 922 l 219 829 z "},"Ŏ":{"ha":1179,"x_min":0,"x_max":0,"o":"m 1111 493 b 1072 703 1111 570 1098 640 b 963 866 1045 767 1009 821 b 797 971 916 911 861 946 b 589 1008 733 996 664 1008 b 381 971 514 1008 445 996 b 217 866 318 946 263 911 b 108 703 170 821 134 767 b 69 493 82 640 69 570 b 108 284 69 417 82 347 b 217 120 134 221 170 166 b 381 13 263 74 318 39 b 589 -25 445 -12 514 -25 b 797 13 664 -25 733 -12 b 963 120 861 39 916 74 b 1072 284 1009 166 1045 221 b 1111 493 1098 347 1111 417 z m 963 493 b 936 339 963 438 954 387 b 861 213 919 291 894 249 b 743 129 829 178 789 150 b 589 99 697 109 645 99 b 436 129 532 99 481 109 b 319 213 391 150 352 178 b 244 339 287 249 262 291 b 218 493 227 387 218 438 b 244 645 218 547 227 597 b 319 771 262 693 287 735 b 435 856 351 807 390 835 b 589 888 481 877 532 888 b 744 856 646 888 698 877 b 861 771 790 835 829 807 b 936 645 894 735 919 693 b 963 493 954 597 963 547 z m 810 1261 l 733 1261 b 683 1183 725 1223 708 1197 b 589 1161 658 1168 627 1161 b 496 1185 554 1161 523 1169 b 446 1261 469 1200 452 1226 l 368 1261 b 435 1117 373 1197 395 1149 b 589 1069 476 1085 527 1069 b 741 1117 650 1069 701 1085 b 810 1261 781 1149 804 1197 z "},"ŏ":{"ha":847,"x_min":0,"x_max":0,"o":"m 779 331 b 752 470 779 381 770 428 b 677 579 734 512 709 549 b 564 651 645 610 607 634 b 424 676 520 668 474 676 b 283 651 374 676 327 668 b 171 579 240 634 202 610 b 97 470 139 549 115 512 b 69 331 78 428 69 381 b 97 190 69 280 78 233 b 171 80 115 148 139 111 b 283 8 202 49 240 25 b 424 -18 327 -9 374 -18 b 564 8 474 -18 520 -9 b 677 80 607 25 645 49 b 752 190 709 111 734 148 b 779 331 770 233 779 280 z m 643 331 b 628 240 643 299 638 269 b 586 164 619 212 605 186 b 517 111 568 142 545 124 b 424 92 490 98 459 92 b 330 111 388 92 357 98 b 261 164 303 124 280 142 b 219 240 243 186 228 212 b 204 331 209 269 204 299 b 219 421 204 362 209 392 b 261 497 228 450 243 475 b 330 549 280 518 303 536 b 424 568 357 562 388 568 b 517 549 459 568 490 562 b 586 497 545 536 568 518 b 628 421 605 475 619 450 b 643 331 638 392 643 362 z m 646 983 l 569 983 b 519 905 561 945 544 919 b 425 883 494 891 463 883 b 332 907 390 883 359 891 b 282 983 305 923 288 948 l 204 983 b 272 840 209 919 231 872 b 425 792 312 808 363 792 b 577 840 486 792 537 808 b 646 983 617 872 640 919 z "},"Ő":{"ha":1179,"x_min":0,"x_max":0,"o":"m 1111 493 b 1072 703 1111 570 1098 640 b 963 866 1045 767 1009 821 b 797 971 916 911 861 946 b 589 1008 733 996 664 1008 b 381 971 514 1008 445 996 b 217 866 318 946 263 911 b 108 703 170 821 134 767 b 69 493 82 640 69 570 b 108 284 69 417 82 347 b 217 120 134 221 170 166 b 381 13 263 74 318 39 b 589 -25 445 -12 514 -25 b 797 13 664 -25 733 -12 b 963 120 861 39 916 74 b 1072 284 1009 166 1045 221 b 1111 493 1098 347 1111 417 z m 963 493 b 936 339 963 438 954 387 b 861 213 919 291 894 249 b 743 129 829 178 789 150 b 589 99 697 109 645 99 b 436 129 532 99 481 109 b 319 213 391 150 352 178 b 244 339 287 249 262 291 b 218 493 227 387 218 438 b 244 645 218 547 227 597 b 319 771 262 693 287 735 b 435 856 351 807 390 835 b 589 888 481 877 532 888 b 744 856 646 888 698 877 b 861 771 790 835 829 807 b 936 645 894 735 919 693 b 963 493 954 597 963 547 z m 504 1061 l 694 1261 l 536 1261 l 397 1061 z m 758 1061 l 947 1261 l 790 1261 l 651 1061 z "},"ő":{"ha":847,"x_min":0,"x_max":0,"o":"m 779 331 b 752 470 779 381 770 428 b 677 579 734 512 709 549 b 564 651 645 610 607 634 b 424 676 520 668 474 676 b 283 651 374 676 327 668 b 171 579 240 634 202 610 b 97 470 139 549 115 512 b 69 331 78 428 69 381 b 97 190 69 280 78 233 b 171 80 115 148 139 111 b 283 8 202 49 240 25 b 424 -18 327 -9 374 -18 b 564 8 474 -18 520 -9 b 677 80 607 25 645 49 b 752 190 709 111 734 148 b 779 331 770 233 779 280 z m 643 331 b 628 240 643 299 638 269 b 586 164 619 212 605 186 b 517 111 568 142 545 124 b 424 92 490 98 459 92 b 330 111 388 92 357 98 b 261 164 303 124 280 142 b 219 240 243 186 228 212 b 204 331 209 269 204 299 b 219 421 204 362 209 392 b 261 497 228 450 243 475 b 330 549 280 518 303 536 b 424 568 357 562 388 568 b 517 549 459 568 490 562 b 586 497 545 536 568 518 b 628 421 605 475 619 450 b 643 331 638 392 643 362 z m 346 783 l 536 983 l 378 983 l 239 783 z m 600 783 l 789 983 l 632 983 l 493 783 z "},"Ŕ":{"ha":853,"x_min":0,"x_max":0,"o":"m 257 0 l 257 438 l 404 438 l 654 0 l 821 0 l 546 451 b 718 536 616 463 674 492 b 785 711 763 581 785 639 b 757 838 785 761 775 803 b 681 922 738 873 713 901 b 569 969 649 944 612 959 b 435 983 527 978 482 983 l 119 983 l 119 0 z m 257 553 l 257 867 l 425 867 b 510 859 455 867 483 864 b 580 833 537 854 560 845 b 628 785 600 821 616 805 b 646 711 640 766 646 741 b 628 637 646 681 640 657 b 578 588 616 617 599 601 b 506 561 558 576 533 567 b 415 553 478 556 448 553 z m 414 1061 l 604 1261 l 446 1261 l 308 1061 z "},"ŕ":{"ha":503,"x_min":0,"x_max":0,"o":"m 113 517 l 113 0 l 243 0 l 243 346 b 254 426 243 374 247 400 b 288 493 262 451 273 474 b 346 540 303 513 323 528 b 428 557 369 551 396 557 b 488 550 449 557 469 555 l 493 671 b 442 676 479 675 462 676 b 322 641 397 676 357 665 b 240 547 286 617 259 586 l 236 547 b 235 601 236 561 236 579 b 231 658 234 622 232 642 l 107 658 b 111 585 109 637 110 613 b 113 517 112 557 113 534 z m 251 783 l 440 983 l 283 983 l 144 783 z "},"Ŗ":{"ha":853,"x_min":0,"x_max":0,"o":"m 257 0 l 257 438 l 404 438 l 654 0 l 821 0 l 546 451 b 718 536 616 463 674 492 b 785 711 763 581 785 639 b 757 838 785 761 775 803 b 681 922 738 873 713 901 b 569 969 649 944 612 959 b 435 983 527 978 482 983 l 119 983 l 119 0 z m 257 553 l 257 867 l 425 867 b 510 859 455 867 483 864 b 580 833 537 854 560 845 b 628 785 600 821 616 805 b 646 711 640 766 646 741 b 628 637 646 681 640 657 b 578 588 616 617 599 601 b 506 561 558 576 533 567 b 415 553 478 556 448 553 z m 418 -326 l 526 -62 l 397 -62 l 308 -326 z "},"ŗ":{"ha":503,"x_min":0,"x_max":0,"o":"m 113 517 l 113 0 l 243 0 l 243 346 b 254 426 243 374 247 400 b 288 493 262 451 273 474 b 346 540 303 513 323 528 b 428 557 369 551 396 557 b 488 550 449 557 469 555 l 493 671 b 442 676 479 675 462 676 b 322 641 397 676 357 665 b 240 547 286 617 259 586 l 236 547 b 235 601 236 561 236 579 b 231 658 234 622 232 642 l 107 658 b 111 585 109 637 110 613 b 113 517 112 557 113 534 z m 158 -326 l 267 -62 l 138 -62 l 49 -326 z "},"Ř":{"ha":853,"x_min":0,"x_max":0,"o":"m 257 0 l 257 438 l 404 438 l 654 0 l 821 0 l 546 451 b 718 536 616 463 674 492 b 785 711 763 581 785 639 b 757 838 785 761 775 803 b 681 922 738 873 713 901 b 569 969 649 944 612 959 b 435 983 527 978 482 983 l 119 983 l 119 0 z m 257 553 l 257 867 l 425 867 b 510 859 455 867 483 864 b 580 833 537 854 560 845 b 628 785 600 821 616 805 b 646 711 640 766 646 741 b 628 637 646 681 640 657 b 578 588 616 617 599 601 b 506 561 558 576 533 567 b 415 553 478 556 448 553 z m 482 1061 l 638 1261 l 515 1261 l 410 1124 l 304 1261 l 179 1261 l 333 1061 z "},"ř":{"ha":503,"x_min":0,"x_max":0,"o":"m 113 517 l 113 0 l 243 0 l 243 346 b 254 426 243 374 247 400 b 288 493 262 451 273 474 b 346 540 303 513 323 528 b 428 557 369 551 396 557 b 488 550 449 557 469 555 l 493 671 b 442 676 479 675 462 676 b 322 641 397 676 357 665 b 240 547 286 617 259 586 l 236 547 b 235 601 236 561 236 579 b 231 658 234 622 232 642 l 107 658 b 111 585 109 637 110 613 b 113 517 112 557 113 534 z m 369 783 l 525 983 l 403 983 l 297 846 l 192 983 l 67 983 l 221 783 z "},"Ś":{"ha":790,"x_min":0,"x_max":0,"o":"m 608 801 l 706 896 b 585 978 675 930 635 957 b 424 1008 535 998 481 1008 b 302 992 383 1008 342 1003 b 194 942 262 982 226 965 b 116 854 162 919 136 889 b 86 728 96 819 86 777 b 108 614 86 682 94 644 b 167 537 123 583 143 558 b 249 485 191 516 218 499 b 342 451 279 472 310 461 b 431 422 373 441 403 431 b 506 386 459 412 484 400 b 556 335 527 372 544 355 b 575 261 569 316 575 291 b 557 185 575 231 569 206 b 510 133 545 165 529 147 b 447 103 491 119 470 109 b 378 93 424 96 401 93 b 251 125 332 93 290 104 b 158 208 213 146 181 174 l 51 118 b 195 11 89 71 137 35 b 375 -25 253 -13 313 -25 b 502 -7 419 -25 461 -19 b 611 48 543 5 580 23 b 687 141 643 72 668 103 b 715 274 706 178 715 223 b 689 395 715 323 706 363 b 621 475 671 427 649 454 b 528 526 593 496 562 513 b 426 561 494 539 460 551 b 348 588 399 570 372 579 b 284 620 323 597 302 608 b 241 666 266 633 252 648 b 225 733 230 684 225 706 b 242 805 225 761 231 785 b 288 855 254 825 269 841 b 349 884 306 868 327 878 b 417 893 372 890 394 893 b 529 867 458 893 496 884 b 608 801 563 850 589 828 z m 425 1061 l 615 1261 l 457 1261 l 319 1061 z "},"ś":{"ha":617,"x_min":0,"x_max":0,"o":"m 468 492 l 558 568 b 456 649 534 603 500 630 b 319 676 412 667 367 676 b 228 665 288 676 257 672 b 149 628 198 657 172 645 b 92 566 125 612 107 591 b 71 475 78 541 71 510 b 88 398 71 444 77 419 b 133 346 100 377 115 360 b 195 313 152 332 172 321 b 263 293 218 305 240 299 b 391 251 319 280 362 266 b 435 183 420 237 435 214 b 424 138 435 165 431 150 b 394 108 416 125 406 116 b 352 92 381 101 367 96 b 304 88 337 89 321 88 b 202 114 267 88 233 96 b 129 179 171 131 147 153 l 36 100 b 155 11 68 60 107 31 b 301 -18 203 -8 251 -18 b 399 -7 335 -18 367 -14 b 483 30 430 0 458 13 b 542 96 507 47 527 69 b 564 194 556 123 564 156 b 547 269 564 223 558 248 b 501 324 536 291 521 309 b 431 363 481 340 457 352 b 343 389 404 373 375 381 b 231 426 293 400 256 412 b 193 488 206 439 193 460 b 203 527 193 503 197 516 b 231 553 210 538 220 547 b 271 569 243 560 256 566 b 315 574 286 572 300 574 b 406 551 349 574 379 566 b 468 492 432 535 453 516 z m 328 783 l 517 983 l 360 983 l 221 783 z "},"Ŝ":{"ha":790,"x_min":0,"x_max":0,"o":"m 608 801 l 706 896 b 585 978 675 930 635 957 b 424 1008 535 998 481 1008 b 302 992 383 1008 342 1003 b 194 942 262 982 226 965 b 116 854 162 919 136 889 b 86 728 96 819 86 777 b 108 614 86 682 94 644 b 167 537 123 583 143 558 b 249 485 191 516 218 499 b 342 451 279 472 310 461 b 431 422 373 441 403 431 b 506 386 459 412 484 400 b 556 335 527 372 544 355 b 575 261 569 316 575 291 b 557 185 575 231 569 206 b 510 133 545 165 529 147 b 447 103 491 119 470 109 b 378 93 424 96 401 93 b 251 125 332 93 290 104 b 158 208 213 146 181 174 l 51 118 b 195 11 89 71 137 35 b 375 -25 253 -13 313 -25 b 502 -7 419 -25 461 -19 b 611 48 543 5 580 23 b 687 141 643 72 668 103 b 715 274 706 178 715 223 b 689 395 715 323 706 363 b 621 475 671 427 649 454 b 528 526 593 496 562 513 b 426 561 494 539 460 551 b 348 588 399 570 372 579 b 284 620 323 597 302 608 b 241 666 266 633 252 648 b 225 733 230 684 225 706 b 242 805 225 761 231 785 b 288 855 254 825 269 841 b 349 884 306 868 327 878 b 417 893 372 890 394 893 b 529 867 458 893 496 884 b 608 801 563 850 589 828 z m 651 1061 l 496 1261 l 346 1261 l 190 1061 l 315 1061 l 421 1199 l 525 1061 z "},"ŝ":{"ha":617,"x_min":0,"x_max":0,"o":"m 468 492 l 558 568 b 456 649 534 603 500 630 b 319 676 412 667 367 676 b 228 665 288 676 257 672 b 149 628 198 657 172 645 b 92 566 125 612 107 591 b 71 475 78 541 71 510 b 88 398 71 444 77 419 b 133 346 100 377 115 360 b 195 313 152 332 172 321 b 263 293 218 305 240 299 b 391 251 319 280 362 266 b 435 183 420 237 435 214 b 424 138 435 165 431 150 b 394 108 416 125 406 116 b 352 92 381 101 367 96 b 304 88 337 89 321 88 b 202 114 267 88 233 96 b 129 179 171 131 147 153 l 36 100 b 155 11 68 60 107 31 b 301 -18 203 -8 251 -18 b 399 -7 335 -18 367 -14 b 483 30 430 0 458 13 b 542 96 507 47 527 69 b 564 194 556 123 564 156 b 547 269 564 223 558 248 b 501 324 536 291 521 309 b 431 363 481 340 457 352 b 343 389 404 373 375 381 b 231 426 293 400 256 412 b 193 488 206 439 193 460 b 203 527 193 503 197 516 b 231 553 210 538 220 547 b 271 569 243 560 256 566 b 315 574 286 572 300 574 b 406 551 349 574 379 566 b 468 492 432 535 453 516 z m 554 783 l 399 983 l 249 983 l 93 783 l 218 783 l 324 921 l 428 783 z "},"Ş":{"ha":790,"x_min":0,"x_max":0,"o":"m 608 801 l 706 896 b 585 978 675 930 635 957 b 424 1008 535 998 481 1008 b 302 992 383 1008 342 1003 b 194 942 262 982 226 965 b 116 854 162 919 136 889 b 86 728 96 819 86 777 b 108 614 86 682 94 644 b 167 537 123 583 143 558 b 249 485 191 516 218 499 b 342 451 279 472 310 461 b 431 422 373 441 403 431 b 506 386 459 412 484 400 b 556 335 527 372 544 355 b 575 261 569 316 575 291 b 557 185 575 231 569 206 b 510 133 545 165 529 147 b 447 103 491 119 470 109 b 378 93 424 96 401 93 b 251 125 332 93 290 104 b 158 208 213 146 181 174 l 51 118 b 187 14 87 73 132 38 b 358 -25 242 -10 299 -23 l 289 -131 l 317 -158 b 346 -151 326 -156 336 -153 b 374 -149 356 -150 365 -149 b 425 -160 392 -149 409 -152 b 449 -201 441 -167 449 -181 b 440 -231 449 -213 446 -223 b 417 -248 434 -238 426 -244 b 390 -257 409 -252 399 -255 b 364 -260 380 -259 371 -260 b 257 -236 327 -260 291 -252 l 229 -294 b 297 -318 249 -305 271 -312 b 372 -326 323 -324 348 -326 b 433 -321 392 -326 412 -325 b 490 -301 453 -317 472 -310 b 532 -262 507 -291 521 -278 b 549 -201 543 -246 549 -225 b 537 -150 549 -181 545 -164 b 506 -117 529 -136 519 -125 b 465 -99 494 -108 480 -102 b 418 -93 449 -95 434 -93 l 399 -93 b 381 -96 393 -93 387 -94 l 429 -22 b 539 6 468 -18 505 -8 b 630 64 573 21 603 40 b 692 152 656 88 677 117 b 715 274 708 187 715 227 b 689 395 715 323 706 363 b 621 475 671 427 649 454 b 528 526 593 496 562 513 b 426 561 494 539 460 551 b 348 588 399 570 372 579 b 284 620 323 597 302 608 b 241 666 266 633 252 648 b 225 733 230 684 225 706 b 242 805 225 761 231 785 b 288 855 254 825 269 841 b 349 884 306 868 327 878 b 417 893 372 890 394 893 b 529 867 458 893 496 884 b 608 801 563 850 589 828 z "},"ş":{"ha":617,"x_min":0,"x_max":0,"o":"m 468 492 l 558 568 b 456 649 534 603 500 630 b 319 676 412 667 367 676 b 228 665 288 676 257 672 b 149 628 198 657 172 645 b 92 566 125 612 107 591 b 71 475 78 541 71 510 b 88 398 71 444 77 419 b 133 346 100 377 115 360 b 195 313 152 332 172 321 b 263 293 218 305 240 299 b 391 251 319 280 362 266 b 435 183 420 237 435 214 b 424 138 435 165 431 150 b 394 108 416 125 406 116 b 352 92 381 101 367 96 b 304 88 337 89 321 88 b 202 114 267 88 233 96 b 129 179 171 131 147 153 l 36 100 b 139 19 64 65 98 38 b 267 -15 180 0 222 -12 l 192 -131 l 219 -158 b 249 -151 229 -156 238 -153 b 276 -149 259 -150 268 -149 b 328 -160 295 -149 312 -152 b 351 -201 344 -167 351 -181 b 342 -231 351 -213 348 -223 b 320 -248 336 -238 329 -244 b 292 -257 311 -252 302 -255 b 267 -260 283 -259 274 -260 b 160 -236 230 -260 194 -252 l 132 -294 b 200 -318 151 -305 174 -312 b 275 -326 226 -324 251 -326 b 335 -321 294 -326 315 -325 b 392 -301 356 -317 375 -310 b 435 -262 409 -291 424 -278 b 451 -201 446 -246 451 -225 b 440 -150 451 -181 447 -164 b 409 -117 432 -136 422 -125 b 367 -99 397 -108 383 -102 b 321 -93 352 -95 337 -93 l 301 -93 b 283 -96 296 -93 290 -94 l 336 -17 b 422 1 366 -14 394 -8 b 495 40 450 9 474 22 b 545 103 516 57 533 78 b 564 194 558 129 564 159 b 547 269 564 223 558 248 b 501 324 536 291 521 309 b 431 363 481 340 457 352 b 343 389 404 373 375 381 b 231 426 293 400 256 412 b 193 488 206 439 193 460 b 203 527 193 503 197 516 b 231 553 210 538 220 547 b 271 569 243 560 256 566 b 315 574 286 572 300 574 b 406 551 349 574 379 566 b 468 492 432 535 453 516 z "},"Ţ":{"ha":790,"x_min":0,"x_max":0,"o":"m 464 0 l 464 863 l 779 863 l 779 983 l 11 983 l 11 863 l 326 863 l 326 0 z m 372 -96 l 436 0 l 367 0 l 281 -131 l 308 -158 b 338 -151 318 -156 327 -153 b 365 -149 348 -150 357 -149 b 417 -160 384 -149 401 -152 b 440 -201 432 -167 440 -181 b 431 -231 440 -213 437 -223 b 409 -248 425 -238 418 -244 b 381 -257 400 -252 391 -255 b 356 -260 372 -259 363 -260 b 249 -236 319 -260 283 -252 l 221 -294 b 289 -318 240 -305 263 -312 b 364 -326 315 -324 340 -326 b 424 -321 383 -326 403 -325 b 481 -301 445 -317 464 -310 b 524 -262 498 -291 513 -278 b 540 -201 535 -246 540 -225 b 528 -150 540 -181 536 -164 b 498 -117 521 -136 510 -125 b 456 -99 485 -108 472 -102 b 410 -93 441 -95 425 -93 l 390 -93 b 372 -96 385 -93 379 -94 z "},"ţ":{"ha":457,"x_min":0,"x_max":0,"o":"m 435 551 l 435 658 l 260 658 l 260 847 l 131 847 l 131 658 l 4 658 l 4 551 l 131 551 l 131 194 b 180 40 131 126 147 75 b 322 -11 213 6 260 -11 b 381 -6 343 -11 362 -9 b 433 7 400 -3 418 1 l 429 114 b 392 101 418 108 406 104 b 353 97 378 99 365 97 b 282 123 320 97 297 106 b 260 208 267 140 260 169 l 260 551 z m 296 -96 l 360 0 l 290 0 l 204 -131 l 232 -158 b 261 -151 241 -156 251 -153 b 289 -149 271 -150 281 -149 b 340 -160 307 -149 325 -152 b 364 -201 356 -167 364 -181 b 355 -231 364 -213 361 -223 b 333 -248 349 -238 341 -244 b 305 -257 324 -252 315 -255 b 279 -260 295 -259 287 -260 b 172 -236 242 -260 206 -252 l 144 -294 b 213 -318 164 -305 187 -312 b 288 -326 238 -324 263 -326 b 348 -321 307 -326 327 -325 b 405 -301 369 -317 388 -310 b 447 -262 422 -291 436 -278 b 464 -201 458 -246 464 -225 b 452 -150 464 -181 460 -164 b 422 -117 444 -136 434 -125 b 380 -99 409 -108 395 -102 b 333 -93 365 -95 349 -93 l 314 -93 b 296 -96 308 -93 302 -94 z "},"Ť":{"ha":790,"x_min":0,"x_max":0,"o":"m 464 0 l 464 863 l 779 863 l 779 983 l 11 983 l 11 863 l 326 863 l 326 0 z m 467 1061 l 622 1261 l 500 1261 l 394 1124 l 289 1261 l 164 1261 l 318 1061 z "},"ť":{"ha":457,"x_min":0,"x_max":0,"o":"m 435 551 l 435 658 l 260 658 l 260 847 l 131 847 l 131 658 l 4 658 l 4 551 l 131 551 l 131 194 b 180 40 131 126 147 75 b 322 -11 213 6 260 -11 b 381 -6 343 -11 362 -9 b 433 7 400 -3 418 1 l 429 114 b 392 101 418 108 406 104 b 353 97 378 99 365 97 b 282 123 320 97 297 106 b 260 208 267 140 260 169 l 260 551 z m 413 751 l 521 1015 l 392 1015 l 303 751 z "},"Ŧ":{"ha":790,"x_min":0,"x_max":0,"o":"m 326 729 l 100 729 l 100 642 l 326 642 l 326 0 l 464 0 l 464 642 l 690 642 l 690 729 l 464 729 l 464 863 l 779 863 l 779 983 l 11 983 l 11 863 l 326 863 z "},"ŧ":{"ha":457,"x_min":0,"x_max":0,"o":"m 131 422 l 17 422 l 17 335 l 131 335 l 131 194 b 180 40 131 126 147 75 b 322 -11 213 6 260 -11 b 381 -6 343 -11 362 -9 b 433 7 400 -3 418 1 l 429 114 b 392 101 418 108 406 104 b 353 97 378 99 365 97 b 282 123 320 97 297 106 b 260 208 267 140 260 169 l 260 335 l 415 335 l 415 422 l 260 422 l 260 551 l 435 551 l 435 658 l 260 658 l 260 847 l 131 847 l 131 658 l 4 658 l 4 551 l 131 551 z "},"Ũ":{"ha":989,"x_min":0,"x_max":0,"o":"m 494 -25 b 664 8 559 -25 616 -14 b 783 94 712 29 752 58 b 853 219 815 131 838 172 b 876 364 869 266 876 314 l 876 983 l 739 983 l 739 372 b 726 273 739 339 735 306 b 685 185 718 240 704 211 b 610 122 666 159 641 138 b 494 99 578 106 540 99 b 378 122 448 99 409 106 b 303 185 347 138 322 159 b 263 273 284 211 271 240 b 250 372 254 306 250 339 l 250 983 l 113 983 l 113 364 b 135 219 113 314 120 266 b 206 94 151 172 174 131 b 325 8 237 58 277 29 b 494 -25 373 -14 430 -25 z m 249 1072 l 325 1072 b 347 1116 330 1088 337 1103 b 390 1136 356 1129 371 1136 b 433 1128 403 1136 417 1133 b 481 1107 448 1122 464 1115 b 533 1087 497 1100 515 1093 b 588 1078 552 1081 570 1078 b 647 1092 611 1078 631 1082 b 689 1128 664 1101 678 1113 b 715 1180 700 1144 709 1161 b 729 1239 721 1199 725 1219 l 654 1239 b 633 1195 650 1223 642 1209 b 588 1175 623 1182 608 1175 b 545 1184 575 1175 560 1178 b 494 1206 530 1190 513 1197 b 444 1225 479 1213 462 1219 b 390 1233 426 1231 408 1233 b 330 1219 366 1233 346 1229 b 289 1183 314 1210 300 1198 b 263 1131 278 1167 269 1150 b 249 1072 257 1112 252 1093 z "},"ũ":{"ha":808,"x_min":0,"x_max":0,"o":"m 576 0 l 700 0 b 696 74 698 21 697 46 b 694 142 695 101 694 124 l 694 658 l 564 658 l 564 308 b 515 151 564 243 548 190 b 388 92 483 111 440 92 b 313 108 357 92 332 97 b 267 153 293 119 278 134 b 244 217 256 171 248 193 b 238 294 240 242 238 268 l 238 658 l 107 658 l 107 250 b 122 146 107 213 112 178 b 166 60 131 113 146 85 b 242 3 186 36 211 17 b 353 -18 273 -11 310 -18 b 484 19 401 -18 445 -6 b 568 108 523 43 551 73 l 571 108 b 572 56 571 94 571 77 b 576 0 573 35 575 17 z m 161 794 l 238 794 b 259 838 242 810 249 825 b 303 858 269 852 283 858 b 345 850 316 858 330 856 b 393 829 360 844 376 838 b 446 809 410 822 427 815 b 500 800 464 803 482 800 b 560 814 523 800 543 805 b 601 851 576 823 590 835 b 627 902 613 866 621 883 b 642 961 633 921 638 941 l 567 961 b 545 917 562 945 555 931 b 500 897 535 904 520 897 b 458 906 487 897 473 900 b 407 928 442 912 425 919 b 356 947 391 935 374 942 b 303 956 338 953 320 956 b 242 942 279 956 259 951 b 201 905 226 932 213 920 b 176 853 190 890 182 872 b 161 794 170 834 165 815 z "},"Ū":{"ha":989,"x_min":0,"x_max":0,"o":"m 494 -25 b 664 8 559 -25 616 -14 b 783 94 712 29 752 58 b 853 219 815 131 838 172 b 876 364 869 266 876 314 l 876 983 l 739 983 l 739 372 b 726 273 739 339 735 306 b 685 185 718 240 704 211 b 610 122 666 159 641 138 b 494 99 578 106 540 99 b 378 122 448 99 409 106 b 303 185 347 138 322 159 b 263 273 284 211 271 240 b 250 372 254 306 250 339 l 250 983 l 113 983 l 113 364 b 135 219 113 314 120 266 b 206 94 151 172 174 131 b 325 8 237 58 277 29 b 494 -25 373 -14 430 -25 z m 694 1107 l 694 1200 l 283 1200 l 283 1107 z "},"ū":{"ha":808,"x_min":0,"x_max":0,"o":"m 576 0 l 700 0 b 696 74 698 21 697 46 b 694 142 695 101 694 124 l 694 658 l 564 658 l 564 308 b 515 151 564 243 548 190 b 388 92 483 111 440 92 b 313 108 357 92 332 97 b 267 153 293 119 278 134 b 244 217 256 171 248 193 b 238 294 240 242 238 268 l 238 658 l 107 658 l 107 250 b 122 146 107 213 112 178 b 166 60 131 113 146 85 b 242 3 186 36 211 17 b 353 -18 273 -11 310 -18 b 484 19 401 -18 445 -6 b 568 108 523 43 551 73 l 571 108 b 572 56 571 94 571 77 b 576 0 573 35 575 17 z m 607 829 l 607 922 l 196 922 l 196 829 z "},"Ŭ":{"ha":989,"x_min":0,"x_max":0,"o":"m 494 -25 b 664 8 559 -25 616 -14 b 783 94 712 29 752 58 b 853 219 815 131 838 172 b 876 364 869 266 876 314 l 876 983 l 739 983 l 739 372 b 726 273 739 339 735 306 b 685 185 718 240 704 211 b 610 122 666 159 641 138 b 494 99 578 106 540 99 b 378 122 448 99 409 106 b 303 185 347 138 322 159 b 263 273 284 211 271 240 b 250 372 254 306 250 339 l 250 983 l 113 983 l 113 364 b 135 219 113 314 120 266 b 206 94 151 172 174 131 b 325 8 237 58 277 29 b 494 -25 373 -14 430 -25 z m 717 1261 l 640 1261 b 590 1183 632 1223 615 1197 b 496 1161 565 1168 534 1161 b 403 1185 461 1161 430 1169 b 353 1261 376 1200 359 1226 l 275 1261 b 342 1117 280 1197 302 1149 b 496 1069 383 1085 434 1069 b 648 1117 557 1069 608 1085 b 717 1261 688 1149 711 1197 z "},"ŭ":{"ha":808,"x_min":0,"x_max":0,"o":"m 576 0 l 700 0 b 696 74 698 21 697 46 b 694 142 695 101 694 124 l 694 658 l 564 658 l 564 308 b 515 151 564 243 548 190 b 388 92 483 111 440 92 b 313 108 357 92 332 97 b 267 153 293 119 278 134 b 244 217 256 171 248 193 b 238 294 240 242 238 268 l 238 658 l 107 658 l 107 250 b 122 146 107 213 112 178 b 166 60 131 113 146 85 b 242 3 186 36 211 17 b 353 -18 273 -11 310 -18 b 484 19 401 -18 445 -6 b 568 108 523 43 551 73 l 571 108 b 572 56 571 94 571 77 b 576 0 573 35 575 17 z m 624 983 l 547 983 b 497 905 539 945 522 919 b 403 883 472 891 441 883 b 310 907 368 883 337 891 b 260 983 283 923 266 948 l 182 983 b 249 840 187 919 209 872 b 403 792 290 808 341 792 b 555 840 464 792 515 808 b 624 983 595 872 618 919 z "},"Ů":{"ha":989,"x_min":0,"x_max":0,"o":"m 494 -25 b 664 8 559 -25 616 -14 b 783 94 712 29 752 58 b 853 219 815 131 838 172 b 876 364 869 266 876 314 l 876 983 l 739 983 l 739 372 b 726 273 739 339 735 306 b 685 185 718 240 704 211 b 610 122 666 159 641 138 b 494 99 578 106 540 99 b 378 122 448 99 409 106 b 303 185 347 138 322 159 b 263 273 284 211 271 240 b 250 372 254 306 250 339 l 250 983 l 113 983 l 113 364 b 135 219 113 314 120 266 b 206 94 151 172 174 131 b 325 8 237 58 277 29 b 494 -25 373 -14 430 -25 z m 629 1185 b 588 1282 629 1224 616 1256 b 489 1321 561 1308 528 1321 b 390 1282 450 1321 417 1308 b 350 1183 363 1256 350 1223 b 361 1129 350 1164 354 1146 b 391 1086 369 1113 378 1098 b 435 1058 403 1074 418 1065 b 489 1047 451 1051 469 1047 b 588 1086 528 1047 561 1060 b 629 1185 616 1112 629 1145 z m 572 1185 b 548 1127 572 1162 564 1142 b 489 1104 532 1112 512 1104 b 431 1127 466 1104 446 1112 b 407 1183 415 1142 407 1161 b 431 1242 407 1206 415 1226 b 489 1265 446 1257 466 1265 b 548 1242 512 1265 532 1258 b 572 1185 564 1227 572 1208 z "},"ů":{"ha":808,"x_min":0,"x_max":0,"o":"m 576 0 l 700 0 b 696 74 698 21 697 46 b 694 142 695 101 694 124 l 694 658 l 564 658 l 564 308 b 515 151 564 243 548 190 b 388 92 483 111 440 92 b 313 108 357 92 332 97 b 267 153 293 119 278 134 b 244 217 256 171 248 193 b 238 294 240 242 238 268 l 238 658 l 107 658 l 107 250 b 122 146 107 213 112 178 b 166 60 131 113 146 85 b 242 3 186 36 211 17 b 353 -18 273 -11 310 -18 b 484 19 401 -18 445 -6 b 568 108 523 43 551 73 l 571 108 b 572 56 571 94 571 77 b 576 0 573 35 575 17 z m 540 907 b 499 1004 540 946 527 978 b 400 1043 472 1030 439 1043 b 301 1004 361 1043 328 1030 b 261 906 275 978 261 945 b 272 851 261 886 265 868 b 302 808 280 835 290 820 b 346 780 315 796 329 787 b 400 769 363 773 381 769 b 499 808 439 769 472 782 b 540 907 527 834 540 867 z m 482 907 b 458 850 482 884 474 865 b 400 828 441 835 422 828 b 344 851 379 828 360 835 b 319 907 328 866 319 885 b 344 963 319 929 328 948 b 400 985 360 977 379 985 b 458 963 422 985 441 977 b 482 907 474 948 482 929 z "},"Ű":{"ha":989,"x_min":0,"x_max":0,"o":"m 494 -25 b 664 8 559 -25 616 -14 b 783 94 712 29 752 58 b 853 219 815 131 838 172 b 876 364 869 266 876 314 l 876 983 l 739 983 l 739 372 b 726 273 739 339 735 306 b 685 185 718 240 704 211 b 610 122 666 159 641 138 b 494 99 578 106 540 99 b 378 122 448 99 409 106 b 303 185 347 138 322 159 b 263 273 284 211 271 240 b 250 372 254 306 250 339 l 250 983 l 113 983 l 113 364 b 135 219 113 314 120 266 b 206 94 151 172 174 131 b 325 8 237 58 277 29 b 494 -25 373 -14 430 -25 z m 404 1061 l 594 1261 l 436 1261 l 297 1061 z m 658 1061 l 847 1261 l 690 1261 l 551 1061 z "},"ű":{"ha":808,"x_min":0,"x_max":0,"o":"m 576 0 l 700 0 b 696 74 698 21 697 46 b 694 142 695 101 694 124 l 694 658 l 564 658 l 564 308 b 515 151 564 243 548 190 b 388 92 483 111 440 92 b 313 108 357 92 332 97 b 267 153 293 119 278 134 b 244 217 256 171 248 193 b 238 294 240 242 238 268 l 238 658 l 107 658 l 107 250 b 122 146 107 213 112 178 b 166 60 131 113 146 85 b 242 3 186 36 211 17 b 353 -18 273 -11 310 -18 b 484 19 401 -18 445 -6 b 568 108 523 43 551 73 l 571 108 b 572 56 571 94 571 77 b 576 0 573 35 575 17 z m 321 783 l 511 983 l 353 983 l 214 783 z m 575 783 l 764 983 l 607 983 l 468 783 z "},"Ų":{"ha":989,"x_min":0,"x_max":0,"o":"m 653 -262 l 622 -200 b 588 -222 612 -209 600 -217 b 549 -231 575 -228 562 -231 b 501 -212 530 -231 514 -224 b 482 -165 488 -199 482 -184 b 507 -92 482 -141 490 -117 b 564 -19 524 -67 543 -43 b 702 27 617 -12 663 3 b 800 115 741 51 774 80 b 858 231 826 149 845 188 b 876 364 870 274 876 319 l 876 983 l 739 983 l 739 372 b 726 273 739 339 735 306 b 685 185 718 240 704 211 b 610 122 666 159 641 138 b 494 99 578 106 540 99 b 378 122 448 99 409 106 b 303 185 347 138 322 159 b 263 273 284 211 271 240 b 250 372 254 306 250 339 l 250 983 l 113 983 l 113 364 b 135 220 113 314 120 266 b 202 98 150 174 172 134 b 316 12 232 62 270 34 b 479 -24 362 -10 416 -22 b 415 -102 455 -47 434 -73 b 386 -193 396 -131 386 -162 b 397 -244 386 -212 390 -228 b 427 -282 405 -259 415 -272 b 470 -306 440 -292 454 -300 b 521 -314 486 -311 503 -314 b 591 -300 545 -314 568 -309 b 653 -262 614 -291 634 -278 z "},"ų":{"ha":808,"x_min":0,"x_max":0,"o":"m 710 -262 l 679 -200 b 644 -222 669 -209 657 -217 b 606 -231 631 -228 619 -231 b 558 -212 587 -231 571 -224 b 539 -165 545 -199 539 -184 b 570 -81 539 -137 549 -109 b 640 0 591 -52 614 -25 l 700 0 b 696 74 698 21 697 46 b 694 142 695 101 694 124 l 694 658 l 564 658 l 564 308 b 515 151 564 243 548 190 b 388 92 483 111 440 92 b 313 108 357 92 332 97 b 267 153 293 119 278 134 b 244 217 256 171 248 193 b 238 294 240 242 238 268 l 238 658 l 107 658 l 107 250 b 122 146 107 213 112 178 b 166 60 131 113 146 85 b 242 3 186 36 211 17 b 353 -18 273 -11 310 -18 b 484 19 401 -18 445 -6 b 568 108 523 43 551 73 l 571 108 b 572 60 571 95 571 79 b 575 8 572 41 573 24 b 530 -31 560 -3 545 -16 b 488 -80 515 -47 500 -63 b 456 -135 475 -97 464 -115 b 443 -193 447 -154 443 -174 b 454 -244 443 -212 447 -228 b 484 -282 462 -259 472 -272 b 527 -306 497 -292 511 -300 b 578 -314 543 -311 560 -314 b 648 -300 602 -314 625 -309 b 710 -262 671 -291 691 -278 z "},"Ŵ":{"ha":1372,"x_min":0,"x_max":0,"o":"m 379 200 l 163 983 l 14 983 l 303 0 l 446 0 l 685 790 l 688 790 l 926 0 l 1069 0 l 1358 983 l 1213 983 l 996 200 l 993 200 l 764 983 l 613 983 l 382 200 z m 919 1061 l 764 1261 l 614 1261 l 458 1061 l 583 1061 l 689 1199 l 793 1061 z "},"ŵ":{"ha":1074,"x_min":0,"x_max":0,"o":"m 161 658 l 19 658 l 239 0 l 375 0 l 536 494 l 539 494 l 701 0 l 838 0 l 1056 658 l 918 658 l 769 156 l 767 156 l 607 658 l 469 658 l 313 156 l 310 156 z m 767 783 l 611 983 l 461 983 l 306 783 l 431 783 l 536 921 l 640 783 z "},"Ŷ":{"ha":867,"x_min":0,"x_max":0,"o":"m 503 0 l 503 425 l 871 983 l 711 983 l 438 539 l 165 983 l -4 983 l 364 425 l 364 0 z m 667 1061 l 511 1261 l 361 1261 l 206 1061 l 331 1061 l 436 1199 l 540 1061 z "},"ŷ":{"ha":700,"x_min":0,"x_max":0,"o":"m 363 142 l 158 658 l 13 658 l 294 0 l 253 -110 b 207 -191 239 -145 224 -172 b 131 -219 190 -210 165 -219 b 65 -208 109 -219 88 -216 l 53 -324 b 97 -331 68 -327 82 -330 b 139 -333 111 -333 125 -333 b 223 -321 171 -333 199 -329 b 285 -285 247 -312 267 -301 b 331 -230 302 -270 318 -252 b 367 -156 344 -208 356 -183 l 686 658 l 547 658 l 365 142 z m 592 783 l 436 983 l 286 983 l 131 783 l 256 783 l 361 921 l 465 783 z "},"Ź":{"ha":822,"x_min":0,"x_max":0,"o":"m 768 863 l 768 983 l 57 983 l 57 863 l 600 863 l 46 121 l 46 0 l 776 0 l 776 122 l 213 122 z m 419 1061 l 610 1261 l 451 1261 l 314 1061 z "},"ź":{"ha":642,"x_min":0,"x_max":0,"o":"m 582 551 l 582 658 l 64 658 l 64 551 l 418 551 l 46 107 l 46 0 l 597 0 l 597 110 l 207 110 z m 335 783 l 524 983 l 367 983 l 228 783 z "},"Ż":{"ha":822,"x_min":0,"x_max":0,"o":"m 768 863 l 768 983 l 57 983 l 57 863 l 600 863 l 46 121 l 46 0 l 776 0 l 776 122 l 213 122 z m 499 1174 b 473 1234 499 1198 490 1218 b 411 1258 456 1250 435 1258 b 350 1234 387 1258 367 1250 b 325 1174 333 1218 325 1198 b 350 1115 325 1150 333 1131 b 411 1090 367 1098 387 1090 b 473 1114 435 1090 456 1098 b 499 1174 490 1130 499 1150 z "},"ż":{"ha":642,"x_min":0,"x_max":0,"o":"m 582 551 l 582 658 l 64 658 l 64 551 l 418 551 l 46 107 l 46 0 l 597 0 l 597 110 l 207 110 z m 418 896 b 392 956 418 920 409 940 b 331 981 375 972 355 981 b 269 956 306 981 286 972 b 244 896 253 940 244 920 b 269 837 244 873 253 853 b 331 813 286 821 306 813 b 392 836 355 813 375 820 b 418 896 409 852 418 872 z "},"ƒ":{"ha":826,"x_min":0,"x_max":0,"o":"m 656 486 l 656 588 l 496 588 l 524 732 b 535 781 526 747 530 763 b 555 831 539 799 546 816 b 589 868 564 845 575 858 b 642 883 603 878 620 883 b 682 877 656 883 669 881 b 719 860 695 873 707 867 l 775 958 b 705 989 753 971 729 981 b 628 1000 680 996 655 1000 b 531 981 590 1000 558 994 b 465 929 505 968 483 950 b 422 854 447 908 432 883 b 397 764 411 825 403 795 l 363 588 l 189 588 l 189 486 l 343 486 l 263 65 b 249 10 259 46 254 27 b 229 -37 244 -8 238 -23 b 197 -69 221 -50 210 -61 b 147 -81 183 -77 167 -81 b 112 -76 136 -81 124 -79 b 78 -61 99 -72 88 -68 l 25 -160 b 86 -185 44 -171 64 -179 b 153 -193 108 -190 131 -193 b 249 -176 190 -193 222 -187 b 317 -127 275 -164 298 -148 b 363 -53 335 -106 350 -81 b 390 43 375 -24 384 8 l 476 486 z "},"Ș":{"ha":790,"x_min":0,"x_max":0,"o":"m 608 801 l 706 896 b 585 978 675 930 635 957 b 424 1008 535 998 481 1008 b 302 992 383 1008 342 1003 b 194 942 262 982 226 965 b 116 854 162 919 136 889 b 86 728 96 819 86 777 b 108 614 86 682 94 644 b 167 537 123 583 143 558 b 249 485 191 516 218 499 b 342 451 279 472 310 461 b 431 422 373 441 403 431 b 506 386 459 412 484 400 b 556 335 527 372 544 355 b 575 261 569 316 575 291 b 557 185 575 231 569 206 b 510 133 545 165 529 147 b 447 103 491 119 470 109 b 378 93 424 96 401 93 b 251 125 332 93 290 104 b 158 208 213 146 181 174 l 51 118 b 195 11 89 71 137 35 b 375 -25 253 -13 313 -25 b 502 -7 419 -25 461 -19 b 611 48 543 5 580 23 b 687 141 643 72 668 103 b 715 274 706 178 715 223 b 689 395 715 323 706 363 b 621 475 671 427 649 454 b 528 526 593 496 562 513 b 426 561 494 539 460 551 b 348 588 399 570 372 579 b 284 620 323 597 302 608 b 241 666 266 633 252 648 b 225 733 230 684 225 706 b 242 805 225 761 231 785 b 288 855 254 825 269 841 b 349 884 306 868 327 878 b 417 893 372 890 394 893 b 529 867 458 893 496 884 b 608 801 563 850 589 828 z m 371 -326 l 479 -62 l 350 -62 l 261 -326 z "},"ș":{"ha":617,"x_min":0,"x_max":0,"o":"m 468 492 l 558 568 b 456 649 534 603 500 630 b 319 676 412 667 367 676 b 228 665 288 676 257 672 b 149 628 198 657 172 645 b 92 566 125 612 107 591 b 71 475 78 541 71 510 b 88 398 71 444 77 419 b 133 346 100 377 115 360 b 195 313 152 332 172 321 b 263 293 218 305 240 299 b 391 251 319 280 362 266 b 435 183 420 237 435 214 b 424 138 435 165 431 150 b 394 108 416 125 406 116 b 352 92 381 101 367 96 b 304 88 337 89 321 88 b 202 114 267 88 233 96 b 129 179 171 131 147 153 l 36 100 b 155 11 68 60 107 31 b 301 -18 203 -8 251 -18 b 399 -7 335 -18 367 -14 b 483 30 430 0 458 13 b 542 96 507 47 527 69 b 564 194 556 123 564 156 b 547 269 564 223 558 248 b 501 324 536 291 521 309 b 431 363 481 340 457 352 b 343 389 404 373 375 381 b 231 426 293 400 256 412 b 193 488 206 439 193 460 b 203 527 193 503 197 516 b 231 553 210 538 220 547 b 271 569 243 560 256 566 b 315 574 286 572 300 574 b 406 551 349 574 379 566 b 468 492 432 535 453 516 z m 283 -326 l 392 -62 l 263 -62 l 174 -326 z "},"Ț":{"ha":790,"x_min":0,"x_max":0,"o":"m 464 0 l 464 863 l 779 863 l 779 983 l 11 983 l 11 863 l 326 863 l 326 0 z m 374 -326 l 482 -62 l 353 -62 l 264 -326 z "},"ț":{"ha":457,"x_min":0,"x_max":0,"o":"m 435 551 l 435 658 l 260 658 l 260 847 l 131 847 l 131 658 l 4 658 l 4 551 l 131 551 l 131 194 b 180 40 131 126 147 75 b 322 -11 213 6 260 -11 b 381 -6 343 -11 362 -9 b 433 7 400 -3 418 1 l 429 114 b 392 101 418 108 406 104 b 353 97 378 99 365 97 b 282 123 320 97 297 106 b 260 208 267 140 260 169 l 260 551 z m 254 -326 l 363 -62 l 233 -62 l 144 -326 z "},"ˆ":{"ha":347,"x_min":0,"x_max":0,"o":"m 404 783 l 249 983 l 99 983 l -57 783 l 68 783 l 174 921 l 278 783 z "},"ˇ":{"ha":347,"x_min":0,"x_max":0,"o":"m 247 783 l 403 983 l 281 983 l 175 846 l 69 983 l -56 983 l 99 783 z "},"ˉ":{"ha":347,"x_min":0,"x_max":0,"o":"m 379 1107 l 379 1200 l -32 1200 l -32 1107 z "},"˘":{"ha":347,"x_min":0,"x_max":0,"o":"m 394 983 l 318 983 b 268 905 310 945 293 919 b 174 883 243 891 212 883 b 81 907 138 883 107 891 b 31 983 54 923 37 948 l -47 983 b 20 840 -43 919 -20 872 b 174 792 60 808 112 792 b 326 840 235 792 285 808 b 394 983 366 872 389 919 z "},"˙":{"ha":347,"x_min":0,"x_max":0,"o":"m 261 896 b 235 956 261 920 253 940 b 174 981 218 972 198 981 b 113 956 150 981 129 972 b 88 896 96 940 88 920 b 113 837 88 873 96 853 b 174 813 129 821 150 813 b 235 836 198 813 218 820 b 261 896 253 852 261 872 z "},"˚":{"ha":347,"x_min":0,"x_max":0,"o":"m 314 907 b 273 1004 314 946 300 978 b 174 1043 246 1030 213 1043 b 75 1004 135 1043 102 1030 b 35 906 48 978 35 945 b 46 851 35 886 38 868 b 76 808 53 835 63 820 b 119 780 88 796 103 787 b 174 769 136 773 154 769 b 273 808 213 769 246 782 b 314 907 300 834 314 867 z m 256 907 b 231 850 256 884 247 865 b 174 828 215 835 196 828 b 117 851 152 828 134 835 b 93 907 101 866 93 885 b 117 963 93 929 101 948 b 174 985 134 977 152 985 b 231 963 196 985 215 977 b 256 907 247 948 256 929 z "},"˛":{"ha":347,"x_min":0,"x_max":0,"o":"m 286 -262 l 256 -200 b 221 -222 245 -209 234 -217 b 182 -231 208 -228 195 -231 b 135 -212 163 -231 148 -224 b 115 -165 122 -199 115 -184 b 125 -121 115 -150 119 -136 b 151 -76 131 -106 140 -91 b 186 -33 161 -62 173 -47 b 226 8 199 -18 213 -5 l 151 8 b 106 -31 137 -3 122 -16 b 64 -80 91 -47 77 -63 b 32 -135 51 -97 40 -115 b 19 -193 24 -154 19 -174 b 31 -244 19 -212 23 -228 b 60 -282 38 -259 48 -272 b 103 -306 73 -292 87 -300 b 154 -314 120 -311 137 -314 b 224 -300 178 -314 202 -309 b 286 -262 247 -291 268 -278 z "},"˜":{"ha":347,"x_min":0,"x_max":0,"o":"m -67 794 l 10 794 b 31 838 14 810 22 825 b 75 858 41 852 56 858 b 117 850 88 858 102 856 b 165 829 133 844 149 838 b 218 809 182 822 200 815 b 272 800 237 803 255 800 b 332 814 295 800 315 805 b 374 851 349 823 363 835 b 399 902 385 866 393 883 b 414 961 405 921 410 941 l 339 961 b 317 917 334 945 327 931 b 272 897 308 904 293 897 b 230 906 259 897 245 900 b 179 928 215 912 198 919 b 128 947 163 935 147 942 b 75 956 110 953 93 956 b 15 942 51 956 31 951 b -26 905 -2 932 -15 920 b -52 853 -37 890 -46 872 b -67 794 -58 834 -63 815 z "},"˝":{"ha":347,"x_min":0,"x_max":0,"o":"m 54 783 l 244 983 l 86 983 l -53 783 z m 308 783 l 497 983 l 340 983 l 201 783 z "},"–":{"ha":556,"x_min":0,"x_max":0,"o":"m 514 288 l 514 392 l 42 392 l 42 288 z "},"—":{"ha":833,"x_min":0,"x_max":0,"o":"m 792 288 l 792 392 l 42 392 l 42 288 z "},"‘":{"ha":342,"x_min":0,"x_max":0,"o":"m 174 983 l 58 636 l 189 636 l 283 983 z "},"’":{"ha":342,"x_min":0,"x_max":0,"o":"m 168 636 l 283 983 l 154 983 l 58 636 z "},"‚":{"ha":342,"x_min":0,"x_max":0,"o":"m 168 -185 l 283 163 l 154 163 l 58 -185 z "},"“":{"ha":592,"x_min":0,"x_max":0,"o":"m 174 983 l 58 636 l 189 636 l 283 983 z m 424 983 l 308 636 l 439 636 l 533 983 z "},"”":{"ha":592,"x_min":0,"x_max":0,"o":"m 418 636 l 533 983 l 404 983 l 308 636 z m 168 636 l 283 983 l 154 983 l 58 636 z "},"„":{"ha":592,"x_min":0,"x_max":0,"o":"m 418 -185 l 533 163 l 404 163 l 308 -185 z m 168 -185 l 283 163 l 154 163 l 58 -185 z "},"†":{"ha":799,"x_min":0,"x_max":0,"o":"m 461 701 l 461 983 l 336 983 l 336 701 l 57 701 l 57 592 l 336 592 l 336 -175 l 461 -175 l 461 592 l 742 592 l 742 701 z "},"‡":{"ha":799,"x_min":0,"x_max":0,"o":"m 461 722 l 461 983 l 336 983 l 336 722 l 67 722 l 67 613 l 336 613 l 336 196 l 67 196 l 67 88 l 336 88 l 336 -175 l 461 -175 l 461 88 l 731 88 l 731 196 l 461 196 l 461 613 l 731 613 l 731 722 z "}}}
